/* XPM */
static char * barNumber_xpm[] = {
"27 34 103 2",
"  	c #123123",
". 	c #D2B81B",
"+ 	c #DDC328",
"@ 	c #DCC22F",
"# 	c #DDC131",
"$ 	c #DBC231",
"% 	c #DCC021",
"& 	c #DCC132",
"* 	c #DCC22D",
"= 	c #DDC12F",
"- 	c #DABE1C",
"; 	c #D5B61D",
"> 	c #D4B61A",
", 	c #D8C231",
"' 	c #DEC230",
") 	c #DFC21E",
"! 	c #D4B819",
"~ 	c #DAC11F",
"{ 	c #DBC130",
"] 	c #DDBE0B",
"^ 	c #D2B81D",
"/ 	c #DCC01F",
"( 	c #DCC231",
"_ 	c #DEBE09",
": 	c #D3B61C",
"< 	c #DAC22E",
"[ 	c #DDC42A",
"} 	c #DEBE0B",
"| 	c #DBC232",
"1 	c #DAC131",
"2 	c #E1C51B",
"3 	c #D5B71B",
"4 	c #DBC12C",
"5 	c #DDC32E",
"6 	c #DCBF19",
"7 	c #D1B71C",
"8 	c #D9C32F",
"9 	c #D9C331",
"0 	c #D9BD13",
"a 	c #D3B91C",
"b 	c #DDC332",
"c 	c #DDC22B",
"d 	c #DDBE16",
"e 	c #DAC130",
"f 	c #DCC332",
"g 	c #DDC22D",
"h 	c #DBC12E",
"i 	c #DCC030",
"j 	c #DDC330",
"k 	c #E0C520",
"l 	c #D1B71A",
"m 	c #DBC32F",
"n 	c #D9C332",
"o 	c #DCC31E",
"p 	c #D3B91E",
"q 	c #D8C230",
"r 	c #E1C120",
"s 	c #D4B71D",
"t 	c #DAC224",
"u 	c #DFC121",
"v 	c #E0C321",
"w 	c #DAC127",
"x 	c #DAC02D",
"y 	c #DBC766",
"z 	c #DEC125",
"A 	c #DCC227",
"B 	c #D8BE23",
"C 	c #D4B51F",
"D 	c #D9BF20",
"E 	c #DDC42C",
"F 	c #DBC027",
"G 	c #D3B61A",
"H 	c #DCC424",
"I 	c #DEC022",
"J 	c #DCC430",
"K 	c #DCC02E",
"L 	c #D9BD1B",
"M 	c #DBC32D",
"N 	c #DFC220",
"O 	c #D9BD11",
"P 	c #DDBF1F",
"Q 	c #DEBF0D",
"R 	c #D3B718",
"S 	c #DDBF09",
"T 	c #D4B71B",
"U 	c #DCC128",
"V 	c #DFC12F",
"W 	c #E1C428",
"X 	c #DCBD15",
"Y 	c #DAC129",
"Z 	c #E3C519",
"` 	c #DCBD17",
" .	c #DAC432",
"..	c #DEBF19",
"+.	c #DEBC12",
"@.	c #D9B90C",
"#.	c #DEC32C",
"$.	c #D2B819",
"%.	c #E3C320",
"&.	c #DEC220",
"*.	c #DFC322",
"=.	c #DEC221",
"-.	c #DAC02B",
"                            . + @ # $ %               ",
"                            . & @ * = -               ",
"                          ; > = , ' )                 ",
"                          ! ~ @ @ { ]                 ",
"                          ^ / $ $ ( _                 ",
"                          : # < = [ }                 ",
"                        : | 1 ' # 2                   ",
"                        3 4 [ @ 5 6                   ",
"                        7 8 @ 9 ( 0                   ",
"                        a { b c ( d                   ",
"                      : e f g 9 5                     ",
"                      ! h i g j k                     ",
"                      l m n = $ o                     ",
"                      p q b * m r                     ",
"                    s t u v w x                       ",
"                    . y m e * z                       ",
"                    ^ 5 A # * B                       ",
"                    C D E 9 * t                       ",
"                  s @ & ( { F                         ",
"                  G H 4 { ' I                         ",
"                  ; # = J K L                         ",
"                  . M j ( N O                         ",
"                : P $ g & Q                           ",
"                R / $ g ( S                           ",
"                T U V @ W X                           ",
"                G Y M $ Z `                           ",
"              G @ U (  ...                            ",
"              s 4 j @ * +.                            ",
"              G = h m b @.                            ",
"              s M f = #.7                             ",
"            $.l g = j %.                              ",
"            : g @ * ( &.                              ",
"            . @ *.* * .                               ",
"            T v =.-.-.l                               "};
