/* XPM */
static char * Bottom_xpm[] = {
"20 20 58 1",
" 	c #605B31",
".	c #625C2C",
"+	c #625A2B",
"@	c #635B2D",
"#	c #615A2C",
"$	c #625B2D",
"%	c #605C2F",
"&	c #726932",
"*	c #726833",
"=	c #716732",
"-	c #726835",
";	c #706935",
">	c #736936",
",	c #615B2B",
"'	c #736934",
")	c #736733",
"!	c #736735",
"~	c #635B2C",
"{	c #716734",
"]	c #6D6330",
"^	c #706633",
"/	c #645C2E",
"(	c #746834",
"_	c #726634",
":	c #6D6332",
"<	c #706837",
"[	c #534B26",
"}	c #443E1E",
"|	c #5C532A",
"1	c #5B5428",
"2	c #595228",
"3	c #524A25",
"4	c #4B4523",
"5	c #403B1D",
"6	c #413C1E",
"7	c #423C1C",
"8	c #4E4622",
"9	c #60572C",
"0	c #474222",
"a	c #433C1F",
"b	c #514C26",
"c	c #070802",
"d	c #040203",
"e	c #0C0B06",
"f	c #0A0905",
"g	c #090804",
"h	c #050503",
"i	c #030301",
"j	c #000002",
"k	c #000000",
"l	c #040402",
"m	c #0B0A05",
"n	c #0E0E06",
"o	c #120F08",
"p	c #0E0B06",
"q	c #050601",
"r	c #040301",
"s	c #080703",
" .+@#@@@$$$$$$$$$.+%",
".&*=*-**********;->,",
"+')-'!)***********)~",
"@=--*{'-********-]>#",
"#**=**=*))))))))***$",
"@-!^*>*-!!!!!!!!**-$",
"/*(=*=***********-!$",
"@*={*-'---------***.",
"$**=)!*-********-**$",
"$**=)!*-********-**$",
"$**=)!*-********-**$",
"$**=)!*-********-**$",
"$**=)!*-********-**$",
"$**=)!*-********-**$",
"$**=)!*-********-**$",
"$**=)!*-********-**$",
"@;*_>*)*!)*-***-)-*$",
"@*:=_*<-**---**):-*$",
"[}$|1234565789:=@0ab",
"cdefgghijkkklmnopqrs"};
