/* XPM */
static char * BottomRight_xpm[] = {
"20 20 71 1",
" 	c #605B31",
".	c #625C2C",
"+	c #625A2B",
"@	c #635B2D",
"#	c #615A2C",
"$	c #625B2D",
"%	c #534B26",
"&	c #080703",
"*	c #726932",
"=	c #726833",
"-	c #716732",
";	c #726835",
">	c #736733",
",	c #423D1F",
"'	c #030301",
")	c #736934",
"!	c #736735",
"~	c #474320",
"{	c #050503",
"]	c #716734",
"^	c #6A6231",
"/	c #0C0B06",
"(	c #716A36",
"_	c #726634",
":	c #120F08",
"<	c #706633",
"[	c #736936",
"}	c #6B6430",
"|	c #100D06",
"1	c #645C2E",
"2	c #746834",
"3	c #5C582B",
"4	c #0B0A05",
"5	c #4C4624",
"6	c #050400",
"7	c #413C1E",
"8	c #000000",
"9	c #403B1E",
"0	c #413A1E",
"a	c #423B1E",
"b	c #4B4525",
"c	c #040402",
"d	c #524A26",
"e	c #5A512A",
"f	c #090804",
"g	c #5C532A",
"h	c #090803",
"i	c #706935",
"j	c #5C552B",
"k	c #6D6332",
"l	c #706837",
"m	c #6D6330",
"n	c #64592C",
"o	c #443E1E",
"p	c #5B5428",
"q	c #595228",
"r	c #524A25",
"s	c #4B4523",
"t	c #403B1D",
"u	c #423C1C",
"v	c #4E4622",
"w	c #60572C",
"x	c #64582E",
"y	c #423F20",
"z	c #070802",
"A	c #040203",
"B	c #0A0905",
"C	c #000002",
"D	c #0E0E06",
"E	c #040500",
"F	c #050304",
" .+@#@@@$$$$$$$$.$%&",
".*=-=;==========;>,'",
"+)>;)!>==========>~{",
"@-;;=]);========)^@/",
"#==-==-=>>>>>>>>-(_:",
"@;!<=[=;!!!!!!!!>=}|",
"1=2-=-==========;!34",
"@=-]=;);;;;;;;;;=>56",
"$==->!=;=========>78",
"$==->!=;=========>98",
"$==->!=;==========08",
"$==->!=;==========a8",
"$==->!=;=========-bc",
"$==->!=;==========d{",
"$==->!=;========>;ef",
"$==->!=;========>;gh",
"@i=_[=>=!>=;===;=<jf",
"@=k-_=l;==;;;==>mkn/",
"%o$gpqrst7tuvwk-x=y'",
"zA/Bff{'C888c4D:/EF&"};
