/* XPM */
static char * BottomLeft_xpm[] = {
"20 20 86 1",
" 	c #060702",
".	c #514C26",
"+	c #635B2C",
"@	c #62592E",
"#	c #635D2D",
"$	c #635B2D",
"%	c #625B2D",
"&	c #625C2C",
"*	c #625A2B",
"=	c #605C2F",
"-	c #030301",
";	c #433C20",
">	c #706933",
",	c #726932",
"'	c #726835",
")	c #706932",
"!	c #726833",
"~	c #706935",
"{	c #736936",
"]	c #615B2B",
"^	c #060503",
"/	c #4A4122",
"(	c #716734",
"_	c #736934",
":	c #736733",
"<	c #0D0D05",
"[	c #736735",
"}	c #726731",
"|	c #736938",
"1	c #716732",
"2	c #6D6330",
"3	c #615A2C",
"4	c #120F08",
"5	c #6F6736",
"6	c #736832",
"7	c #726632",
"8	c #110E09",
"9	c #6C652F",
"0	c #0B0A05",
"a	c #6B6531",
"b	c #706633",
"c	c #736A33",
"d	c #4D4423",
"e	c #010000",
"f	c #403D1E",
"g	c #010101",
"h	c #403B1E",
"i	c #000000",
"j	c #403A20",
"k	c #4B4525",
"l	c #070604",
"m	c #514922",
"n	c #706631",
"o	c #746834",
"p	c #080703",
"q	c #6E6637",
"r	c #0A0904",
"s	c #6F6532",
"t	c #040402",
"u	c #6E6232",
"v	c #6D6332",
"w	c #040500",
"x	c #605C2D",
"y	c #64592C",
"z	c #5D542B",
"A	c #5B542A",
"B	c #585127",
"C	c #524928",
"D	c #4A4620",
"E	c #403B1D",
"F	c #413C1E",
"G	c #423C1C",
"H	c #4E4622",
"I	c #60572C",
"J	c #474222",
"K	c #433C1F",
"L	c #0B0706",
"M	c #040301",
"N	c #0C0B06",
"O	c #090803",
"P	c #090804",
"Q	c #050503",
"R	c #000002",
"S	c #0E0E06",
"T	c #0E0B06",
"U	c #050601",
" .++@#$%%%%%%%%%%&*=",
"-;>,')!>!!!!!!!!~'{]",
"^/'(_':,!!!!!!!!!!:+",
"<%{[}|[1!!!!!!!!'2{3",
"4567:1:{::::::::!!!%",
"89[[(_!'[[[[[[[[!!'%",
"0a!b_1c,!!!!!!!!!'[%",
"^d!((_:'''''''''!!!&",
"ef:(>:_'!!!!!!!!'!!%",
"gh:'>:1'!!!!!!!!'!!%",
"ij:1':_!!!!!!!!!'!!%",
"ih!1{!{!!!!!!!!!'!!%",
"-k'11_'!!!!!!!!!'!!%",
"lm{no!'!!!!!!!!!'!!%",
"pq1(:'!'!!!!!!!!'!!%",
"pn:'6'1'!!!!!!!!'!!%",
"rs'1:!:'[:!'!!!':'!%",
"t'un'!:!!!'''!!:v'!%",
"wxyzABCDEFEGHIv1$JK.",
"LMNrOPQMRiiit0S4TUMp"};
