/* XPM */
static char * buttonleftpressed_xpm[] = {
"20 20 133 2",
"  	c #123123",
". 	c #10151A",
"+ 	c #061015",
"@ 	c #140A0B",
"# 	c #4A0B10",
"$ 	c #720D0C",
"% 	c #880B08",
"& 	c #9E0908",
"* 	c #AF0706",
"= 	c #B90604",
"- 	c #C30505",
"; 	c #CD0404",
"> 	c #D10504",
", 	c #D40606",
"' 	c #D60506",
") 	c #DA0405",
"! 	c #4B0306",
"~ 	c #5B0403",
"{ 	c #550406",
"] 	c #5C0306",
"^ 	c #710406",
"/ 	c #7B0303",
"( 	c #870202",
"_ 	c #950002",
": 	c #A20003",
"< 	c #A50001",
"[ 	c #A50000",
"} 	c #A70000",
"| 	c #A90000",
"1 	c #AB0000",
"2 	c #25191C",
"3 	c #250F12",
"4 	c #0B1416",
"5 	c #C6E6EE",
"6 	c #9BAAB1",
"7 	c #ADBCC2",
"8 	c #B6C5CB",
"9 	c #BFD8DD",
"0 	c #C9E1E8",
"a 	c #CAE0E7",
"b 	c #C8DCE3",
"c 	c #C5D4DC",
"d 	c #BDCFD5",
"e 	c #BBCFD4",
"f 	c #BBCCD3",
"g 	c #BACAD2",
"h 	c #B4C9CF",
"i 	c #202E33",
"j 	c #BAE7F4",
"k 	c #B8E8F5",
"l 	c #BBE9F5",
"m 	c #C0EAF6",
"n 	c #C4EBF7",
"o 	c #C3EEF8",
"p 	c #C5F0FA",
"q 	c #C7EFFA",
"r 	c #C9EFFA",
"s 	c #CBEFFB",
"t 	c #CCF1FB",
"u 	c #CCF1FC",
"v 	c #CDF1FC",
"w 	c #CCF2FC",
"x 	c #5E7175",
"y 	c #C0ECF5",
"z 	c #9DD9EA",
"A 	c #9BDAEA",
"B 	c #9CDAE8",
"C 	c #99DBE9",
"D 	c #99DBEA",
"E 	c #9ADCEA",
"F 	c #9BDBE9",
"G 	c #9CDAE9",
"H 	c #9CDBE9",
"I 	c #9DDBEA",
"J 	c #9DDBE9",
"K 	c #9CDBE8",
"L 	c #1D1E1E",
"M 	c #849CA1",
"N 	c #B1E5F0",
"O 	c #9BDAEC",
"P 	c #9BDAEB",
"Q 	c #9CD9EB",
"R 	c #9DD9EB",
"S 	c #111619",
"T 	c #9ABBC4",
"U 	c #A4DDEB",
"V 	c #9CDAEA",
"W 	c #9ADBEA",
"X 	c #9ADBE9",
"Y 	c #76B9CB",
"Z 	c #85D1E3",
"` 	c #8ED8EA",
" .	c #96D9EA",
"..	c #99D9E9",
"+.	c #9ADAEB",
"@.	c #9CD9EC",
"#.	c #9BD9EC",
"$.	c #030C11",
"%.	c #68BED1",
"&.	c #63C7E1",
"*.	c #65C6E0",
"=.	c #6BC8E0",
"-.	c #70C9E1",
";.	c #74CCDF",
">.	c #77CDE1",
",.	c #7BCFE3",
"'.	c #7ED1E5",
").	c #83D1E5",
"!.	c #85D1E5",
"~.	c #86D2E6",
"{.	c #87D3E7",
"].	c #88D3E6",
"^.	c #88D2E5",
"/.	c #000F12",
"(.	c #64BCD1",
"_.	c #65C7DF",
":.	c #64C7DE",
"<.	c #63C8DF",
"[.	c #62C8DF",
"}.	c #63C7DF",
"|.	c #64C7E0",
"1.	c #65C7E0",
"2.	c #64C7DF",
"3.	c #CDCDCC",
"4.	c #211E1D",
"5.	c #0C0F10",
"6.	c #528290",
"7.	c #518B9A",
"8.	c #4F8B9A",
"9.	c #4E8B9B",
"0.	c #4D8C9C",
"a.	c #4F8B9C",
"b.	c #4F8B9B",
"                                        ",
"                                        ",
"                                        ",
"                                        ",
"                                        ",
"                                        ",
"                                        ",
"            . + + + + + + + + + + + + + ",
"          + @ # $ % & * = - ; > > , ' ) ",
"          + ! ~ { ] ^ / ( _ : < [ } | 1 ",
"      + + + + + + + 2 3 + + + + + + + + ",
"      4 5 5 5 6 7 8 9 0 a b c d e f g h ",
"      i 5 j k l m n o p q r s t u v v w ",
"    + x y z A B C C D E F G H I J J J K ",
"    L M N O P P Q R R R R Q Q Q R R Q Q ",
"    S T U O z V W X X X C C C C D D D D ",
"    + Y Z `  ...+.P Q R @.O O #.O P P P ",
"    $.%.&.*.=.-.;.>.,.'.).!.~.{.].].].^.",
"    /.(._.:.<.[.}.|.1.1.}.[.[.[.}.2.2.2.",
"3.4.5.6.7.8.9.0.9.8.8.8.9.a.a.a.b.b.b.b."};
