/* XPM */
static char * buttonrightpressed_xpm[] = {
"20 20 150 2",
"  	c #123123",
". 	c #061015",
"+ 	c #D90507",
"@ 	c #D60507",
"# 	c #D30406",
"$ 	c #D10505",
"% 	c #D00404",
"& 	c #CB0504",
"* 	c #C40604",
"= 	c #B80604",
"- 	c #A10805",
"; 	c #900908",
"> 	c #740B0B",
", 	c #510C0B",
"' 	c #200505",
") 	c #1F171D",
"! 	c #AD0000",
"~ 	c #AE0000",
"{ 	c #B20001",
"] 	c #B60001",
"^ 	c #B90002",
"/ 	c #BA0002",
"( 	c #BA0103",
"_ 	c #B50204",
": 	c #A30204",
"< 	c #980203",
"[ 	c #8F0405",
"} 	c #820605",
"| 	c #73060B",
"1 	c #211618",
"2 	c #B2CCD1",
"3 	c #BAD3D9",
"4 	c #C0D8DE",
"5 	c #C4DCE2",
"6 	c #C8E0E6",
"7 	c #CDE2E9",
"8 	c #D1E6ED",
"9 	c #D6EDF3",
"0 	c #DAF3F9",
"a 	c #D4F3F9",
"b 	c #CEEDF3",
"c 	c #C6E1E9",
"d 	c #C0D8E1",
"e 	c #BBD6DE",
"f 	c #B0CBD3",
"g 	c #717373",
"h 	c #CBF2FC",
"i 	c #CCF1FC",
"j 	c #CBF0FB",
"k 	c #CBEFFA",
"l 	c #CAF0FB",
"m 	c #C8F0FB",
"n 	c #C7EFFA",
"o 	c #C6EDF7",
"p 	c #C3ECF7",
"q 	c #BFECF7",
"r 	c #BCEAF6",
"s 	c #BBE9F4",
"t 	c #BAE7F3",
"u 	c #BAE8F5",
"v 	c #BAE8F4",
"w 	c #86A2A6",
"x 	c #12171A",
"y 	c #9DDBE9",
"z 	c #9DDBEA",
"A 	c #9CDBE9",
"B 	c #9CDAE9",
"C 	c #9BDAE9",
"D 	c #9BDBE9",
"E 	c #9ADAE9",
"F 	c #9CDAEA",
"G 	c #9ADAEA",
"H 	c #9EDBE8",
"I 	c #A2C8D0",
"J 	c #051113",
"K 	c #9CD9EB",
"L 	c #9DD9EB",
"M 	c #9ADAEB",
"N 	c #9CD9EA",
"O 	c #A9D5E3",
"P 	c #99DBEA",
"Q 	c #99DBE9",
"R 	c #9ADBEA",
"S 	c #9BDAEA",
"T 	c #9BDAEB",
"U 	c #9DD9EA",
"V 	c #9CD6E8",
"W 	c #395258",
"X 	c #1D2223",
"Y 	c #9BDAEC",
"Z 	c #9CDAEC",
"` 	c #9CD9EC",
" .	c #9BD9EC",
"..	c #9ADAEC",
"+.	c #97D9EC",
"@.	c #94D9EC",
"#.	c #92D8EB",
"$.	c #8ED6E9",
"%.	c #84D4E5",
"&.	c #7EC9E2",
"*.	c #436D76",
"=.	c #101919",
"-.	c #87D3E6",
";.	c #85D2E6",
">.	c #85D2E5",
",.	c #84D1E5",
"'.	c #81D1E4",
").	c #7CD0E4",
"!.	c #7ACFE3",
"~.	c #77CDE0",
"{.	c #75CCE0",
"].	c #71CBE2",
"^.	c #6DC9E1",
"/.	c #6BC8E2",
"(.	c #68C6E0",
"_.	c #65C7DD",
":.	c #61C9DB",
"<.	c #63C7DE",
"[.	c #3E737D",
"}.	c #061012",
"|.	c #63C7DF",
"1.	c #63C8DF",
"2.	c #63C7E0",
"3.	c #65C7E0",
"4.	c #64C7E0",
"5.	c #64C8DF",
"6.	c #63C8DB",
"7.	c #63C8DD",
"8.	c #63C8DE",
"9.	c #64C6E3",
"0.	c #65C6DF",
"a.	c #64C6DF",
"b.	c #447685",
"c.	c #040F11",
"d.	c #508B9C",
"e.	c #508A9C",
"f.	c #508B9B",
"g.	c #4F8B9A",
"h.	c #4F8B9B",
"i.	c #4D8C9D",
"j.	c #4E8B9D",
"k.	c #4F8B9D",
"l.	c #4E8B9B",
"m.	c #4F8B99",
"n.	c #4F8C97",
"o.	c #518C97",
"p.	c #32565C",
"q.	c #0F0D0F",
"r.	c #272322",
"s.	c #B8B8B7",
"                                        ",
"                                        ",
"                                        ",
"                                        ",
"                                        ",
"                                        ",
"                                        ",
". . . . . . . . . . . . .               ",
"+ @ # $ $ % & * = - ; > , ' )           ",
"! ~ { ] ^ / ^ ( _ : < [ } | 1           ",
". . . . . . . . . . . . . . . .         ",
"2 3 4 5 6 7 8 9 0 a b c d e f g .       ",
"h i j k l m n o p q r s t u v w x       ",
"y z A B C D D E C F F F F G H I J       ",
"K K K K L L L L L M M M M M N O .       ",
"P Q Q Q P R R R G S S S T U T V W X     ",
"T Y Y Y Z `  .Y ....+.@.#.$.%.&.*.=.    ",
"-.;.>.,.'.).!.~.{.].^./.(._.:.<.[.}.    ",
"|.1.1.1.2.3.4.4.5.6.7.7.8.9.0.a.b.c.    ",
"d.e.e.e.f.g.g.g.h.i.j.k.l.m.n.o.p.q.r.s."};
