/* XPM */
static char * buttonright_xpm[] = {
"20 20 200 2",
"  	c #061015",
". 	c #CDCDCC",
"+ 	c #123123",
"@ 	c #D90507",
"# 	c #D60507",
"$ 	c #D30406",
"% 	c #D10505",
"& 	c #D00404",
"* 	c #CB0504",
"= 	c #C40604",
"- 	c #B80604",
"; 	c #A10805",
"> 	c #900908",
", 	c #740B0B",
"' 	c #510C0B",
") 	c #200505",
"! 	c #1F171D",
"~ 	c #AD0000",
"{ 	c #AE0000",
"] 	c #B20001",
"^ 	c #B60001",
"/ 	c #B90002",
"( 	c #BA0002",
"_ 	c #BA0103",
": 	c #B50204",
"< 	c #A30204",
"[ 	c #980203",
"} 	c #8F0405",
"| 	c #820605",
"1 	c #73060B",
"2 	c #211618",
"3 	c #9B0001",
"4 	c #9C0002",
"5 	c #9D0002",
"6 	c #9E0002",
"7 	c #9D0001",
"8 	c #9C0000",
"9 	c #9D0000",
"0 	c #9C0001",
"a 	c #9A0100",
"b 	c #9F0000",
"c 	c #A00000",
"d 	c #960205",
"e 	c #251517",
"f 	c #9B0000",
"g 	c #900403",
"h 	c #241516",
"i 	c #910403",
"j 	c #251516",
"k 	c #8D0303",
"l 	c #251719",
"m 	c #9A0000",
"n 	c #850101",
"o 	c #261C1E",
"p 	c #9A0001",
"q 	c #9A0002",
"r 	c #9A0102",
"s 	c #990102",
"t 	c #980101",
"u 	c #970100",
"v 	c #970000",
"w 	c #950101",
"x 	c #920102",
"y 	c #710204",
"z 	c #271F1F",
"A 	c #800101",
"B 	c #7F0100",
"C 	c #7D0100",
"D 	c #7C0001",
"E 	c #7B0101",
"F 	c #7A0000",
"G 	c #780101",
"H 	c #760102",
"I 	c #730002",
"J 	c #710103",
"K 	c #6D0204",
"L 	c #670304",
"M 	c #5F0305",
"N 	c #410807",
"O 	c #0F0E10",
"P 	c #B2CCD1",
"Q 	c #BAD3D9",
"R 	c #C0D8DE",
"S 	c #C4DCE2",
"T 	c #C8E0E6",
"U 	c #CDE2E9",
"V 	c #D1E6ED",
"W 	c #D6EDF3",
"X 	c #DAF3F9",
"Y 	c #D4F3F9",
"Z 	c #CEEDF3",
"` 	c #C6E1E9",
" .	c #C0D8E1",
"..	c #BBD6DE",
"+.	c #B0CBD3",
"@.	c #7B7C7C",
"#.	c #CBF2FC",
"$.	c #CCF1FC",
"%.	c #CBF0FB",
"&.	c #CBEFFA",
"*.	c #CAF0FB",
"=.	c #C8F0FB",
"-.	c #C7EFFA",
";.	c #C6EDF7",
">.	c #C3ECF7",
",.	c #BFECF7",
"'.	c #BCEAF6",
").	c #BBE9F4",
"!.	c #BAE7F3",
"~.	c #BAE8F5",
"{.	c #BAE8F4",
"].	c #86A2A6",
"^.	c #12171A",
"/.	c #9DDBE9",
"(.	c #9DDBEA",
"_.	c #9CDBE9",
":.	c #9CDAE9",
"<.	c #9BDAE9",
"[.	c #9BDBE9",
"}.	c #9ADAE9",
"|.	c #9CDAEA",
"1.	c #9ADAEA",
"2.	c #9EDBE8",
"3.	c #A2C8D0",
"4.	c #051113",
"5.	c #9CD9EB",
"6.	c #9DD9EB",
"7.	c #9ADAEB",
"8.	c #9CD9EA",
"9.	c #A9D5E3",
"0.	c #99DBEA",
"a.	c #99DBE9",
"b.	c #9ADBEA",
"c.	c #9BDAEA",
"d.	c #9BDAEB",
"e.	c #9DD9EA",
"f.	c #9CD6E8",
"g.	c #395258",
"h.	c #1D2223",
"i.	c #9BDAEC",
"j.	c #9CDAEC",
"k.	c #9CD9EC",
"l.	c #9BD9EC",
"m.	c #9ADAEC",
"n.	c #97D9EC",
"o.	c #94D9EC",
"p.	c #92D8EB",
"q.	c #8ED6E9",
"r.	c #84D4E5",
"s.	c #7EC9E2",
"t.	c #436D76",
"u.	c #101919",
"v.	c #87D3E6",
"w.	c #85D2E6",
"x.	c #85D2E5",
"y.	c #84D1E5",
"z.	c #81D1E4",
"A.	c #7CD0E4",
"B.	c #7ACFE3",
"C.	c #77CDE0",
"D.	c #75CCE0",
"E.	c #71CBE2",
"F.	c #6DC9E1",
"G.	c #6BC8E2",
"H.	c #68C6E0",
"I.	c #65C7DD",
"J.	c #61C9DB",
"K.	c #63C7DE",
"L.	c #3E737D",
"M.	c #061012",
"N.	c #63C7DF",
"O.	c #63C8DF",
"P.	c #63C7E0",
"Q.	c #65C7E0",
"R.	c #64C7E0",
"S.	c #64C8DF",
"T.	c #63C8DB",
"U.	c #63C8DD",
"V.	c #63C8DE",
"W.	c #64C6E3",
"X.	c #65C6DF",
"Y.	c #64C6DF",
"Z.	c #447685",
"`.	c #040F11",
" +	c #508B9C",
".+	c #508A9C",
"++	c #508B9B",
"@+	c #4F8B9A",
"#+	c #4F8B9B",
"$+	c #4D8C9D",
"%+	c #4E8B9D",
"&+	c #4F8B9D",
"*+	c #4E8B9B",
"=+	c #4F8B99",
"-+	c #4F8C97",
";+	c #518C97",
">+	c #32565C",
",+	c #0F0D0F",
"'+	c #272322",
")+	c #B8B8B7",
"                          . + + + + + + ",
"@ # $ % % & * = - ; > , ' ) ! + + + + + ",
"~ { ] ^ / ( / _ : < [ } | 1 2 + + + + + ",
"3 4 5 6 7 8 9 7 6 0 a b c d e + + + + + ",
"f f 3 f f f f f f f f f 8 g h + + + + + ",
"f f f f f f f f f f f f 8 i j + + + + + ",
"f f f f f f f f f f f f 8 k l + + + + + ",
"f f f f f f f f f f f f m n o + + + + + ",
"m m m f p q r s t u v w x y z + + + + + ",
"A B C D E F G H I J K L M N O . + + + + ",
"                                + + + + ",
"P Q R S T U V W X Y Z `  ...+.  @.+ + + ",
"#.$.%.&.*.=.-.;.>.,.'.).!.~.{.].^.+ + + ",
"/.(._.:.<.[.[.}.<.|.|.|.|.1.2.3.4.+ + + ",
"5.5.5.5.6.6.6.6.6.7.7.7.7.7.8.9.    + + ",
"0.a.a.a.0.b.b.b.1.c.c.c.d.e.d.f.g.h.+ + ",
"d.i.i.i.j.k.l.i.m.m.n.o.p.q.r.s.t.u.+ + ",
"v.w.x.y.z.A.B.C.D.E.F.G.H.I.J.K.L.M.+ + ",
"N.O.O.O.P.Q.R.R.S.T.U.U.V.W.X.Y.Z.`.+ + ",
" +.+.+.+++@+@+@+#+$+%+&+*+=+-+;+>+,+'+)+"};
