/* XPM */
static char * buttonleft_xpm[] = {
"20 20 176 2",
"  	c #123123",
". 	c #10151A",
"+ 	c #061015",
"@ 	c #140A0B",
"# 	c #4A0B10",
"$ 	c #720D0C",
"% 	c #880B08",
"& 	c #9E0908",
"* 	c #AF0706",
"= 	c #B90604",
"- 	c #C30505",
"; 	c #CD0404",
"> 	c #D10504",
", 	c #D40606",
"' 	c #D60506",
") 	c #DA0405",
"! 	c #4B0306",
"~ 	c #5B0403",
"{ 	c #550406",
"] 	c #5C0306",
"^ 	c #710406",
"/ 	c #7B0303",
"( 	c #870202",
"_ 	c #950002",
": 	c #A20003",
"< 	c #A50001",
"[ 	c #A50000",
"} 	c #A70000",
"| 	c #A90000",
"1 	c #AB0000",
"2 	c #5A0303",
"3 	c #790101",
"4 	c #770100",
"5 	c #7B0100",
"6 	c #950102",
"7 	c #9E0001",
"8 	c #9D0001",
"9 	c #9C0001",
"0 	c #9B0000",
"a 	c #9C0000",
"b 	c #9B0001",
"c 	c #9B0002",
"d 	c #5C0102",
"e 	c #780000",
"f 	c #7C0001",
"g 	c #960101",
"h 	c #9A0001",
"i 	c #5D0102",
"j 	c #770000",
"k 	c #770001",
"l 	c #7D0001",
"m 	c #780001",
"n 	c #7D0101",
"o 	c #550303",
"p 	c #760100",
"q 	c #780101",
"r 	c #950103",
"s 	c #9A0000",
"t 	c #171E1F",
"u 	c #470406",
"v 	c #680207",
"w 	c #690305",
"x 	c #6B0303",
"y 	c #780204",
"z 	c #7D0102",
"A 	c #7E0103",
"B 	c #7F0101",
"C 	c #800101",
"D 	c #7F0100",
"E 	c #810100",
"F 	c #190F13",
"G 	c #1B0F13",
"H 	c #2B0D11",
"I 	c #190F14",
"J 	c #0B1416",
"K 	c #7C9397",
"L 	c #8AA2A7",
"M 	c #819497",
"N 	c #9BAAB1",
"O 	c #ADBCC2",
"P 	c #B6C5CB",
"Q 	c #BFD8DD",
"R 	c #C9E1E8",
"S 	c #CAE0E7",
"T 	c #C8DCE3",
"U 	c #C5D4DC",
"V 	c #BDCFD5",
"W 	c #BBCFD4",
"X 	c #BBCCD3",
"Y 	c #BACAD2",
"Z 	c #B4C9CF",
"` 	c #C6E6EE",
" .	c #BAE7F4",
"..	c #B8E8F5",
"+.	c #BBE9F5",
"@.	c #C0EAF6",
"#.	c #C4EBF7",
"$.	c #C3EEF8",
"%.	c #C5F0FA",
"&.	c #C7EFFA",
"*.	c #C9EFFA",
"=.	c #CBEFFB",
"-.	c #CCF1FB",
";.	c #CCF1FC",
">.	c #CDF1FC",
",.	c #CCF2FC",
"'.	c #C0ECF5",
").	c #9DD9EA",
"!.	c #9BDAEA",
"~.	c #9CDAE8",
"{.	c #99DBE9",
"].	c #99DBEA",
"^.	c #9ADCEA",
"/.	c #9BDBE9",
"(.	c #9CDAE9",
"_.	c #9CDBE9",
":.	c #9DDBEA",
"<.	c #9DDBE9",
"[.	c #9CDBE8",
"}.	c #1D1E1E",
"|.	c #849CA1",
"1.	c #B1E5F0",
"2.	c #9BDAEC",
"3.	c #9BDAEB",
"4.	c #9CD9EB",
"5.	c #9DD9EB",
"6.	c #111619",
"7.	c #9ABBC4",
"8.	c #A4DDEB",
"9.	c #9CDAEA",
"0.	c #9ADBEA",
"a.	c #9ADBE9",
"b.	c #76B9CB",
"c.	c #85D1E3",
"d.	c #8ED8EA",
"e.	c #96D9EA",
"f.	c #99D9E9",
"g.	c #9ADAEB",
"h.	c #9CD9EC",
"i.	c #9BD9EC",
"j.	c #030C11",
"k.	c #68BED1",
"l.	c #63C7E1",
"m.	c #65C6E0",
"n.	c #6BC8E0",
"o.	c #70C9E1",
"p.	c #74CCDF",
"q.	c #77CDE1",
"r.	c #7BCFE3",
"s.	c #7ED1E5",
"t.	c #83D1E5",
"u.	c #85D1E5",
"v.	c #86D2E6",
"w.	c #87D3E7",
"x.	c #88D3E6",
"y.	c #88D2E5",
"z.	c #000F12",
"A.	c #64BCD1",
"B.	c #65C7DF",
"C.	c #64C7DE",
"D.	c #63C8DF",
"E.	c #62C8DF",
"F.	c #63C7DF",
"G.	c #64C7E0",
"H.	c #65C7E0",
"I.	c #64C7DF",
"J.	c #CDCDCC",
"K.	c #211E1D",
"L.	c #0C0F10",
"M.	c #528290",
"N.	c #518B9A",
"O.	c #4F8B9A",
"P.	c #4E8B9B",
"Q.	c #4D8C9C",
"R.	c #4F8B9C",
"S.	c #4F8B9B",
"            . + + + + + + + + + + + + + ",
"          + @ # $ % & * = - ; > > , ' ) ",
"          + ! ~ { ] ^ / ( _ : < [ } | 1 ",
"          + 2 3 4 5 6 7 8 9 0 a b c b 0 ",
"          + d 3 e f g 9 h 0 0 0 a a a 0 ",
"          + i 3 j f g a b 0 0 0 0 0 0 0 ",
"          + i 3 k l g a b 0 0 0 0 0 0 0 ",
"          + i 3 m n g a b 0 0 0 0 0 0 0 ",
"          + o p q l r 9 b b h s s b h h ",
"        t + u v w x y z z A B C B D E E ",
"      + + + + + + + + + F G H I + + + + ",
"      J K L M N O P Q R S T U V W X Y Z ",
"      + `  ...+.@.#.$.%.&.*.=.-.;.>.>.,.",
"    + + '.).!.~.{.{.].^./.(._.:.<.<.<.[.",
"    }.|.1.2.3.3.4.5.5.5.5.4.4.4.5.5.4.4.",
"    6.7.8.2.).9.0.a.a.a.{.{.{.{.].].].].",
"    + b.c.d.e.f.g.3.4.5.h.2.2.i.2.3.3.3.",
"    j.k.l.m.n.o.p.q.r.s.t.u.v.w.x.x.x.y.",
"    z.A.B.C.D.E.F.G.H.H.F.E.E.E.F.I.I.I.",
"J.K.L.M.N.O.P.Q.P.O.O.O.P.R.R.R.S.S.S.S."};
