/* XPM */
static char * centerblockwater_xpm[] = {
"20 20 37 1",
" 	c #123123",
".	c #3B9AC3",
"+	c #3A96BD",
"@	c #3892B8",
"#	c #3A95BD",
"$	c #3A95BC",
"%	c #3994BB",
"&	c #3B99C1",
"*	c #3B99C2",
"=	c #3995BC",
"-	c #3A96BE",
";	c #3995BD",
">	c #3891B8",
",	c #3A97BE",
"'	c #3891B7",
")	c #3B9AC2",
"!	c #3B98C0",
"~	c #3994BC",
"{	c #3B98C1",
"]	c #625B2D",
"^	c #726833",
"/	c #726835",
"(	c #706633",
"_	c #716734",
":	c #726632",
"<	c #716732",
"[	c #625C2C",
"}	c #736733",
"|	c #6B6332",
"1	c #736735",
"2	c #746834",
"3	c #736934",
"4	c #736936",
"5	c #635B2D",
"6	c #706837",
"7	c #635B2C",
"8	c #615A2C",
"                    ",
"                    ",
".                  +",
"..                @#",
"...              @@$",
"....            @@%&",
"....*          @@=..",
"....*-@      @@@;..*",
".....-@>>>@@@@@,....",
".....*%'>>@@@%&.....",
"......)!+%~-{.......",
"....................",
"....................",
"....................",
"....................",
"]^^/^^^/^^^^^^^^/^^]",
"]^(_/__:^<<<<__/_(^]",
"[}|^^^/1^^^^^/^^^|}[",
"][1^2}3^/4///3}2^1[]",
"5]]]67[5]8]]][76]]]5"};
