/* XPM */
static char * centerblocktoxic_xpm[] = {
"20 20 20 1",
" 	c #123123",
".	c #0EB351",
"+	c #625B2D",
"@	c #726833",
"#	c #726835",
"$	c #706633",
"%	c #716734",
"&	c #726632",
"*	c #716732",
"=	c #625C2C",
"-	c #736733",
";	c #6B6332",
">	c #736735",
",	c #746834",
"'	c #736934",
")	c #736936",
"!	c #635B2D",
"~	c #706837",
"{	c #635B2C",
"]	c #615A2C",
"                    ",
"                    ",
".                  .",
"..                ..",
"...              ...",
"....            ....",
".....          .....",
".......      .......",
"....................",
"....................",
"....................",
"....................",
"....................",
"....................",
"....................",
"+@@#@@@#@@@@@@@@#@@+",
"+@$%#%%&@****%%#%$@+",
"=-;@@@#>@@@@@#@@@;-=",
"+=>@,-'@#)###'-,@>=+",
"!+++~{=!+]+++={~+++!"};
