/* XPM */
static char * FireboyLeft2_xpm[] = {
"40 60 306 2",
"  	c #123123",
". 	c #000000",
"+ 	c #010101",
"@ 	c #000002",
"# 	c #441003",
"$ 	c #922103",
"% 	c #BA2D02",
"& 	c #CE3106",
"* 	c #CD2F00",
"= 	c #CD3003",
"- 	c #CE3001",
"; 	c #CE3003",
"> 	c #C32E03",
", 	c #BB2C04",
"' 	c #601802",
") 	c #000100",
"! 	c #010000",
"~ 	c #DB3306",
"{ 	c #F53A03",
"] 	c #F93002",
"^ 	c #FB2203",
"/ 	c #FE2202",
"( 	c #F92300",
"_ 	c #FB2201",
": 	c #F92205",
"< 	c #FB2701",
"[ 	c #F83807",
"} 	c #FB3904",
"| 	c #F73905",
"1 	c #F73A03",
"2 	c #E53504",
"3 	c #8E1F01",
"4 	c #000200",
"5 	c #521302",
"6 	c #C62D04",
"7 	c #F62B00",
"8 	c #FD1900",
"9 	c #FE0C00",
"0 	c #FD0900",
"a 	c #FF0800",
"b 	c #FE0A00",
"c 	c #FF0900",
"d 	c #FF0801",
"e 	c #FF0A00",
"f 	c #FD0B00",
"g 	c #FD1403",
"h 	c #FC2302",
"i 	c #F83505",
"j 	c #F53B02",
"k 	c #F73A02",
"l 	c #C62D01",
"m 	c #731D04",
"n 	c #350D01",
"o 	c #010002",
"p 	c #010103",
"q 	c #000104",
"r 	c #9B2402",
"s 	c #F13603",
"t 	c #FB1E01",
"u 	c #FF0B01",
"v 	c #FC0901",
"w 	c #FD0901",
"x 	c #FF0902",
"y 	c #FF0A01",
"z 	c #FA1200",
"A 	c #FA3107",
"B 	c #F53A05",
"C 	c #EA3605",
"D 	c #AA2901",
"E 	c #2D0B02",
"F 	c #180300",
"G 	c #AC1D00",
"H 	c #FE1A01",
"I 	c #FE0A02",
"J 	c #F93A03",
"K 	c #F83A06",
"L 	c #EB3704",
"M 	c #892002",
"N 	c #3C0E00",
"O 	c #000105",
"P 	c #AB0602",
"Q 	c #FF0B00",
"R 	c #FC0800",
"S 	c #FA1D02",
"T 	c #F63804",
"U 	c #F83903",
"V 	c #8F2203",
"W 	c #2A0902",
"X 	c #5C0300",
"Y 	c #FD0A02",
"Z 	c #FF0804",
"` 	c #FF0904",
" .	c #FD0A00",
"..	c #FF0701",
"+.	c #FF1400",
"@.	c #451000",
"#.	c #020100",
"$.	c #040001",
"%.	c #C60700",
"&.	c #FC0A00",
"*.	c #FE0B00",
"=.	c #E73602",
"-.	c #220904",
";.	c #FB0900",
">.	c #ED0900",
",.	c #F83B04",
"'.	c #DF3504",
").	c #010004",
"!.	c #330104",
"~.	c #B90703",
"{.	c #FF0A03",
"].	c #FF0803",
"^.	c #FF0802",
"/.	c #F63B06",
"(.	c #F32100",
"_.	c #A21C03",
":.	c #631801",
"<.	c #4A1004",
"[.	c #330D00",
"}.	c #270803",
"|.	c #270900",
"1.	c #660202",
"2.	c #FF0903",
"3.	c #FF0700",
"4.	c #F63B04",
"5.	c #F93A04",
"6.	c #F53A07",
"7.	c #F33A02",
"8.	c #E33503",
"9.	c #DC3405",
"0.	c #D93303",
"a.	c #AD2805",
"b.	c #BB0600",
"c.	c #FC0903",
"d.	c #F92E03",
"e.	c #FA3803",
"f.	c #4F1102",
"g.	c #BE0600",
"h.	c #FC1501",
"i.	c #F73802",
"j.	c #C12C04",
"k.	c #000201",
"l.	c #BD0700",
"m.	c #020003",
"n.	c #F20A00",
"o.	c #F91E00",
"p.	c #F82F05",
"q.	c #942200",
"r.	c #8B0502",
"s.	c #FB1900",
"t.	c #F63703",
"u.	c #F83905",
"v.	c #F73A00",
"w.	c #F33801",
"x.	c #010100",
"y.	c #1F0200",
"z.	c #F00903",
"A.	c #F53703",
"B.	c #F83902",
"C.	c #F83B03",
"D.	c #F33803",
"E.	c #B82A02",
"F.	c #5B1702",
"G.	c #D60700",
"H.	c #FC1C02",
"I.	c #F43904",
"J.	c #7C1D00",
"K.	c #850400",
"L.	c #FF0C00",
"M.	c #FD1500",
"N.	c #FC1A01",
"O.	c #FA2900",
"P.	c #FB3103",
"Q.	c #F33805",
"R.	c #DB3304",
"S.	c #C52E03",
"T.	c #C12E02",
"U.	c #AC2704",
"V.	c #AD2704",
"W.	c #AB2A03",
"X.	c #B12806",
"Y.	c #400302",
"Z.	c #FD0D00",
"`.	c #FF0F00",
" +	c #FE1101",
".+	c #EC0E03",
"++	c #7C0C00",
"@+	c #240703",
"#+	c #030000",
"$+	c #EA0A00",
"%+	c #FA2102",
"&+	c #E93806",
"*+	c #C02801",
"=+	c #A10800",
"-+	c #730300",
";+	c #F70B00",
">+	c #F63902",
",+	c #942305",
"'+	c #FD0A04",
")+	c #F83601",
"!+	c #992403",
"~+	c #310D00",
"{+	c #CE1A01",
"]+	c #FF1003",
"^+	c #FE1302",
"/+	c #FB2E03",
"(+	c #CF3006",
"_+	c #501203",
":+	c #EB3203",
"<+	c #FA2B03",
"[+	c #FF0E03",
"}+	c #FB1903",
"|+	c #F72500",
"1+	c #FB3204",
"2+	c #F93606",
"3+	c #D53003",
"4+	c #C02D01",
"5+	c #C12C02",
"6+	c #C22D05",
"7+	c #C73001",
"8+	c #EC3604",
"9+	c #A92703",
"0+	c #F83A08",
"a+	c #F92A02",
"b+	c #FD1803",
"c+	c #FA1A00",
"d+	c #FD2202",
"e+	c #F92903",
"f+	c #F93503",
"g+	c #F93A06",
"h+	c #D53304",
"i+	c #B82A04",
"j+	c #9E2603",
"k+	c #801E01",
"l+	c #641800",
"m+	c #852004",
"n+	c #992401",
"o+	c #B22A04",
"p+	c #A52700",
"q+	c #9A2301",
"r+	c #7D1D04",
"s+	c #6E1904",
"t+	c #320C00",
"u+	c #0E0701",
"v+	c #4F0100",
"w+	c #B20000",
"x+	c #800300",
"y+	c #850100",
"z+	c #0D0600",
"A+	c #500000",
"B+	c #FB0800",
"C+	c #D10005",
"D+	c #710100",
"E+	c #0F0600",
"F+	c #110602",
"G+	c #4F0101",
"H+	c #B00002",
"I+	c #290101",
"J+	c #5F0000",
"K+	c #D20200",
"L+	c #D40000",
"M+	c #0E0402",
"N+	c #0B0700",
"O+	c #220000",
"P+	c #B00000",
"Q+	c #B00100",
"R+	c #270100",
"S+	c #600100",
"T+	c #D30303",
"U+	c #D10101",
"V+	c #510000",
"W+	c #0E0700",
"X+	c #0C0701",
"Y+	c #240002",
"Z+	c #AF0000",
"`+	c #620001",
" @	c #D50002",
".@	c #D10100",
"+@	c #4F0000",
"@@	c #520002",
"#@	c #0F0601",
"$@	c #630001",
"%@	c #600001",
"&@	c #D20104",
"*@	c #500001",
"=@	c #510001",
"-@	c #0F0802",
";@	c #B10001",
">@	c #360B02",
",@	c #0E0500",
"'@	c #310002",
")@	c #B20002",
"!@	c #AF0001",
"~@	c #2E0000",
"{@	c #B10103",
"]@	c #2E0002",
"^@	c #2E0100",
"/@	c #5F0200",
"(@	c #4C0100",
"_@	c #540004",
":@	c #400000",
"<@	c #410101",
"[@	c #420001",
"}@	c #410000",
"|@	c #400001",
"1@	c #020001",
"                                                                                ",
"                                                                                ",
"                                                                                ",
"                                                                                ",
"                                                                                ",
"                                                                                ",
"                                                                                ",
"                                                                                ",
"                                                                                ",
"                                                                                ",
"                                                                                ",
"                                                                                ",
"                                                                                ",
"                                                                                ",
"                                                                                ",
"                  . + . . . . + . . . .                                         ",
"              . @ . # $ % & * = - ; > , ' ) ) )                                 ",
"          @ ! . ~ { ] ^ / ( ^ _ : < [ } | 1 2 3 . . . 4                         ",
"        ! . 5 6 7 8 9 0 a b a c d e f g h i j k l m n o ! @                     ",
"    p . q r s t u v c a w x 0 a c v b b y z A B 1 | C D E . ) o .               ",
"    . F G H c b a d w b a d I c c c x w e a 9 _ | J { K L M N ! . . .           ",
"  p O P Q c a b b a f 0 c b R c f a w w c 0 x 0 S T 1 U K V W . .               ",
"  ) X Y a Z c 0 c 0 w x a x ` a a c b  .c d 0 c ..+.1 1 @.#.!                   ",
"  $.%.a &.) . ! I ..c f c a b b &.a 0 c ..b *.a b a B =.-.. + )                 ",
") . ;.c >.a x ) + a b c b 0 b a a 0 0 0 0 c a e e 0 ,.U '.. ! ) . . ).) .       ",
". !.a a ~.&.c x 0 {.a  .].a d d 0 c c c 0 w w Y a ^.B /.k (._.:.<.[.}.|.}.. !   ",
". 1.x c ! 0 2.0 0 a 0 c c 3.f c 0 c c a I d c x ^.b { j 4.[ 5.6.7.8.9.0.a.! .   ",
". b.0 b ).! d u c a b c c.9 a I 0 c a x x a c c c x d.e.{ U { J 4.,.f.. ! q     ",
"@ g.c I c ) x a Y c e d f c ^.a 0 0 x x a b b 0 x b h.i.B | e.{ { j.k..         ",
"@ l...b a m.. a c n...d a x b c c w d a b 0 ..x e o.p.U 5.6.1 K U q.4           ",
". r.x 0 c . @ ^.a b 0 b a c 0 c a w c c b ..b s.t.5.u.v.U 4.w.B 1 { x.@ ! @     ",
"! y...0 d 0 @ e c b z.a ^.a b 0 e I x c 0 x 8 A.,.B 1 /./.B.C.U /.,.D.E.F.) !   ",
". . G.0 c x &.e c c c c a a c c I d c b x w H.| U { { | 5.U /.C.,.B.6.{ I.0.J.@ ",
"  @ K.x 0 0 c c a c c c c c c c b a a b b a L.M.N.O.P.Q.j ,.j | R.S.T.U.V.W.X.. ",
"  ) Y.a a e c x a c c a 0 c c a c c a c c c c 0 f c Z.`. +.+++@+. ) ! . m.. #+. ",
"  . @ $+a c.a e c c c 0 0 0 c a d c a c 0 b c c %+i.&+*+=+. . 4 +               ",
"    . -+;+a c ) a c c b 0 a c c  .c a I &.0 a ^.J >+,+. . @ .                   ",
"    @ o + ) ! x 0 0 b c c c c c '+d c 0 e c a 0 )+C.Q.'.!+~+4                   ",
"      ! o {+]+0 u b 0 c c c c c b a y 0 Q ^+^ /+1 { { 1 1 k (+_+.               ",
"        @ ) :+<+[+u 0 a c a a c c f }+|+1+2+B 1 { 3+4+5+6+5+7+8+:.@             ",
"        p ! k.9+I.0+a+t b+c+s.d+e+f+g+j h+i+j+k+. . . . . . . . . . .           ",
"              ) ) l+m+n+o+p+q+!+r+s+t+@ ) . . @                                 ",
"                ).#.+ o . o #.@ . @ + o ! .                                     ",
"                        u+v+d w+b a x+y+u+                                      ",
"                        z+A+w+a B+c v+C+D+E+                                    ",
"                      F+G+w+H+0 d I+J+K+L+M+                                    ",
"                      N+O+P+Q+v R+S+T+U+V+W+                                    ",
"                        X+Y+Z+R+`+ @.@+@@@N+                                    ",
"                        E+#@b $@%@&@V+G+z+!                                     ",
"                          W+I [.S+*@=@d X+                                      ",
"                          -@;@>@,@#@a 4 .                                       ",
"                          @ a P+c '@)@!@! !                                     ",
"                          ! b w+..~@{@Z+. p                                     ",
"                        . =@c c ]@^@a b ..!                                     ",
"                      . /@^.w *@) k.(@I a @                                     ",
"                      @ `+x *.*@. ! _@v c )                                     ",
"                      @ :@c %@!   ) %@0 <@!                                     ",
"                      . [@a `+.   o `+c :@.                                     ",
"                      ) }@:@)     ) :@b |@4                                     ",
"                      1@. o         . ! . .                                     "};
