/* XPM */
static char * fireboy_xpm[] = {
"40 60 429 2",
"  	c #123123",
". 	c #010000",
"+ 	c #010101",
"@ 	c #704300",
"# 	c #000000",
"$ 	c #AC6803",
"% 	c #714401",
"& 	c #000100",
"* 	c #000002",
"= 	c #010002",
"- 	c #C67700",
"; 	c #B57400",
"> 	c #010103",
", 	c #020100",
"' 	c #5F3B00",
") 	c #6D4500",
"! 	c #C96F01",
"~ 	c #F68002",
"{ 	c #7F4E01",
"] 	c #E47E00",
"^ 	c #7E3C00",
"/ 	c #D84802",
"( 	c #FF5402",
"_ 	c #9F2C00",
": 	c #010100",
"< 	c #8B3804",
"[ 	c #FF6004",
"} 	c #E14603",
"| 	c #000102",
"1 	c #F23704",
"2 	c #FF3C06",
"3 	c #CD2F02",
"4 	c #A02503",
"5 	c #FF3D01",
"6 	c #FF3B01",
"7 	c #BC2A01",
"8 	c #010200",
"9 	c #B42902",
"0 	c #FF3A05",
"a 	c #FF3D03",
"b 	c #EB3704",
"c 	c #6A1802",
"d 	c #B62800",
"e 	c #FF3C04",
"f 	c #F23805",
"g 	c #7F1D02",
"h 	c #030000",
"i 	c #000004",
"j 	c #E13503",
"k 	c #FF3E01",
"l 	c #FE3D06",
"m 	c #FA3B04",
"n 	c #8E1F03",
"o 	c #CF3104",
"p 	c #FF3E03",
"q 	c #FB3C05",
"r 	c #C32E04",
"s 	c #B32B03",
"t 	c #FE3D04",
"u 	c #F73D02",
"v 	c #BB2C04",
"w 	c #E83902",
"x 	c #FE3F08",
"y 	c #F73802",
"z 	c #FF3A03",
"A 	c #E63503",
"B 	c #E53704",
"C 	c #F93505",
"D 	c #F93704",
"E 	c #DC3403",
"F 	c #B52A03",
"G 	c #FE3904",
"H 	c #FD2C03",
"I 	c #F91D03",
"J 	c #FE2202",
"K 	c #EA3506",
"L 	c #020003",
"M 	c #942301",
"N 	c #F43B02",
"O 	c #FE2A04",
"P 	c #F91401",
"Q 	c #FA1A01",
"R 	c #FF3707",
"S 	c #EC3B07",
"T 	c #7A1C00",
"U 	c #751F04",
"V 	c #EB3102",
"W 	c #FF1B02",
"X 	c #FF0302",
"Y 	c #FD0100",
"Z 	c #FF0900",
"` 	c #EB2301",
" .	c #030002",
"..	c #CA3402",
"+.	c #FC2D03",
"@.	c #FF0E02",
"#.	c #FF0101",
"$.	c #FD0A02",
"%.	c #FF2904",
"&.	c #F73F03",
"*.	c #972500",
"=.	c #A02303",
"-.	c #FF2004",
";.	c #FE0700",
">.	c #FE0201",
",.	c #FD0000",
"'.	c #FF0500",
").	c #DF1501",
"!.	c #F43906",
"~.	c #FF1801",
"{.	c #FE0002",
"].	c #FE0500",
"^.	c #FF2205",
"/.	c #A02901",
"(.	c #E73705",
"_.	c #7D1B02",
":.	c #4E1504",
"<.	c #FF1504",
"[.	c #FF0100",
"}.	c #FF0300",
"|.	c #E31100",
"1.	c #EB3C03",
"2.	c #FF2A02",
"3.	c #FC0800",
"4.	c #FE0000",
"5.	c #FD1D01",
"6.	c #FC3D06",
"7.	c #A22604",
"8.	c #010005",
"9.	c #8F2402",
"0.	c #FF3D05",
"a.	c #B52B04",
"b.	c #CA2F03",
"c.	c #731F03",
"d.	c #EB2C00",
"e.	c #FF0D00",
"f.	c #FE0003",
"g.	c #F61001",
"h.	c #D73204",
"i.	c #E83D05",
"j.	c #FF3503",
"k.	c #FA1100",
"l.	c #F73C05",
"m.	c #952801",
"n.	c #000200",
"o.	c #641801",
"p.	c #E33802",
"q.	c #FF3E05",
"r.	c #E33503",
"s.	c #E73801",
"t.	c #CF3102",
"u.	c #962503",
"v.	c #F42103",
"w.	c #FF0600",
"x.	c #FE2803",
"y.	c #FE3104",
"z.	c #FC1501",
"A.	c #FD0002",
"B.	c #FF0A00",
"C.	c #F42600",
"D.	c #B42F06",
"E.	c #752200",
"F.	c #E03603",
"G.	c #FF2B03",
"H.	c #FE1E02",
"I.	c #FB3300",
"J.	c #691900",
"K.	c #000201",
"L.	c #F43B05",
"M.	c #7F2004",
"N.	c #BE2503",
"O.	c #FA1102",
"P.	c #FB0200",
"Q.	c #FF0103",
"R.	c #FE0C01",
"S.	c #FA0E00",
"T.	c #FD0001",
"U.	c #FC0B02",
"V.	c #E72003",
"W.	c #F02B00",
"X.	c #FE2504",
"Y.	c #FE0D00",
"Z.	c #FD2904",
"`.	c #932200",
" +	c #F83203",
".+	c #FF3405",
"++	c #DD3703",
"@+	c #892501",
"#+	c #E51F04",
"$+	c #FF0801",
"%+	c #FF1902",
"&+	c #AF2302",
"*+	c #FC1C03",
"=+	c #FF1401",
"-+	c #FD3803",
";+	c #F53E04",
">+	c #FC1F04",
",+	c #FA0300",
"'+	c #ED0101",
")+	c #F00000",
"!+	c #FE0103",
"~+	c #FF0A01",
"{+	c #CE2103",
"]+	c #FC1700",
"^+	c #FF3203",
"/+	c #FE1F00",
"(+	c #C00300",
"_+	c #FA0002",
":+	c #F40000",
"<+	c #FA0001",
"[+	c #E61A01",
"}+	c #F31804",
"|+	c #FE1703",
"1+	c #EA1702",
"2+	c #FE0100",
"3+	c #C30100",
"4+	c #C60001",
"5+	c #FC0000",
"6+	c #EF1F05",
"7+	c #FB0102",
"8+	c #FD1B03",
"9+	c #E62504",
"0+	c #FE0600",
"a+	c #EA0000",
"b+	c #FC0001",
"c+	c #FE1600",
"d+	c #CF2901",
"e+	c #FF0202",
"f+	c #FC0002",
"g+	c #EE0000",
"h+	c #FF2102",
"i+	c #AF2204",
"j+	c #FE1A01",
"k+	c #FC0100",
"l+	c #FB0000",
"m+	c #FF0200",
"n+	c #FF2406",
"o+	c #FF1001",
"p+	c #EB0102",
"q+	c #F60001",
"r+	c #FF1003",
"s+	c #020001",
"t+	c #FF0204",
"u+	c #FE1205",
"v+	c #FE0104",
"w+	c #E70000",
"x+	c #F10100",
"y+	c #BC0000",
"z+	c #F70000",
"A+	c #F80000",
"B+	c #FA0100",
"C+	c #E20001",
"D+	c #BD0100",
"E+	c #850003",
"F+	c #040001",
"G+	c #C30102",
"H+	c #EF0100",
"I+	c #270000",
"J+	c #CE0100",
"K+	c #C70000",
"L+	c #EC0201",
"M+	c #E00000",
"N+	c #220001",
"O+	c #E90000",
"P+	c #EB0000",
"Q+	c #880000",
"R+	c #EC0000",
"S+	c #B30003",
"T+	c #1F0000",
"U+	c #180002",
"V+	c #1D0000",
"W+	c #170201",
"X+	c #230000",
"Y+	c #B00000",
"Z+	c #E10101",
"`+	c #DA0001",
" @	c #A50100",
".@	c #EE0002",
"+@	c #770002",
"@@	c #DC0000",
"#@	c #F60100",
"$@	c #F20000",
"%@	c #D70100",
"&@	c #A90000",
"*@	c #890101",
"=@	c #BC0001",
"-@	c #DB0001",
";@	c #E40000",
">@	c #E30102",
",@	c #E50000",
"'@	c #D90000",
")@	c #D10000",
"!@	c #BE0201",
"~@	c #A60000",
"{@	c #810100",
"]@	c #4E0202",
"^@	c #500000",
"/@	c #650101",
"(@	c #670000",
"_@	c #640200",
":@	c #600001",
"<@	c #440000",
"[@	c #4F0401",
"}@	c #4F0100",
"|@	c #500202",
"1@	c #650100",
"2@	c #810003",
"3@	c #510000",
"4@	c #310101",
"5@	c #340002",
"6@	c #320000",
"7@	c #3B0000",
"8@	c #460000",
"9@	c #470101",
"0@	c #510001",
"a@	c #6E0200",
"b@	c #900103",
"c@	c #780100",
"d@	c #AD0101",
"e@	c #C10001",
"f@	c #B40100",
"g@	c #C50200",
"h@	c #C20000",
"i@	c #C10100",
"j@	c #C20001",
"k@	c #C80200",
"l@	c #CE0201",
"m@	c #B30100",
"n@	c #8D0102",
"o@	c #9C0200",
"p@	c #B80200",
"q@	c #720200",
"r@	c #760000",
"s@	c #9B0101",
"t@	c #020005",
"u@	c #DD0200",
"v@	c #D60000",
"w@	c #D30100",
"x@	c #D30200",
"y@	c #D60201",
"z@	c #DF0001",
"A@	c #A30100",
"B@	c #310100",
"C@	c #240100",
"D@	c #900200",
"E@	c #A90101",
"F@	c #920000",
"G@	c #7B0002",
"H@	c #D20200",
"I@	c #D10101",
"J@	c #D10100",
"K@	c #D20000",
"L@	c #AF0100",
"M@	c #460200",
"N@	c #3D0101",
"O@	c #A40001",
"P@	c #820000",
"Q@	c #A00100",
"R@	c #5C0001",
"S@	c #AD0100",
"T@	c #DA0000",
"U@	c #CE0002",
"V@	c #CF0200",
"W@	c #D10003",
"X@	c #BE0100",
"Y@	c #6A0203",
"Z@	c #620000",
"`@	c #AE0202",
" #	c #770000",
".#	c #980000",
"+#	c #380000",
"@#	c #030200",
"##	c #B50100",
"$#	c #DE0000",
"%#	c #CD0003",
"&#	c #CD0000",
"*#	c #CD0100",
"=#	c #C00000",
"-#	c #700000",
";#	c #000103",
">#	c #610102",
",#	c #5B0000",
"'#	c #B70002",
")#	c #DB0000",
"!#	c #CF0103",
"~#	c #D70000",
"{#	c #D40000",
"]#	c #C20003",
"^#	c #6D0101",
"/#	c #500001",
"(#	c #B40001",
"_#	c #DB0102",
":#	c #D00000",
"<#	c #CA0000",
"[#	c #710100",
"}#	c #B00002",
"|#	c #C50102",
"1#	c #A20000",
"2#	c #870000",
"3#	c #D20001",
"4#	c #CE0000",
"5#	c #720002",
"6#	c #B30000",
"7#	c #DB0100",
"8#	c #CD0001",
"9#	c #D80100",
"0#	c #A00000",
"a#	c #D50004",
"b#	c #6A0100",
"c#	c #040003",
"d#	c #B10101",
"e#	c #930000",
"f#	c #AF0000",
"g#	c #CF0101",
"h#	c #AE0002",
"i#	c #C40100",
"j#	c #8A0000",
"k#	c #A30001",
"l#	c #C60000",
"m#	c #5B0101",
"n#	c #940001",
"o#	c #B90100",
"p#	c #8F0100",
"q#	c #C80002",
"r#	c #640000",
"s#	c #6A0000",
"t#	c #630100",
"u#	c #5E0001",
"v#	c #4E0002",
"                                                                                ",
"                                                                                ",
"                                                                                ",
"                                              .                                 ",
"                                            + @ #                               ",
"                                            # $ % &                             ",
"                        * *                 = - ; >                             ",
"                      , ' ) #               & ! ~ .                             ",
"                      & { ] ^ #             = / ( _ #                           ",
"                      : < [ } |             & 1 2 3 &                           ",
"                      # 4 5 6 7 &         8 9 0 a b c #                         ",
"                      > d e e f g h       i j k l m n &                         ",
"                      # o p q a r #     & s 6 t u a v .                         ",
"                      # w x y z A #   & . B 2 C D 2 E ,                         ",
"                    # F G H I J K >   L M N O P Q R S T +     &                 ",
"                    U V W X Y Z `  .  # ..+.@.#.$.%.&.*.#   * =.#               ",
"                  . # -.;.>.,.'.).*   . !.~.#.{.].^.e /.&   . (._.+             ",
"          *     & :.# <.[.Y {.}.|.# & 1.2.3.Y 4.X 5.6.7.8.. 9.0.a.#             ",
"        # b.*   i c.d.e.f.4.#.Y g.h.i.j.k.4.{.#.4.~.l.m.n.o.p.q.r.&             ",
"        h s.t.# . u.v.w.4.[.{.{.Z x.y.z.Y 4.[.4.A.B.C.D.E.F.G.H.I.J.K.          ",
"        > L.&.M.# N.O.X P.Q.4.[.4.R.S.[.Q.f.T.4.{.Y U.V.W.X.Y.X Z.`.*           ",
"        &  +.+++@+#+$+4.4.{.,.* 8 4.Q.#.4.4.{.4.* L & # Z #.4.4.%+&+i           ",
"        # *+=+-+;+>+,+'+. & . )+4.Q.{.[.#.4.4.. & 4.4.4.Q.Y !+#.~+{+*           ",
"        . ]+4.*+^+/+(+T.+ ,.4.{.4._+4.Y 4.4.4.& :+'+:+<+4.4.#.4.>.[+&           ",
"        . }+4.!+|+1+4.[.P.#.4.{.[.{.2+f.4.4.<+3+,.4.Q.4+5+{.2+4.#.z.#           ",
"        & 6+[.,.w.[.{.{.Q.4.4.{.Y ,.Q.[.2+{.4.#.#.7+4.4.4.4.{.4.4.8+#           ",
"        & 9+0+4.#.,.#.4.Q.,.4.[.= #.,.4.4.Q.4.Y 4.Q.T.[.{.a+b+#.Q.c+>           ",
"        . d+=+T.,.e+4.4.4.Q.4.Y # 4.f+!+Q.4.{.[.4.# #.4.{.g+4.4.4.h+#           ",
"        * i+j+[.Q.,.#.2+4.T.4.# # 4.4.{.,.[.k+#.4.> 4.4.[.l+#.4.m+n+.           ",
"          # o+4.{.p+Q.{.4.[.4.# # 4.{.4.#.,.Q.{.. # #.4.q+4.4.>.m+c+#           ",
"          & r+4.>.a+4.4.4.#.T.# # 4.4.4.4.#.Q.[.* s+4.Q.q+t+{.#.m+u+.           ",
"          # v+4.4.Y )+Q.4.4.#.* #.4.4.{.4.#.4.w+= n.4.#.Q.Y #.4.4.4.+           ",
"          # x+{.4.4.4.4.4.2+4.Q.#.4.[.4.4.4.f.[.* 4.#.#.4.{.#.4.4.Q.&           ",
"          : y+{.,.4.#.4.{.{.[.4.{.4.T.t+{.[.!+4.4.{.Y 4.4.>.,.[.4.z+&           ",
"            : 4.#.4.{.4.4.4.A+B+4.4.{.4.Y 4.4.#.4.#.{.{.{.4.>.{.{.4+.           ",
"            . A+4.4.Y e+4.C+4.D+{.4.4.#.#.T.4.7+Y 4.Y [.4.4.4.{.{.E+F+          ",
"            # G+{.[.#.,.{.H+f.I+4.J+A.{.T.[.4.4.4.Y 4.4.!+4.[.{.K++             ",
"              & L+4.4.#.4.Y M+4.I+N+4.4.4.f.4.4.O+Q.[.4.4.Q.5+P+#               ",
"              # Q+Y Y {.4.4.4.R+S+4.T+U+V+W+X+m+)+4.#.4.#.4.q+&                 ",
"                . Y+{.4.4.4.{.#.4.Z+4.#.{.b+[.`+<+[.4.[.{.q+#                   ",
"                  #  @.@[.#.#.{.,.!+{.[.4.{.4.m+#.4.f.4.M+#                     ",
"                    # +@D+@@#@4.#.4.#.{.4.[.{.f.4.$@%@&@&                       ",
"                      * . : *@=@-@;@>@C+,@'@)@!@~@{@& .                         ",
"                            # ]@^@/@(@_@:@<@[@}@|@*                             ",
"                        & 1@2@3@^@4@5@6@7@8@9@0@a@b@c@#                         ",
"                        # d@e@f@g@h@i@G+j@k@l@m@n@o@p@q@h                       ",
"                      & r@s@: t@D+u@v@w@x@y@z@A@B@C@D@E@*                       ",
"                      # F@G@# & d@u@H@I@J@K@%@L@M@* N@O@P@*                     ",
"                      * Q@R@# # S@T@U@V@)@W@)@X@Y@* . Z@`@0@+                   ",
"                    =  #.#+#@#| ##$#%#&#*#I@K@=#-##   ;#&@F@&                   ",
"                    . >#,#.   # '#)#!#I@~#)@{#]#^#.   # /#/@&                   ",
"                      s+&     # (#_#J+&#:#)@v@<#[#.     . =                     ",
"                              # }#T@|#1#2#d@3#4#5##                             ",
"                              > 6#7#Y+8.. > 8#9#[#&                             ",
"                              # 6#v@0#*   & D+a#b#c#                            ",
"                              # d#&#e##   # f#g#>#&                             ",
"                              # h#i#j##   . k#l#m#*                             ",
"                              # n#o#2#=   # p#q#r##                             ",
"                              # s#e#t##   . u#.#v#n.                            ",
"                                # # *       # # #                               "};
