/* XPM */
static char * FireboyRight1_xpm[] = {
"40 60 355 2",
"  	c #123123",
". 	c #000000",
"+ 	c #010101",
"@ 	c #000100",
"# 	c #601802",
"$ 	c #BB2C04",
"% 	c #C32E03",
"& 	c #CE3003",
"* 	c #CE3001",
"= 	c #CD3003",
"- 	c #CD2F00",
"; 	c #CE3106",
"> 	c #BA2D02",
", 	c #922103",
"' 	c #441003",
") 	c #000002",
"! 	c #000200",
"~ 	c #8E1F01",
"{ 	c #E53504",
"] 	c #F73A03",
"^ 	c #F73905",
"/ 	c #FB3904",
"( 	c #F83807",
"_ 	c #FB2701",
": 	c #F92205",
"< 	c #FB2201",
"[ 	c #FB2203",
"} 	c #F92300",
"| 	c #FE2202",
"1 	c #F93002",
"2 	c #F53A03",
"3 	c #DB3306",
"4 	c #010000",
"5 	c #010002",
"6 	c #350D01",
"7 	c #731D04",
"8 	c #C62D01",
"9 	c #F73A02",
"0 	c #F53B02",
"a 	c #F83505",
"b 	c #FC2302",
"c 	c #FD1403",
"d 	c #FD0B00",
"e 	c #FF0A00",
"f 	c #FF0801",
"g 	c #FF0900",
"h 	c #FF0800",
"i 	c #FE0A00",
"j 	c #FD0900",
"k 	c #FE0C00",
"l 	c #FD1900",
"m 	c #F62B00",
"n 	c #C62D04",
"o 	c #521302",
"p 	c #2D0B02",
"q 	c #AA2901",
"r 	c #EA3605",
"s 	c #F53A05",
"t 	c #FA3107",
"u 	c #FA1200",
"v 	c #FF0A01",
"w 	c #FC0901",
"x 	c #FF0902",
"y 	c #FD0901",
"z 	c #FF0B01",
"A 	c #FB1E01",
"B 	c #F13603",
"C 	c #9B2402",
"D 	c #000104",
"E 	c #010103",
"F 	c #3C0E00",
"G 	c #892002",
"H 	c #EB3704",
"I 	c #F83A06",
"J 	c #F93A03",
"K 	c #FE0A02",
"L 	c #FE1A01",
"M 	c #AC1D00",
"N 	c #180300",
"O 	c #2A0902",
"P 	c #8F2203",
"Q 	c #F83903",
"R 	c #F63804",
"S 	c #FA1D02",
"T 	c #FC0800",
"U 	c #FF0B00",
"V 	c #AB0602",
"W 	c #000105",
"X 	c #020100",
"Y 	c #451000",
"Z 	c #FF1400",
"` 	c #FF0701",
" .	c #FD0A00",
"..	c #FF0904",
"+.	c #FF0804",
"@.	c #FD0A02",
"#.	c #5C0300",
"$.	c #220904",
"%.	c #E73602",
"&.	c #FE0B00",
"*.	c #FC0A00",
"=.	c #C60700",
"-.	c #040001",
";.	c #010004",
">.	c #DF3504",
",.	c #F83B04",
"'.	c #ED0900",
").	c #FB0900",
"!.	c #270803",
"~.	c #270900",
"{.	c #330D00",
"].	c #4A1004",
"^.	c #631801",
"/.	c #A21C03",
"(.	c #F32100",
"_.	c #F63B06",
":.	c #FF0802",
"<.	c #FF0803",
"[.	c #FF0A03",
"}.	c #B90703",
"|.	c #330104",
"1.	c #AD2805",
"2.	c #D93303",
"3.	c #DC3405",
"4.	c #E33503",
"5.	c #F33A02",
"6.	c #F53A07",
"7.	c #F93A04",
"8.	c #F63B04",
"9.	c #FF0700",
"0.	c #FF0903",
"a.	c #660202",
"b.	c #4F1102",
"c.	c #FA3803",
"d.	c #F92E03",
"e.	c #FC0903",
"f.	c #BB0600",
"g.	c #000201",
"h.	c #C12C04",
"i.	c #F73802",
"j.	c #FC1501",
"k.	c #BE0600",
"l.	c #942200",
"m.	c #F82F05",
"n.	c #F91E00",
"o.	c #F20A00",
"p.	c #020003",
"q.	c #BD0700",
"r.	c #010100",
"s.	c #F33801",
"t.	c #F73A00",
"u.	c #F83905",
"v.	c #F63703",
"w.	c #FB1900",
"x.	c #8B0502",
"y.	c #5B1702",
"z.	c #B82A02",
"A.	c #F33803",
"B.	c #F83B03",
"C.	c #F83902",
"D.	c #F53703",
"E.	c #F00903",
"F.	c #1F0200",
"G.	c #7C1D00",
"H.	c #F43904",
"I.	c #FC1C02",
"J.	c #D60700",
"K.	c #B12806",
"L.	c #AB2A03",
"M.	c #AD2704",
"N.	c #AC2704",
"O.	c #C12E02",
"P.	c #C52E03",
"Q.	c #DB3304",
"R.	c #F33805",
"S.	c #FB3103",
"T.	c #FA2900",
"U.	c #FC1A01",
"V.	c #FD1500",
"W.	c #FF0C00",
"X.	c #850400",
"Y.	c #030000",
"Z.	c #240703",
"`.	c #7C0C00",
" +	c #EC0E03",
".+	c #FE1101",
"++	c #FF0F00",
"@+	c #FD0D00",
"#+	c #400302",
"$+	c #A10800",
"%+	c #C02801",
"&+	c #E93806",
"*+	c #FA2102",
"=+	c #EA0A00",
"-+	c #942305",
";+	c #F63902",
">+	c #F70B00",
",+	c #730300",
"'+	c #310D00",
")+	c #992403",
"!+	c #F83601",
"~+	c #FD0A04",
"{+	c #501203",
"]+	c #CF3006",
"^+	c #FB2E03",
"/+	c #FE1302",
"(+	c #FF1003",
"_+	c #CE1A01",
":+	c #EC3604",
"<+	c #C73001",
"[+	c #C12C02",
"}+	c #C22D05",
"|+	c #C02D01",
"1+	c #D53003",
"2+	c #F93606",
"3+	c #FB3204",
"4+	c #F72500",
"5+	c #FB1903",
"6+	c #FF0E03",
"7+	c #FA2B03",
"8+	c #EB3203",
"9+	c #7E1F03",
"0+	c #9F2402",
"a+	c #B82B00",
"b+	c #D43305",
"c+	c #FA3403",
"d+	c #FA2803",
"e+	c #FB1901",
"f+	c #FA1903",
"g+	c #FE1D00",
"h+	c #F82A03",
"i+	c #A92703",
"j+	c #360B02",
"k+	c #6A1A00",
"l+	c #7C1E04",
"m+	c #9B2404",
"n+	c #A62601",
"o+	c #B32905",
"p+	c #9A2301",
"q+	c #841F01",
"r+	c #641600",
"s+	c #020001",
"t+	c #000102",
"u+	c #120300",
"v+	c #800203",
"w+	c #710100",
"x+	c #490102",
"y+	c #090000",
"z+	c #220000",
"A+	c #290001",
"B+	c #0D0200",
"C+	c #3B0100",
"D+	c #E10300",
"E+	c #CF0200",
"F+	c #910100",
"G+	c #0C0100",
"H+	c #870100",
"I+	c #AC0300",
"J+	c #8B0004",
"K+	c #630100",
"L+	c #D70204",
"M+	c #D00300",
"N+	c #550000",
"O+	c #160002",
"P+	c #5A0201",
"Q+	c #A10200",
"R+	c #C20001",
"S+	c #0C0200",
"T+	c #960202",
"U+	c #BB0102",
"V+	c #350201",
"W+	c #C60000",
"X+	c #280201",
"Y+	c #920100",
"Z+	c #BE0000",
"`+	c #440000",
" @	c #A40200",
".@	c #CF0101",
"+@	c #7D0101",
"@@	c #890101",
"#@	c #D00000",
"$@	c #4B0100",
"%@	c #6E0000",
"&@	c #B20002",
"*@	c #3D0101",
"=@	c #B20000",
"-@	c #C90200",
";@	c #3A0000",
">@	c #CD0001",
",@	c #D10003",
"'@	c #720000",
")@	c #330000",
"!@	c #A40001",
"~@	c #210000",
"{@	c #6D0000",
"]@	c #5C0100",
"^@	c #2C0001",
"/@	c #EC0002",
"(@	c #CE0100",
"_@	c #900000",
":@	c #130000",
"<@	c #280000",
"[@	c #FC0300",
"}@	c #D50000",
"|@	c #C30101",
"1@	c #C20002",
"2@	c #950101",
"3@	c #A70101",
"4@	c #BC0000",
"5@	c #140000",
"6@	c #A30003",
"7@	c #E10100",
"8@	c #E00001",
"9@	c #DC0000",
"0@	c #CF0000",
"a@	c #CE0002",
"b@	c #880000",
"c@	c #580000",
"d@	c #D40000",
"e@	c #CC0000",
"f@	c #5F0000",
"g@	c #000103",
"h@	c #CA0002",
"i@	c #D00002",
"j@	c #C50000",
"k@	c #A10000",
"l@	c #9C0100",
"m@	c #CD0102",
"n@	c #A20000",
"o@	c #740000",
"p@	c #8B0100",
"q@	c #7C0103",
"r@	c #180000",
"s@	c #030002",
"t@	c #1D0100",
"u@	c #C80000",
"v@	c #B40001",
"w@	c #0F0000",
"x@	c #0B0000",
"y@	c #0E0000",
"z@	c #A60100",
"A@	c #BB0000",
"B@	c #2E0200",
"C@	c #770101",
"D@	c #510003",
"E@	c #5B0000",
"F@	c #620001",
"G@	c #3E0100",
"H@	c #C70000",
"I@	c #450102",
"J@	c #0E0500",
"K@	c #150000",
"L@	c #500000",
"M@	c #0B0003",
"N@	c #120000",
"                                                                                ",
"                                                                                ",
"                                                                                ",
"                                                                                ",
"                                                                                ",
"                                                                                ",
"                                                                                ",
"                                                                                ",
"                                                                                ",
"                                                                                ",
"                                                                                ",
"                                                                                ",
"                                                                                ",
"                                                                                ",
"                                                                                ",
"                                        . . . . + . . . . + .                   ",
"                                @ @ @ # $ % & * = - ; > , ' . ) .               ",
"                        ! . . . ~ { ] ^ / ( _ : < [ } | [ 1 2 3 . 4 )           ",
"                    ) 4 5 6 7 8 9 0 a b c d e f g h i h j k l m n o . 4         ",
"              . 5 @ . p q r ^ ] s t u v i i w g h j x y h g w z A B C D . E     ",
"          . . . 4 F G H I 2 J ^ < k h e y x g g g K f h i y f h i g L M N .     ",
"              . . O P I Q ] R S j x j g y y h d g T i g j d h i i h g U V W E   ",
"                  4 X Y ] ] Z ` g j f g  .i g h h ..x h x y j g j g +.h @.#.@   ",
"                @ + . $.%.s h i h &.i ` g j h *.i i h g d g ` K 4 . @ *.h =.-.  ",
"      . @ ;.. . @ 4 . >.Q ,.j e e h g j j j j h h i j i g i h + @ x h '.g ).. @ ",
"  4 . !.~.!.{.].^./.(.9 _.s :.h @.y y j g g g j f f h <. .h [.j x g *.}.h h |.. ",
"  . 4 1.2.3.4.5.6.7.( 8.0 2 i :.x g f K h g g j g d 9.g g j h j j 0.j 4 g x a.. ",
"    D 4 . b.,.8.J 2 Q 2 c.d.x g g g h x x h g j K h k e.g i h g z f 4 ;.i j f.. ",
"        . g.h.2 2 c.^ s i.j.i x j i i h x x j j h :.g d f e g @.h x @ g K g k.) ",
"          ! l.Q I ] 6.7.Q m.n.e x ` j i h f y g g i x h f ` o.g h . p.h i ` q.) ",
"    ) 4 ) r.2 ] s s.8.Q t.u.7.v.w.i ` i g g y h g j g h i j i h :.) . g j x x.. ",
"  4 @ y.z.A.,._.Q B.C._._.] s ,.D.l x j g x K e j i h :.h E.i g e ) j f j ` F.4 ",
") G.2.H.2 6.C.,.B._.Q 7.^ 2 2 Q ^ I.y x i g f K g g h h g g g g e *.x g j J.. . ",
". K.L.M.N.O.P.Q.^ 0 ,.0 R.S.T.U.V.W.h i i h h i g g g g g g g h g g j j x X.)   ",
". Y.. p.. 4 @ . Z.`. +.+++@+g d j g g g g h g g h g g j h g g h x g e h h #+@   ",
"              + ! . . $+%+&+i.*+g g i j g h g f h g j j j g g g e h e.h =+) .   ",
"                  . ) . . -+;+J :.h j *.K h g  .g g h j i g g h @ g h >+,+.     ",
"                  ! '+)+>.R.B.!+j h g e j g f ~+g g g g g i j j x 4 @ + 5 )     ",
"              . {+]+9 ] ] 2 2 ] ^+[ /+U j v h i g g g g g j i z j (+_+5 4       ",
"            ) ^.:+<+[+}+[+|+1+2 ] s 2+3+4+5+d g g h h g h j z 6+7+8+@ )         ",
"          . . . . . . . . . . . 9+0+a+b+H.7.c+d+< l e+f+g+h+8.H.i+g.4 E         ",
"                                . @ 4 ) X j+k+l+)+m+n+o+p+q+r+s+@               ",
"                                    ) p.@ s+. ) ) @ . ) t+. + 4                 ",
"                                      u+v+w+x+y+z+A+B+@                         ",
"                                    p.C+D+E+F+G+H+I+J+4                         ",
"                                    g.K+L+M+N+O+P+Q+R+X S+                      ",
"                                    4 T+E+U+V+W+X+Y+Z+`+.                       ",
"                                    @  @.@+@@@#@$@%@&@*@.                       ",
"                                  @ ) =@-@;@>@,@'@)@!@~@.                       ",
"                                  E @ {@]@^@/@(@_@:@<@g.4                       ",
"                            . @ X [@}@|@1@2@3@#@4@5@) @                         ",
"                          . 6@7@8@9@0@>@a@b@c@d@e@f@X                           ",
"                          g@{@h@#@i@#@j@k@G+-.l@m@n@.                           ",
"                          . 4 . N+o@p@q@r@  s@t@u@v@w@.                         ",
"                            g@. @ . x@y@      @ z@A@B@.                         ",
"                                              + C@0@D@)                         ",
"                                              . E@e@F@@                         ",
"                                              . G@H@I@J@                        ",
"                                              . K@L@M@N@                        ",
"                                                ) . g.                          "};
