/* XPM */
static char * greenleverright_xpm[] = {
"20 20 29 1",
" 	c #123123",
".	c #279247",
"+	c #A9FFC3",
"@	c #E57878",
"#	c #000000",
"$	c #796057",
"%	c #785F56",
"&	c #837875",
"*	c #7D6760",
"=	c #7A6A64",
"-	c #7F6A63",
";	c #837571",
">	c #857571",
",	c #526C78",
"'	c #49606B",
")	c #96A6AF",
"!	c #B0BDC5",
"~	c #8C9CA5",
"{	c #57727E",
"]	c #556F7B",
"^	c #5A737F",
"/	c #81939C",
"(	c #597480",
"_	c #4B646E",
":	c #5A7380",
"<	c #526B77",
"[	c #997020",
"}	c #A27E31",
"|	c #9D7829",
"                    ",
"                    ",
"                    ",
"               ..   ",
"              .+..  ",
"              .@..  ",
"              ....  ",
"             #$..   ",
"             %&     ",
"            #*%     ",
"            %=      ",
"           %-%      ",
"           %;#      ",
"          #%%       ",
"          %>#       ",
"     ###########    ",
"    ##,,')!~','#    ",
"   ##{],^'/'^,(##   ",
"  ##'_,:,,,,,^<_##  ",
"  [[}}}}}}}}}}}}|[  "};
