/* XPM */
static char * Left_xpm[] = {
"20 20 64 1",
" 	c #070803",
".	c #514C26",
"+	c #625A2B",
"@	c #635B2C",
"#	c #62592E",
"$	c #625C2C",
"%	c #635B2D",
"&	c #625B2D",
"*	c #605C2F",
"=	c #040402",
"-	c #443D21",
";	c #716A34",
">	c #736A33",
",	c #736936",
"'	c #6F6831",
")	c #736934",
"!	c #706933",
"~	c #726833",
"{	c #706935",
"]	c #726835",
"^	c #615B2B",
"/	c #060503",
"(	c #4A4122",
"_	c #746834",
":	c #726932",
"<	c #736733",
"[	c #0C0C04",
"}	c #615A2C",
"|	c #736735",
"1	c #736832",
"2	c #736938",
"3	c #6D6330",
"4	c #120F08",
"5	c #6F6736",
"6	c #716732",
"7	c #110E09",
"8	c #6C652F",
"9	c #746836",
"0	c #0A0904",
"a	c #6B6531",
"b	c #716734",
"c	c #050402",
"d	c #4E4524",
"e	c #010000",
"f	c #403D1E",
"g	c #010101",
"h	c #403B1E",
"i	c #000000",
"j	c #403A20",
"k	c #030301",
"l	c #4B4525",
"m	c #070604",
"n	c #514922",
"o	c #080703",
"p	c #6E6637",
"q	c #706631",
"r	c #6F6532",
"s	c #726632",
"t	c #706633",
"u	c #040500",
"v	c #706837",
"w	c #6B6332",
"x	c #050503",
"y	c #080904",
" .+@#$%&&&&&&&&&&$+*",
"=-;>,')!~~~~~~~~{],^",
"/(]])]_:~~~~~~~~~~<@",
"[},|12|~~~~~~~~~]3,}",
"451<_6<,<<<<<<<<~~~&",
"78|9])~]||||||||~~]&",
"0a~b)6>:~~~~~~~~~]|&",
"cd~,b)<]]]]]]]]]~~~$",
"ef<b!<)]~~~~~~~~]~~&",
"gh<,!<~]~~~~~~~~]~~&",
"ij<~]<)~~~~~~~~~]~~&",
"ih~~,~,~~~~~~~~~]~~&",
"kl]~6)]~~~~~~~~~]~~&",
"mn,6_6,)~~~~~~~~]~~&",
"op6]<]~]~~~~~~~~]~~&",
"oq<,1]6]~~~~~~~~]~~&",
"0r6s6s66bbbbbbbbbt~&",
"uv~~~<||~~~~~~~~~w<$",
"x+{{!~~~~~~~~~~~~|$&",
"y@@%&%&$&&&&&&&&&&&%"};
