/* XPM */
static char * LeftRightBottom_xpm[] = {
"20 20 136 2",
"  	c #19221F",
". 	c #4E4B2A",
"+ 	c #656134",
"@ 	c #646031",
"# 	c #645F35",
"$ 	c #636035",
"% 	c #646033",
"& 	c #504B2B",
"* 	c #18231F",
"= 	c #101413",
"- 	c #453C1D",
"; 	c #6F6534",
"> 	c #726833",
", 	c #736936",
"' 	c #716831",
") 	c #736934",
"! 	c #726835",
"~ 	c #706633",
"{ 	c #443B1E",
"] 	c #0F1312",
"^ 	c #131917",
"/ 	c #464020",
"( 	c #6E6733",
"_ 	c #716A34",
": 	c #716734",
"< 	c #716A33",
"[ 	c #736733",
"} 	c #464121",
"| 	c #121816",
"1 	c #191E17",
"2 	c #5E572D",
"3 	c #716732",
"4 	c #726837",
"5 	c #6E6232",
"6 	c #5B572A",
"7 	c #1A1F18",
"8 	c #21221C",
"9 	c #696132",
"0 	c #756935",
"a 	c #736832",
"b 	c #726632",
"c 	c #746836",
"d 	c #20231A",
"e 	c #1F211C",
"f 	c #655F2D",
"g 	c #736735",
"h 	c #726932",
"i 	c #655D2E",
"j 	c #1F221B",
"k 	c #1B1D18",
"l 	c #645D2F",
"m 	c #5B5227",
"n 	c #1B1E17",
"o 	c #121619",
"p 	c #4D4521",
"q 	c #736737",
"r 	c #716535",
"s 	c #4A4422",
"t 	c #131716",
"u 	c #0D1313",
"v 	c #3E3B1C",
"w 	c #716531",
"x 	c #3E3A1F",
"y 	c #0D1311",
"z 	c #0C1212",
"A 	c #3F3B1E",
"B 	c #706631",
"C 	c #706430",
"D 	c #3F3B20",
"E 	c #0E1414",
"F 	c #3E391C",
"G 	c #3F3A1D",
"H 	c #403B1D",
"I 	c #101614",
"J 	c #4B4525",
"K 	c #6F6532",
"L 	c #746834",
"M 	c #494323",
"N 	c #111717",
"O 	c #141915",
"P 	c #514723",
"Q 	c #726634",
"R 	c #4E4824",
"S 	c #131814",
"T 	c #191E18",
"U 	c #695D33",
"V 	c #6F6832",
"W 	c #554D26",
"X 	c #171C16",
"Y 	c #1A1C17",
"Z 	c #6A5F31",
"` 	c #736A33",
" .	c #706933",
"..	c #575026",
"+.	c #171C15",
"@.	c #1A1F19",
"#.	c #695E30",
"$.	c #595029",
"%.	c #181D16",
"&.	c #151A16",
"*.	c #68602F",
"=.	c #706935",
"-.	c #6E6431",
";.	c #5D562A",
">.	c #1C1E19",
",.	c #121413",
"'.	c #3E381E",
").	c #47431E",
"!.	c #60592B",
"~.	c #6D6332",
"{.	c #6C5F32",
"].	c #675F30",
"^.	c #4E4622",
"/.	c #403B1E",
"(.	c #494321",
"_.	c #524A23",
":.	c #696133",
"<.	c #6C622F",
"[.	c #6A6231",
"}.	c #585329",
"|.	c #141D1C",
"1.	c #0A0C0B",
"2.	c #0D0F0E",
"3.	c #151611",
"4.	c #171A11",
"5.	c #171812",
"6.	c #14150F",
"7.	c #0C0E0B",
"8.	c #060A0B",
"9.	c #08090B",
"0.	c #0B0D0C",
"a.	c #0E100D",
"b.	c #11130E",
"c.	c #12150E",
"d.	c #0D0F0C",
"e.	c #151E1B",
"  . + @ # $ $ $ % % % % % % % % % $ & * ",
"= - ; > , ' ) > ! ! ! ! ! ! ! ! > ~ { ] ",
"^ / ( _ : < > > [ [ [ [ [ [ [ [ > ~ } | ",
"1 2 3 ! ! > 4 ! > > > > > > > > ) 5 6 7 ",
"8 9 0 [ a b c [ > > > > > > > > b 0 9 d ",
"e f g ! h , ! > g g g g g g g g , 3 i j ",
"k l g ! g 3 h ) > > > > > > > > > ! m n ",
"o p ~ 3 g h h q > > > > > > > > > r s t ",
"u v w , h [ ! ! > > > > > > > > > w x y ",
"z A B ! > [ ! > > > > > > > > > ) C D u ",
"E F ~ > > ! > ) > > > > > > > > > ~ G E ",
"u G : h [ , > 3 > > > > > > > > > ~ H u ",
"I J K ' L : > > > > > > > > > > > ~ M N ",
"O P 3 ) Q ) > > > > > > > > > > > ~ R S ",
"T U ) ! c V > [ > > > > > > > > [ , W X ",
"Y Z ` ! g  .! [ > > > > > > > > [ > ..+.",
"@.#.[ ' : b ' b Q 3 > 3 : : : 3 b ~ $.%.",
"&.*.g g ) : =.: 3 3 b b g b ) ` L -.;.>.",
",.'.).!.~.{.].^./././.H (._.:.<.[.-.}.S ",
"|.1.2.3.4.5.6.7.8.9.9.9.0.a.b.c.c.a.d.e."};
