/* XPM */
static char * leftblockwater_xpm[] = {
"20 20 18 1",
" 	c #6A592B",
".	c #6E6537",
"+	c #123123",
"@	c #6F6739",
"#	c #635B2C",
"$	c #3B9AC3",
"%	c #615A2C",
"&	c #625B2D",
"*	c #6F6738",
"=	c #625C2C",
"-	c #6F6737",
";	c #706738",
">	c #706737",
",	c #6F6837",
"'	c #6B6332",
")	c #635B2D",
"!	c #625B2F",
"~	c #615A2E",
" .++++++++++++++++++",
" @++++++++++++++++++",
"#@$$+++++++++++++++$",
"%@@$$+++++++++++++$$",
"&**@$$+++++++++++$$$",
"&***$$$+++++++++$$$$",
"&@***$$$+++++++$$$$$",
"=****$$$$$+++$$$$$$$",
"&******$$$$$$$$$$$$$",
"&******@$$$$$$$$$$$$",
"&*******@$$$$$$$$$$$",
"&********@$$$$$$$$$$",
"&*********@$$$$$$$$$",
"&**********@$$$$$$$$",
"&************$$$$$$$",
"&*************@@***&",
"&*-;*;;>>>>**>>*@>,&",
"=@'*********@@>*@*,)",
"&=@*@@@***@***,*>*#&",
")&&&*#=&&&%&))!~##!="};
