/* XPM */
static char * LeftTopRight_xpm[] = {
"20 20 125 2",
"  	c #0E100B",
". 	c #080401",
"+ 	c #060503",
"@ 	c #090A04",
"# 	c #080705",
"$ 	c #090804",
"% 	c #040301",
"& 	c #010000",
"* 	c #000000",
"= 	c #040500",
"- 	c #0E0E06",
"; 	c #100F0A",
"> 	c #0C0B06",
", 	c #060501",
"' 	c #040203",
") 	c #0D0F0A",
"! 	c #0D0F0E",
"~ 	c #5D592C",
"{ 	c #706933",
"] 	c #706434",
"^ 	c #716630",
"/ 	c #6F6532",
"( 	c #534B26",
"_ 	c #494623",
": 	c #413C1E",
"< 	c #403B1D",
"[ 	c #403B1E",
"} 	c #423B1E",
"| 	c #4E4622",
"1 	c #6B6335",
"2 	c #726632",
"3 	c #635B2D",
"4 	c #494321",
"5 	c #403C1F",
"6 	c #0D0D0B",
"7 	c #141510",
"8 	c #5F582C",
"9 	c #6E6230",
"0 	c #736735",
"a 	c #736733",
"b 	c #736934",
"c 	c #726835",
"d 	c #716732",
"e 	c #726833",
"f 	c #6D6632",
"g 	c #0E100D",
"h 	c #12140F",
"i 	c #595228",
"j 	c #716535",
"k 	c #716734",
"l 	c #6F6832",
"m 	c #706633",
"n 	c #736632",
"o 	c #6F6834",
"p 	c #726932",
"q 	c #6C622F",
"r 	c #111310",
"s 	c #595224",
"t 	c #756834",
"u 	c #736936",
"v 	c #726634",
"w 	c #756935",
"x 	c #726731",
"y 	c #736832",
"z 	c #746836",
"A 	c #6C6231",
"B 	c #121411",
"C 	c #10120F",
"D 	c #574F28",
"E 	c #716A34",
"F 	c #706935",
"G 	c #6F6736",
"H 	c #726837",
"I 	c #716A36",
"J 	c #706837",
"K 	c #746933",
"L 	c #6D6332",
"M 	c #0F140D",
"N 	c #0E0E0E",
"O 	c #504823",
"P 	c #4E4824",
"Q 	c #0E0E0C",
"R 	c #0B0D0C",
"S 	c #494520",
"T 	c #4A4422",
"U 	c #060A09",
"V 	c #40391D",
"W 	c #3F3A1C",
"X 	c #08090B",
"Y 	c #413A20",
"Z 	c #403B1B",
"` 	c #090A0C",
" .	c #746834",
"..	c #413A1E",
"+.	c #080A09",
"@.	c #0C0E0B",
"#.	c #4D4423",
"$.	c #5D562C",
"%.	c #686031",
"&.	c #171812",
"*.	c #686230",
"=.	c #6B612E",
"-.	c #191813",
";.	c #6D6630",
">.	c #716831",
",.	c #6E6433",
"'.	c #181911",
").	c #151610",
"!.	c #60572E",
"~.	c #6D632E",
"{.	c #61582D",
"].	c #141710",
"^.	c #444122",
"/.	c #454020",
"(.	c #0D0F0C",
"_.	c #0C0C0A",
":.	c #423D1F",
"<.	c #0C0C0C",
"[.	c #0F110E",
"}.	c #514924",
"|.	c #625C2C",
"1.	c #625B2D",
"2.	c #5F5B2B",
"3.	c #514925",
"4.	c #0F110C",
"  . + @ # $ . % & * * * = @ - ; > , ' ) ",
"! ~ { ] ^ / ( _ : < [ } | 1 / 2 3 4 5 6 ",
"7 8 9 0 a 0 0 { a 2 b c b d e c e a f g ",
"h i j k l m n k 2 a 2 2 d d d m o p q 7 ",
"r s t e d u 2 e { e e u v w x y e z A B ",
"C D k E F G a e H c b c u k I J c K L M ",
"N O c v a y a k a 2 y a a a a a c o P Q ",
"R S o b 0 p c c c e e c c e e a a k T R ",
"U V d c e c 0 e e e e e e e e e e v W X ",
"U Y d c e c a e e e e e e e e e e d Z ` ",
"U Y d c c e  .e e e e e e e e e c d W X ",
"U ..d e c e a e e e e e e e e e e k ..+.",
"@.T d e c e a e e e e e e e e e b v #.@.",
"7 $.b e e e a e e e e e e e e e e z %.7 ",
"&.*.a c e c a e e e e e e e e e e a =.&.",
"-.;.0 u >.c a e e e e e e e e e c  .,.'.",
").!.~.c 0 { e c c c c c c c c c e e {.].",
"@.^.k 0 e e e e e e e e e e e e c d /.(.",
"_.:.v 0 b 0 a e e e e e e e e e e k :.<.",
"[.}.|.1.3 2.3 1.1.1.1.1.1.1.1.1.1.3 3.4."};
