/* XPM */
static char * n0_xpm[] = {
"27 34 223 2",
"  	c #123123",
". 	c #D9BE17",
"+ 	c #DBBE1A",
"@ 	c #DDBB1C",
"# 	c #D0C17C",
"$ 	c #CFB932",
"% 	c #D9BB0F",
"& 	c #D8BD16",
"* 	c #DBC019",
"= 	c #D9BE19",
"- 	c #D8BB19",
"; 	c #D8BA0C",
"> 	c #CBBA6A",
", 	c #D7C14A",
"' 	c #D3B313",
") 	c #DFC111",
"! 	c #DDC328",
"~ 	c #DCC231",
"{ 	c #DCC332",
"] 	c #DDC131",
"^ 	c #DDC12F",
"/ 	c #DCC132",
"( 	c #DEC11B",
"_ 	c #DBBD05",
": 	c #D8BB22",
"< 	c #D5BB26",
"[ 	c #DDBF13",
"} 	c #DDC332",
"| 	c #DFC12D",
"1 	c #DCC22F",
"2 	c #DEC02A",
"3 	c #DCC426",
"4 	c #DDC22D",
"5 	c #DBC231",
"6 	c #DEC221",
"7 	c #D4B51D",
"8 	c #D1BA30",
"9 	c #DEC125",
"0 	c #DCC430",
"a 	c #DBC32F",
"b 	c #DDC01C",
"c 	c #D8BE33",
"d 	c #D5BE3E",
"e 	c #D7BE30",
"f 	c #DBBD1D",
"g 	c #DDC22B",
"h 	c #DBC232",
"i 	c #DBC32B",
"j 	c #DABB13",
"k 	c #D5BB33",
"l 	c #DDC11F",
"m 	c #DDC132",
"n 	c #DEBF26",
"o 	c #DBBD29",
"p 	c #DEC64C",
"q 	c #DDC84B",
"r 	c #D6BE28",
"s 	c #DFC123",
"t 	c #DCC22D",
"u 	c #DBC32D",
"v 	c #DFC228",
"w 	c #D2B823",
"x 	c #D9BC18",
"y 	c #DCC12A",
"z 	c #DBBF1D",
"A 	c #CCC790",
"B 	c #DBBF15",
"C 	c #DDC229",
"D 	c #E0BF22",
"E 	c #D2BC35",
"F 	c #D1B61D",
"G 	c #DDC42C",
"H 	c #DEC230",
"I 	c #DBBE22",
"J 	c #D0C068",
"K 	c #D0C38C",
"L 	c #D7BD28",
"M 	c #D9C331",
"N 	c #DBBD07",
"O 	c #E1C210",
"P 	c #DBC22A",
"Q 	c #DBC12C",
"R 	c #D6BF33",
"S 	c #DAC433",
"T 	c #DAC22A",
"U 	c #DDC32E",
"V 	c #DBC130",
"W 	c #DBC031",
"X 	c #E1C229",
"Y 	c #CEB72D",
"Z 	c #D0B623",
"` 	c #DEC429",
" .	c #DCC02E",
"..	c #DABF28",
"+.	c #DCC541",
"@.	c #CCC28F",
"#.	c #DDC024",
"$.	c #DCC42E",
"%.	c #DBBC0A",
"&.	c #DCBC11",
"*.	c #DAC131",
"=.	c #DEC431",
"-.	c #DAC224",
";.	c #CCC49D",
">.	c #D9BF22",
",.	c #DDC233",
"'.	c #E0C119",
").	c #D9C11F",
"!.	c #DBC12E",
"~.	c #DFC322",
"{.	c #DEC223",
"].	c #DCBD25",
"^.	c #DCC32B",
"/.	c #DBBE18",
"(.	c #FAF5D7",
"_.	c #DCBE12",
":.	c #DCC333",
"<.	c #D9C32F",
"[.	c #DABE1D",
"}.	c #D8BF1D",
"|.	c #DDC330",
"1.	c #DBBE24",
"2.	c #F7F6D8",
"3.	c #DEBD22",
"4.	c #DBBF20",
"5.	c #DCBE1E",
"6.	c #DABE1F",
"7.	c #F9F5DA",
"8.	c #D8BE21",
"9.	c #D0B85E",
"0.	c #DFC324",
"a.	c #DAC22C",
"b.	c #DABD21",
"c.	c #F9F5D8",
"d.	c #DCC030",
"e.	c #D8C22E",
"f.	c #E1C420",
"g.	c #F6F5D7",
"h.	c #D8BE23",
"i.	c #D8BE1F",
"j.	c #D4BB45",
"k.	c #DBC428",
"l.	c #F9F6D5",
"m.	c #DBBF1E",
"n.	c #DABE1C",
"o.	c #F8F3DD",
"p.	c #D7BD2A",
"q.	c #DCC12C",
"r.	c #DDBF21",
"s.	c #C6BC74",
"t.	c #E0C31F",
"u.	c #DEBF16",
"v.	c #DAC023",
"w.	c #DFC12F",
"x.	c #DFC21E",
"y.	c #C9BE7C",
"z.	c #D8BA04",
"A.	c #DDC026",
"B.	c #D9C121",
"C.	c #DAC22E",
"D.	c #DCC017",
"E.	c #CCB529",
"F.	c #DFC229",
"G.	c #DAC127",
"H.	c #DEC535",
"I.	c #D8C25C",
"J.	c #D9C028",
"K.	c #D7B805",
"L.	c #DEBE09",
"M.	c #DAC130",
"N.	c #D8BD26",
"O.	c #DBC228",
"P.	c #DEC32E",
"Q.	c #D3BE41",
"R.	c #CCB535",
"S.	c #E0C226",
"T.	c #DCC01E",
"U.	c #D6BE36",
"V.	c #C7B65A",
"W.	c #D9BF24",
"X.	c #D8BB08",
"Y.	c #DECC6A",
"Z.	c #DABB12",
"`.	c #CBB756",
" +	c #C9B872",
".+	c #DFC113",
"++	c #DCC329",
"@+	c #DCBF1B",
"#+	c #D6C049",
"$+	c #D2BE45",
"%+	c #DAC11E",
"&+	c #DDC42A",
"*+	c #DCBE20",
"=+	c #D9C236",
"-+	c #DFC647",
";+	c #DDC946",
">+	c #DAC140",
",+	c #D8BE29",
"'+	c #E0C01F",
")+	c #CEB93C",
"!+	c #D3B837",
"~+	c #DBC029",
"{+	c #DAC02D",
"]+	c #DBC02B",
"^+	c #DBC027",
"/+	c #CCB737",
"(+	c #D6BB36",
"_+	c #DCBD03",
":+	c #DEC32C",
"<+	c #DCC134",
"[+	c #DDBD06",
"}+	c #D4BA32",
"|+	c #D8CB85",
"1+	c #D0B727",
"2+	c #DDBE0E",
"3+	c #E0C222",
"4+	c #E0C423",
"5+	c #E0BF12",
"6+	c #CFB625",
"7+	c #D5C97F",
"8+	c #D5BD37",
"9+	c #D9BE25",
"0+	c #CABB68",
"                                                      ",
"                        . + @                         ",
"                  # $ % & * = - ; >                   ",
"              , ' ) ! ~ { ] ~ ^ / ( _ :               ",
"            < [ } } | 1 2 3 4 1 5 ^ / 6 7             ",
"          8 9 0 a a 1 b c d e f g / ~ h i j           ",
"        k l m 4 } n o p       q r s t h u v w         ",
"        x h t ~ y z A             B C ] ~ 1 D E       ",
"      F G 5 H t I J               K L | 1 ] M N       ",
"      O h ^ P Q R                   S T U V W X Y     ",
"    Z `  .^ 1 ..+.                  @.#.h $.] } %.    ",
"    &.*.=.a ~ -.;.                    >.,.5 t 1 '.    ",
"    ( a  .^ 1 ).                      >.1 !.} { ~.    ",
"    {.^ ^ 5 $.].                      I a ^.^ 5 } /.  ",
"(._.:.1 1 5 <.[.                      }.|.^ 1 t <.1.  ",
"2.3.5 1 ~ H V 4.                      5.h ] ^.W ^ 6.  ",
"7.8.$.u ~ a 4 >.                      9.0.~ ~ t a.b.  ",
"c.I d.|. .^ / 8.                      e.f.4 U 5 ~ 6.  ",
"g.h.1 ] h ] t i.                      j.k.a / ^ ~ 1.  ",
"l.m.5 !.i 1 t I                       n.] ~ 1 u t 6.  ",
"o.p.q.~ |.!.a r.                      I u ~ 1 ^ ^ 8.  ",
"  s.t.Q 5 H a I                       8.1 a u / a 6.  ",
"    u.1 a  .4 v.                      b.w.|.1 1 x.y.  ",
"    z.:.^ t a A.                      B.^ C.a / D.    ",
"    E.F.|.t 1 G.H.                  I.J.u ^ 5 h K.    ",
"      L.M.1 5 V N.                  W O.V P.d.9 Q.    ",
"      R.S.~ ^.^ T.U.              V.W.^ |.M.H X.      ",
"      Y.Z.^ ] U $.p.`.           +.+++|.1 t @+#+      ",
"        $+%+:.C.m &+*+=+-+  ;+>+,+v S H V '+)+        ",
"          !+( ,.a / Q P ~+{+]+^+i H V ] t./+          ",
"            (+_+:+0 ~ 0  .u Q |.a <+G [+}+            ",
"              |+1+2+3+t ,.1 4 M 4+5+6+7+              ",
"                      8+T.9+>.D.0+                    ",
"                                                      "};
