/* XPM */
static char * n1_xpm[] = {
"27 34 110 2",
"  	c #123123",
". 	c #D4B828",
"+ 	c #DCC112",
"@ 	c #DFC010",
"# 	c #E1CC3F",
"$ 	c #D4B816",
"% 	c #D9BB0D",
"& 	c #DEC219",
"* 	c #DCC22F",
"= 	c #DBC32F",
"- 	c #D8C022",
"; 	c #E1CC4F",
"> 	c #CCB63C",
", 	c #D7B90D",
"' 	c #D7B810",
") 	c #DBBE18",
"! 	c #DEC11B",
"~ 	c #DCC22D",
"{ 	c #DDC131",
"] 	c #DDC332",
"^ 	c #DAC22C",
"/ 	c #DEC230",
"( 	c #DAC025",
"_ 	c #DFCA4B",
": 	c #D8BD2E",
"< 	c #E1C21A",
"[ 	c #DBC12E",
"} 	c #DCC42E",
"| 	c #DFC031",
"1 	c #DBC12C",
"2 	c #D9C331",
"3 	c #DBBE24",
"4 	c #D9BD35",
"5 	c #E1C219",
"6 	c #DFC41F",
"7 	c #DFC321",
"8 	c #E1C420",
"9 	c #DCC12A",
"0 	c #DBC232",
"a 	c #DDC330",
"b 	c #DCBF23",
"c 	c #DFCC49",
"d 	c #D7BD20",
"e 	c #DFC229",
"f 	c #DEC02E",
"g 	c #D9C32F",
"h 	c #DDC12F",
"i 	c #E0CD4D",
"j 	c #D8C431",
"k 	c #DCC030",
"l 	c #DCC32B",
"m 	c #DCC231",
"n 	c #D9BF22",
"o 	c #E2CA4C",
"p 	c #D8C13F",
"q 	c #DCC225",
"r 	c #DCC132",
"s 	c #DCC227",
"t 	c #D8C23B",
"u 	c #DCC128",
"v 	c #D8C13D",
"w 	c #DEC02A",
"x 	c #DCC12C",
"y 	c #DCC430",
"z 	c #E0CB4E",
"A 	c #DBC029",
"B 	c #DBC531",
"C 	c #DAC22E",
"D 	c #D9C025",
"E 	c #E1CC4D",
"F 	c #D7C040",
"G 	c #D9C42D",
"H 	c #E0CD4C",
"I 	c #D8C028",
"J 	c #DDC22D",
"K 	c #DAC021",
"L 	c #D7C147",
"M 	c #DAC224",
"N 	c #DBC231",
"O 	c #D7C034",
"P 	c #D7C151",
"Q 	c #CEBB30",
"R 	c #D8BD14",
"S 	c #D9BD1E",
"T 	c #DABE1D",
"U 	c #DBC22A",
"V 	c #E0C230",
"W 	c #DBC32B",
"X 	c #DBC130",
"Y 	c #DDBF1F",
"Z 	c #DCBD17",
"` 	c #D1B722",
" .	c #D6BD3F",
"..	c #DDC229",
"+.	c #DCC02E",
"@.	c #DBC32D",
"#.	c #D5BD35",
"$.	c #CFB323",
"%.	c #D8B911",
"&.	c #D6BA0E",
"*.	c #D6BA10",
"=.	c #D8B913",
"-.	c #D8B80F",
";.	c #D6BA11",
">.	c #D5B90F",
",.	c #D7B80F",
"'.	c #D5BB10",
").	c #D6B913",
"!.	c #D9B80B",
"~.	c #CFB314",
"                                                      ",
"                                                      ",
"                            . + @ #                   ",
"                      $ % & * = - ;                   ",
"            > , ' ) ! ~ { ] ^ / ( _                   ",
"          : < = / [ } | * 1 2 { 3 ;                   ",
"          4 5 6 7 8 9 0 [ a * * b c                   ",
"                    d e ] f g h 3 i                   ",
"                      j k l * m n o                   ",
"                      p q r m * n o                   ",
"                      p s m r * n o                   ",
"                      t u m * * n o                   ",
"                      p s m ~ * n o                   ",
"                      v u * * * n o                   ",
"                      v u m ~ m n o                   ",
"                      v u * ~ m n o                   ",
"                      v u * * * n o                   ",
"                      v u * * * n o                   ",
"                      v u * * * n o                   ",
"                      v u * * * n o                   ",
"                      v u * * * n o                   ",
"                      v u * * * n o                   ",
"                      v u * * * n o                   ",
"                      v u * * * n o                   ",
"                      v w x y { 3 z                   ",
"                      v A B C / D E                   ",
"                      F s h G r 3 H                   ",
"                      I m J ~ J K L                   ",
"                    M w N h N m * O P                 ",
"          Q R S S T U ~ V * N W J X Y S S Z `         ",
"           ...+.* @.{ J = ] J r ] +.h ~ m l #.        ",
"          $.%.&.*.=.-.;.>.;.,.,.,.'., ).*.!.~.        ",
"                                                      ",
"                                                      "};
