/* XPM */
static char * n2_xpm[] = {
"27 34 207 2",
"  	c #123123",
". 	c #F8F7DB",
"+ 	c #D7BE2D",
"@ 	c #DAC021",
"# 	c #D9BF24",
"$ 	c #DAC025",
"% 	c #DBBD27",
"& 	c #CCB744",
"* 	c #D0B947",
"= 	c #DFC220",
"- 	c #DFC12F",
"; 	c #DDC12F",
"> 	c #DEC230",
", 	c #DAC22E",
"' 	c #DBC32D",
") 	c #DCC231",
"! 	c #DDC324",
"~ 	c #DEBF19",
"{ 	c #CFB94A",
"] 	c #DCC333",
"^ 	c #DCC22D",
"/ 	c #DCC22F",
"( 	c #DDC332",
"_ 	c #DBC32B",
": 	c #DDC22D",
"< 	c #DBC32F",
"[ 	c #DDC233",
"} 	c #DCC01E",
"| 	c #DAB90A",
"1 	c #D1B523",
"2 	c #DCBF1D",
"3 	c #DEC02A",
"4 	c #DDC328",
"5 	c #DCC128",
"6 	c #DCC329",
"7 	c #DBC12E",
"8 	c #DDC42C",
"9 	c #D7BB12",
"0 	c #D6B80C",
"a 	c #DCBF25",
"b 	c #DFC226",
"c 	c #DDBC1F",
"d 	c #D6BC31",
"e 	c #D6BF3D",
"f 	c #D7BF3B",
"g 	c #D7C03E",
"h 	c #D9BF2E",
"i 	c #DABC1C",
"j 	c #DCC223",
"k 	c #DCC430",
"l 	c #DCC031",
"m 	c #E0C329",
"n 	c #D4BA0F",
"o 	c #CFB949",
"p 	c #DDC21B",
"q 	c #DCC332",
"r 	c #DBC232",
"s 	c #DBBF1E",
"t 	c #D2BD30",
"u 	c #DFCB52",
"v 	c #CCB646",
"w 	c #CAB646",
"x 	c #CCB647",
"y 	c #CBB546",
"z 	c #D5BC3B",
"A 	c #DEC020",
"B 	c #DCC132",
"C 	c #DBC231",
"D 	c #DFC031",
"E 	c #DCC225",
"F 	c #D3B821",
"G 	c #CEBA49",
"H 	c #DDC131",
"I 	c #DBBF1D",
"J 	c #DFC322",
"K 	c #CAB445",
"L 	c #DDC229",
"M 	c #DEBF0F",
"N 	c #DDC422",
"O 	c #DFC027",
"P 	c #DBBE24",
"Q 	c #DEC012",
"R 	c #DEC223",
"S 	c #CDB948",
"T 	c #D8B92A",
"U 	c #DBC122",
"V 	c #E0C222",
"W 	c #CAB54A",
"X 	c #DBBB18",
"Y 	c #DFC229",
"Z 	c #D8BF3E",
"` 	c #E1BF17",
" .	c #DCC32B",
"..	c #D9C331",
"+.	c #E0C41B",
"@.	c #CBB545",
"#.	c #D8BB15",
"$.	c #DAC126",
"%.	c #DEC743",
"&.	c #C9B749",
"*.	c #DCBD15",
"=.	c #DDC32E",
"-.	c #DFC12D",
";.	c #DDC42A",
">.	c #D3B82B",
",.	c #D7BA14",
"'.	c #D7B70A",
").	c #DAC02B",
"!.	c #DEC221",
"~.	c #E0C119",
"{.	c #DDBE16",
"].	c #DAC131",
"^.	c #CFBB48",
"/.	c #DDC027",
"(.	c #DCC42E",
"_.	c #DBC12C",
":.	c #D7BD35",
"<.	c #D9BB1D",
"[.	c #D1B724",
"}.	c #DCC227",
"|.	c #DABA17",
"1.	c #D2BE4D",
"2.	c #DDC11F",
"3.	c #CCB541",
"4.	c #DDC219",
"5.	c #D2B847",
"6.	c #CDB43D",
"7.	c #E0C31F",
"8.	c #CEB537",
"9.	c #D7B90D",
"0.	c #DFC526",
"a.	c #DFBF16",
"b.	c #D7BD32",
"c.	c #D8B911",
"d.	c #DCBF23",
"e.	c #DABD17",
"f.	c #DDC132",
"g.	c #DBC126",
"h.	c #D5BF2B",
"i.	c #DBC33D",
"j.	c #D4BB3C",
"k.	c #D6BD2C",
"l.	c #D7B91B",
"m.	c #DABF28",
"n.	c #DCBE10",
"o.	c #DBBE1C",
"p.	c #D9BF22",
"q.	c #DEBC14",
"r.	c #D7BE1B",
"s.	c #DCC02E",
"t.	c #DBBF37",
"u.	c #C9B545",
"v.	c #D8C441",
"w.	c #DABC0C",
"x.	c #DBBD1F",
"y.	c #DBC429",
"z.	c #D3BE3E",
"A.	c #C8B648",
"B.	c #D7BC31",
"C.	c #D2B830",
"D.	c #DEBF17",
"E.	c #DDBD10",
"F.	c #DEC232",
"G.	c #DBBF2F",
"H.	c #D1B52E",
"I.	c #C8B02A",
"J.	c #CBB02B",
"K.	c #CAAF2A",
"L.	c #C7B127",
"M.	c #CBAF28",
"N.	c #C7AE2D",
"O.	c #D1B71A",
"P.	c #E0C118",
"Q.	c #E1C21A",
"R.	c #D6BB16",
"S.	c #DDC330",
"T.	c #DEC427",
"U.	c #DEC425",
"V.	c #DEC429",
"W.	c #E0C32A",
"X.	c #E1C229",
"Y.	c #E2C625",
"Z.	c #DDBE15",
"`.	c #D3B813",
" +	c #DAC432",
".+	c #DBC130",
"++	c #D9BD14",
"@+	c #DAB715",
"#+	c #DCC12C",
"$+	c #DBBF16",
"%+	c #DCC017",
"&+	c #DEBF16",
"*+	c #DBC017",
"=+	c #DDBF13",
"-+	c #DCBF19",
";+	c #DFC017",
">+	c #DFBD13",
",+	c #DDC01A",
"'+	c #DEBE15",
")+	c #DDBE18",
"!+	c #DBBF13",
"~+	c #E1C21C",
"{+	c #DFC12B",
"]+	c #D0B62B",
"^+	c #CCBB45",
"/+	c #D7C036",
"(+	c #E0C214",
"                            .                         ",
"                      + @ # $ % $                     ",
"                & * = - ; > , ' ) ! ~                 ",
"              { ! ] ^ / , ; ( _ / : < [ } |           ",
"          1 2 ) ( ^ 3 4 5 6 7 / / ' 7 / < 8 9         ",
"        0 a > / b c d e f g h i j ) k ; : l m n       ",
"      o p q r s t u v w x y y y z A B / : C D E F     ",
"      G B H I J K                   L ; C ' ) ) M     ",
"    o N / O P w                     Q r ; ) ^ : R S   ",
"    G q ^ T w                         U / B / C V W   ",
"    X , Y Z w                         `  .) 7 ..+.@.  ",
"    #.C $.%.&.                        *.=./ < -.;.>.  ",
"      ,.'.).y                         !.C 7 H ^ ~.y   ",
"                                    {.H ].H C [ ^.    ",
"                                    /.C (._.' !.:.    ",
"                                  <./ / < / 6 [.      ",
"                                  }.< : H , |.        ",
"                              1.2.7 H ) C |.          ",
"                            3.4. .: B J 5.            ",
"                          6.7.B < ( 4.8.              ",
"                        9.0.l / / a.b.                ",
"                      c.- )  .d.d                     ",
"                    e. .f.g.h.i.              j.e k.  ",
"                l.m.(.^ n.o.                  p.E q.  ",
"              r.s./  .t.u.                  v.g.) w.  ",
"            x.D ^ < y.z.A.                  B.; L C.  ",
"        D.E.< ^ ) F.< G.H.I.J.K.L.J.M.N.O.P.8 C Q.    ",
"      R.a C ; < ^ ^ / S.T.U.V.V.W.X.T.Y. ./ ; / Z.    ",
"    `.b  +/ : ) S..+; / ) / ' / / ( 7 ) S./ < ) ++    ",
"    @+/ ) / : / / S.< #+../ r ; < _.k , S.; / C G     ",
"      $+%+&+*+=+-+=+a.;+>+,+'+$+a.)+&+!+'+~+{+6 ]+    ",
"                                          ^+/+(+      ",
"                                                      ",
"                                                      "};
