/* XPM */
static char * n3_xpm[] = {
"27 34 196 2",
"  	c #123123",
". 	c #DDBE15",
"+ 	c #DEC10D",
"@ 	c #DABF1A",
"# 	c #DDBE16",
"$ 	c #CAB528",
"% 	c #E0BC0C",
"& 	c #DFC018",
"* 	c #E1C11E",
"= 	c #DDC324",
"- 	c #DCC231",
"; 	c #E0C425",
"> 	c #E2C11A",
", 	c #DFC01A",
"' 	c #DCBB0A",
") 	c #C8B439",
"! 	c #CCB535",
"~ 	c #DDBD06",
"{ 	c #E1C42A",
"] 	c #DBC234",
"^ 	c #DBC231",
"/ 	c #DDC131",
"( 	c #D9C32F",
"_ 	c #DDC22D",
": 	c #DDC330",
"< 	c #DCC22F",
"[ 	c #E0C327",
"} 	c #DABB08",
"| 	c #CDB73D",
"1 	c #D9BA11",
"2 	c #DFC226",
"3 	c #DDC332",
"4 	c #DDC12F",
"5 	c #DDC32E",
"6 	c #DBC32F",
"7 	c #DDC22B",
"8 	c #DCC32B",
"9 	c #E0C230",
"0 	c #DCC132",
"a 	c #DEC11F",
"b 	c #D4BA0D",
"c 	c #D9BB0F",
"d 	c #D9C42D",
"e 	c #DFC322",
"f 	c #D9BA12",
"g 	c #D4BA1F",
"h 	c #D2B728",
"i 	c #D6BB16",
"j 	c #DAB618",
"k 	c #DDC01A",
"l 	c #DAC22A",
"m 	c #D5B709",
"n 	c #D4BC38",
"o 	c #DDC024",
"p 	c #DCC134",
"q 	c #E1C21A",
"r 	c #CBB641",
"s 	c #DBBE18",
"t 	c #D9BD1C",
"u 	c #DCC22D",
"v 	c #DBC31B",
"w 	c #D7B90B",
"x 	c #DEC230",
"y 	c #E1C21C",
"z 	c #D5C148",
"A 	c #DEC219",
"B 	c #DCC333",
"C 	c #DBC32B",
"D 	c #D4B61A",
"E 	c #DEBF17",
"F 	c #E0C224",
"G 	c #DDC421",
"H 	c #DAC22E",
"I 	c #D8B80B",
"J 	c #DDBE18",
"K 	c #DDC11F",
"L 	c #CAB73E",
"M 	c #DEC32E",
"N 	c #DBC130",
"O 	c #DEC232",
"P 	c #D8B909",
"Q 	c #D3BA43",
"R 	c #CBB53E",
"S 	c #DBC12E",
"T 	c #D2B823",
"U 	c #DEC223",
"V 	c #DBBA09",
"W 	c #DBBF16",
"X 	c #DDC235",
"Y 	c #DBC32D",
"Z 	c #DABE1C",
"` 	c #D7BE2E",
" .	c #DEC745",
"..	c #D8BC1D",
"+.	c #DCC227",
"@.	c #DABC1E",
"#.	c #DCC440",
"$.	c #D6C142",
"%.	c #D7BE30",
"&.	c #D5BD35",
"*.	c #D3BD36",
"=.	c #D7BE23",
"-.	c #DBBF1D",
";.	c #DCC128",
">.	c #DAC246",
",.	c #DBBE1A",
"'.	c #DAC337",
").	c #E0BF24",
"!.	c #DCC329",
"~.	c #DDC120",
"{.	c #DDC328",
"].	c #DDC316",
"^.	c #DEC218",
"/.	c #DFC027",
"(.	c #DAC130",
"_.	c #DFC220",
":.	c #DCBF19",
"<.	c #DCBF26",
"[.	c #DBC029",
"}.	c #DBC232",
"|.	c #DAC432",
"1.	c #DEBE13",
"2.	c #D8B913",
"3.	c #DCC43E",
"4.	c #D9BF22",
"5.	c #DAC02D",
"6.	c #DBC122",
"7.	c #D7BB12",
"8.	c #DFC54C",
"9.	c #DEC127",
"0.	c #D7BA14",
"a.	c #CFBC31",
"b.	c #DDC229",
"c.	c #CEB31E",
"d.	c #DFC20E",
"e.	c #E0C31D",
"f.	c #DBBB08",
"g.	c #D3BA22",
"h.	c #E0C216",
"i.	c #DFC031",
"j.	c #E1C120",
"k.	c #D3BB23",
"l.	c #E0C31F",
"m.	c #DCBD17",
"n.	c #DFBE17",
"o.	c #DFC41F",
"p.	c #CEB729",
"q.	c #D0B739",
"r.	c #E0C118",
"s.	c #DEC31E",
"t.	c #CFB628",
"u.	c #DDC52D",
"v.	c #D7BB0F",
"w.	c #E2C21F",
"x.	c #DDBD0A",
"y.	c #E1C30D",
"z.	c #DCC42E",
"A.	c #DDC118",
"B.	c #DEC427",
"C.	c #CCB83D",
"D.	c #C9B137",
"E.	c #E0C423",
"F.	c #E0C11B",
"G.	c #D9BE15",
"H.	c #DCC332",
"I.	c #D1B629",
"J.	c #D9B90C",
"K.	c #DEC024",
"L.	c #DABE1D",
"M.	c #CEB841",
"N.	c #DEC956",
"O.	c #CFB52A",
"P.	c #D1BB44",
"Q.	c #DCC02E",
"R.	c #DAC129",
"S.	c #D9BD13",
"T.	c #D3B72F",
"U.	c #DEC429",
"V.	c #D9BD1B",
"W.	c #D9BD1E",
"X.	c #D7BE1B",
"Y.	c #DBBD1D",
"Z.	c #DCC223",
"`.	c #D6BA10",
" +	c #CFB427",
".+	c #DCBD0D",
"++	c #DCC030",
"@+	c #D9C331",
"#+	c #E0C32A",
"$+	c #DDC115",
"%+	c #D8BA0A",
"&+	c #D2BD3E",
"*+	c #D5B917",
"=+	c #DABB12",
"-+	c #DABB09",
";+	c #CDB62A",
"                                                      ",
"                                                      ",
"                        . + @                         ",
"              # $ % & * = - ; > , ' )                 ",
"            ! ~ { ] ^ / ( - _ : < - [ } |             ",
"          1 2 3 4 5 6 7 8 9 ^ 6 - - < 0 a b           ",
"        c d < - e f 1 g h i j k 4 6 4 - - l m         ",
"      n o 3 p q r s             t u < - 4 - v         ",
"      w p x y z                   A ] ^ _ B C D       ",
"      E < F r                       G 6 6 H x I       ",
"      J K L                         . - M N O P       ",
"      Q r R                         . u S B 7 T       ",
"                                    U ^ - : V         ",
"                                  W X Y x Z `         ",
"                               ...< 4 +.@.#.          ",
"                    $.%.&.*.=.-.H < ;.>.              ",
"                  ,.'.).!.7 < < 4 - ~.                ",
"                    {.].^./.(.< 6 _ B _.f             ",
"                            :.<.[.4 }.< |.1.2.        ",
"                                3.4.3 3 5.< 6.7.      ",
"                                  8., - x 4 N 9.0.    ",
"                                    a.b./ - B 6 s     ",
"    c.d.e.f.g.                        h.< ^ S i.j.    ",
"  k.l.] u B m.                        n.- ( 7 ^ o.    ",
"  p.] 4 < ^ U q.                      r.S M O 6 s.    ",
"  t.u._ 0 Y x v.                      w.6 ^ u - x.    ",
"    y.0 z.< S 2                     A.O 4 < S B.C.    ",
"    D.E.< - 4 / F.                G.H.< < 5 0 I.      ",
"      J.K.Y ^ 6 < L.M.N.O.O.t.P.t Q.< O - R.S.        ",
"        T.# U.^ 4 / = V.W.X.Y.Z._ i.x N ~.`.          ",
"             +.+o.u ++z.< / u 0 @+#+$+%+&+            ",
"                  *+=+# s s # G.-+;+                  ",
"                                                      ",
"                                                      "};
