/* XPM */
static char * n4_xpm[] = {
"27 34 150 2",
"  	c #123123",
". 	c #CCB452",
"+ 	c #CBB550",
"@ 	c #C9B650",
"# 	c #C8B652",
"$ 	c #C4AD47",
"% 	c #DFBF16",
"& 	c #DDC41F",
"* 	c #DFC322",
"= 	c #DDC422",
"- 	c #E0C222",
"; 	c #DFC324",
"> 	c #DCBC09",
", 	c #DCBD15",
"' 	c #DDC22B",
") 	c #DDC131",
"! 	c #DBC32D",
"~ 	c #DDC12F",
"{ 	c #DCC231",
"] 	c #DCC132",
"^ 	c #D7BA18",
"/ 	c #D9BD14",
"( 	c #DDC229",
"_ 	c #DCC22F",
": 	c #DCC030",
"< 	c #DCC22D",
"[ 	c #DAC22C",
"} 	c #D9BB1B",
"| 	c #DCBD14",
"1 	c #DBC12E",
"2 	c #DBC231",
"3 	c #DEC230",
"4 	c #DCC430",
"5 	c #DDC332",
"6 	c #D8BB19",
"7 	c #DABD19",
"8 	c #D9C32F",
"9 	c #DFC12F",
"0 	c #DDC330",
"a 	c #DBC232",
"b 	c #DFC12B",
"c 	c #D7BB1A",
"d 	c #D9BE17",
"e 	c #DFC031",
"f 	c #DDC326",
"g 	c #DCC021",
"h 	c #D8B913",
"i 	c #D9BE25",
"j 	c #DBC32F",
"k 	c #DCC128",
"l 	c #D2BC4D",
"m 	c #DBC227",
"n 	c #D8BB15",
"o 	c #DABD21",
"p 	c #DCC332",
"q 	c #D9BF24",
"r 	c #DEC244",
"s 	c #DCBF19",
"t 	c #DABC1E",
"u 	c #DCBF25",
"v 	c #DDC434",
"w 	c #DABE1F",
"x 	c #DBBE24",
"y 	c #DEC11F",
"z 	c #D3BB57",
"A 	c #DAC222",
"B 	c #D9BF20",
"C 	c #DDC01E",
"D 	c #DDBF21",
"E 	c #DAC023",
"F 	c #DCC01E",
"G 	c #DBC01B",
"H 	c #D7BB19",
"I 	c #DCC11C",
"J 	c #DABB13",
"K 	c #DFC226",
"L 	c #DDC22D",
"M 	c #D8BF1C",
"N 	c #D8BC1A",
"O 	c #DEC427",
"P 	c #DAC22A",
"Q 	c #DDBF23",
"R 	c #DBC130",
"S 	c #D9BC18",
"T 	c #D7BD22",
"U 	c #DDC328",
"V 	c #E0BE16",
"W 	c #DDC32E",
"X 	c #D7BC17",
"Y 	c #DBBD1D",
"Z 	c #DCBE1E",
"` 	c #DEC125",
" .	c #D9C331",
"..	c #DBC122",
"+.	c #DBBD21",
"@.	c #DAC130",
"#.	c #D9C025",
"$.	c #DFBE17",
"%.	c #DABE1C",
"&.	c #DBBE18",
"*.	c #D9C01B",
"=.	c #DFBF1C",
"-.	c #DFC121",
";.	c #DBC220",
">.	c #DCC11A",
",.	c #DCBF1B",
"'.	c #DEC010",
").	c #D9C01E",
"!.	c #DEC02A",
"~.	c #DCC02E",
"{.	c #DDC024",
"].	c #D9BF22",
"^.	c #DAC432",
"/.	c #DEC232",
"(.	c #D8C22E",
"_.	c #DBBC13",
":.	c #DDBF1F",
"<.	c #DDC11F",
"[.	c #DCC01F",
"}.	c #DEC022",
"|.	c #DAC11E",
"1.	c #DAC025",
"2.	c #E0C329",
"3.	c #DBBF15",
"4.	c #D3C040",
"5.	c #D7C24F",
"6.	c #D7C24B",
"7.	c #D7C44E",
"8.	c #D6C34D",
"9.	c #D9C250",
"0.	c #D8C24B",
"a.	c #D8C34C",
"b.	c #D6C14C",
"c.	c #D8C34E",
"d.	c #D6C251",
"e.	c #D7BF43",
"f.	c #DCC32B",
"g.	c #D8C248",
"h.	c #D5C353",
"i.	c #D8C14D",
"j.	c #D6C247",
"k.	c #DEC219",
"l.	c #DABD1B",
"m.	c #D7B919",
"n.	c #DEBF17",
"o.	c #DABA17",
"p.	c #D7BA04",
"q.	c #D6BB14",
"r.	c #D8BB17",
"s.	c #D3B401",
"                                                      ",
"                                                      ",
"                              . + @ @ # $             ",
"                            % & * = - ; >             ",
"                          , ' ) ! ~ { ] ^             ",
"                        / ( ! ! _ : < [ }             ",
"                      | 1 2 3 { 1 4 [ 5 6             ",
"                    7 { 8 9 ~ { 0 ~ a b c             ",
"                  d 1 _ e f g e _ _ _ _ 6             ",
"                h i { j k l   m _ _ _ _ 6             ",
"              n o p _ q r     s _ _ _ _ 6             ",
"            t u v _ w x       y _ _ _ _ 6             ",
"          z A ] { B 6         C _ _ _ _ 6             ",
"          D ! _ E n           F _ _ _ _ 6             ",
"        G < ! ~ H             I _ _ _ _ 6             ",
"      J K { L M               y _ _ _ _ 6             ",
"    N O ] P Q                 C j R 9 _ S             ",
"  T U { j V                   y _ W : _ X             ",
"  Y { < 2 Z                   ` 9  .j ~ ..            ",
"  +.3 ! @.5 #.$.%.F G &.*.=.-.) ! < ~ [ ) ;.&.>.,.'.  ",
"  ).2 { 3 ~ 4 R 2 !.4 _ { _ 2 ~ ~.p 0 ] _ _ W R { {.  ",
"  ].~.0 < R R ^.< /.: p _ ~ (.! L /._ < 0 4 { p _ `   ",
"  _.g E :.<.[.C g E }.|.1.:.2.{  .1 p j ) A }.F }.3.  ",
"  4.5.6.7.8.9.0.a.5.6.b.c.d.e.f._ 0 _ 9 < g.h.i.6.j.  ",
"                              k.{ 1 _ _ l.            ",
"                              C _ W _ 1 6             ",
"                              C { W _ 5 m.            ",
"                              I ] _ _ 0 6             ",
"                              F { < _ R 6             ",
"                              :.! < 0 { 6             ",
"                              n.3 ~ /.~ o.            ",
"                              p.q.r.r.q.s.            ",
"                                                      ",
"                                                      "};
