/* XPM */
static char * n5_xpm[] = {
"27 34 243 2",
"  	c #123123",
". 	c #E0C739",
"+ 	c #D9BA07",
"@ 	c #CDB841",
"# 	c #CEBF6C",
"$ 	c #D1C174",
"% 	c #CFC273",
"& 	c #CFC274",
"* 	c #D0C277",
"= 	c #CEC172",
"- 	c #CFC475",
"; 	c #CCC181",
"> 	c #D5BA35",
", 	c #DDC01C",
"' 	c #DFC322",
") 	c #D2BC4C",
"! 	c #CEB638",
"~ 	c #E2C009",
"{ 	c #DDC117",
"] 	c #DEBF17",
"^ 	c #DFC017",
"/ 	c #DCC017",
"( 	c #DEBF16",
"_ 	c #E0C013",
": 	c #DFC226",
"< 	c #DCC231",
"[ 	c #DDC422",
"} 	c #CEBC4C",
"| 	c #D0BB48",
"1 	c #DEC221",
"2 	c #DCC22F",
"3 	c #DDC330",
"4 	c #DCC22D",
"5 	c #DFC031",
"6 	c #D9C32F",
"7 	c #DBC231",
"8 	c #DCC430",
"9 	c #DEC220",
"0 	c #D0BC4C",
"a 	c #CEBB55",
"b 	c #DFC41F",
"c 	c #DAC22C",
"d 	c #DDC12F",
"e 	c #E0C230",
"f 	c #DAC22E",
"g 	c #DBC32D",
"h 	c #E1C121",
"i 	c #D2BA4C",
"j 	c #CFB834",
"k 	c #DFC229",
"l 	c #DDC22D",
"m 	c #DBC130",
"n 	c #DBC32F",
"o 	c #DDC131",
"p 	c #DCC132",
"q 	c #DBC12C",
"r 	c #CEBD4B",
"s 	c #E9DB6E",
"t 	c #D8BA0A",
"u 	c #DDC132",
"v 	c #DCC128",
"w 	c #DCBF1B",
"x 	c #DBBF20",
"y 	c #DCBE1E",
"z 	c #DBBF1D",
"A 	c #DDC01E",
"B 	c #DBBF1E",
"C 	c #DCBF1D",
"D 	c #D9C01E",
"E 	c #DFBD1E",
"F 	c #DEBF0D",
"G 	c #CDB83B",
"H 	c #E9DA7D",
"I 	c #D9BA14",
"J 	c #DCC11C",
"K 	c #D8C76D",
"L 	c #E9D981",
"M 	c #D7BA16",
"N 	c #D6BA0E",
"O 	c #D7BB11",
"P 	c #D6B80C",
"Q 	c #E9DA7F",
"R 	c #D6BA10",
"S 	c #D9BA11",
"T 	c #D7BA14",
"U 	c #DFC027",
"V 	c #DAC550",
"W 	c #DACE7C",
"X 	c #D4C165",
"Y 	c #CBBA5E",
"Z 	c #C7BA5A",
"` 	c #CBB75E",
" .	c #C9BA5B",
"..	c #D4C367",
"+.	c #DBCC6D",
"@.	c #EAD770",
"#.	c #DEC135",
"$.	c #DAC023",
"%.	c #DABE15",
"&.	c #DDC01A",
"*.	c #DEC11D",
"=.	c #E0C119",
"-.	c #E1C21C",
";.	c #DFC21C",
">.	c #DBBE18",
",.	c #D9BE19",
"'.	c #D9B90C",
").	c #D3B821",
"!.	c #D0BE4E",
"~.	c #E3CA4B",
"{.	c #EBDC81",
"].	c #DBC12E",
"^.	c #DCC32B",
"/.	c #DEC11F",
"(.	c #D9BD1B",
"_.	c #D5BF35",
":.	c #E4D67D",
"<.	c #DBBA15",
"[.	c #DAC130",
"}.	c #DCC332",
"|.	c #DEC230",
"1.	c #DFC12F",
"2.	c #DCC12A",
"3.	c #D9BC1A",
"4.	c #DBC83E",
"5.	c #D6C569",
"6.	c #DDBF13",
"7.	c #E0C31F",
"8.	c #DCC217",
"9.	c #D9BE17",
"0.	c #D9BA12",
"a.	c #DABA11",
"b.	c #DBBA17",
"c.	c #D8BD16",
"d.	c #DDC229",
"e.	c #DCC333",
"f.	c #DABB0B",
"g.	c #D6C56B",
"h.	c #D0BE5C",
"i.	c #DABB22",
"j.	c #D1BB41",
"k.	c #DAC02B",
"l.	c #DDC328",
"m.	c #CEB622",
"n.	c #DBC444",
"o.	c #D8BC2D",
"p.	c #DCC134",
"q.	c #D9C97C",
"r.	c #CEC17D",
"s.	c #E0C10F",
"t.	c #DBC232",
"u.	c #D1B935",
"v.	c #CCB332",
"w.	c #DEC425",
"x.	c #DABB12",
"y.	c #DCCB73",
"z.	c #DAC96D",
"A.	c #DABC0E",
"B.	c #D8BB17",
"C.	c #CCBC71",
"D.	c #D3B40C",
"E.	c #DCBE10",
"F.	c #DBBD0F",
"G.	c #D4B50D",
"H.	c #D7B60F",
"I.	c #DBBB12",
"J.	c #D3B70E",
"K.	c #DDC429",
"L.	c #CFB949",
"M.	c #D8B910",
"N.	c #DCC42E",
"O.	c #D5B81E",
"P.	c #E0C017",
"Q.	c #D9BB0D",
"R.	c #D3C77D",
"S.	c #DDBE15",
"T.	c #E1C219",
"U.	c #C6B975",
"V.	c #DEC522",
"W.	c #CAB643",
"X.	c #CFB72F",
"Y.	c #DDC42A",
"Z.	c #DDC235",
"`.	c #DABA07",
" +	c #E4D788",
".+	c #C3B344",
"++	c #E1C323",
"@+	c #DDC034",
"#+	c #D6C142",
"$+	c #D4C148",
"%+	c #DFC321",
"&+	c #DEC233",
"*+	c #DEC11B",
"=+	c #D6BF3D",
"-+	c #D8B907",
";+	c #DDC32E",
">+	c #DCC11A",
",+	c #D6BD3C",
"'+	c #DFCD6B",
")+	c #DCCC6A",
"!+	c #DAC21A",
"~+	c #CFB635",
"{+	c #D5C673",
"]+	c #D7B810",
"^+	c #DAC224",
"/+	c #D8C22E",
"(+	c #DBC031",
"_+	c #DFC123",
":+	c #D7BE1B",
"<+	c #D7BF39",
"[+	c #D7C13A",
"}+	c #D9C13B",
"|+	c #D5BF38",
"1+	c #D9BB1F",
"2+	c #DBC122",
"3+	c #D8BF1A",
"4+	c #D1BB34",
"5+	c #E2D587",
"6+	c #D7B919",
"7+	c #DDBD12",
"8+	c #DCC328",
"9+	c #DEC128",
"0+	c #DBC027",
"a+	c #DFC228",
"b+	c #DCC225",
"c+	c #D9B904",
"d+	c #D7C04C",
"e+	c #D4C373",
"f+	c #D0B62B",
"g+	c #DEBD10",
"h+	c #DFC319",
"i+	c #DDC326",
"j+	c #E0C11B",
"k+	c #DABB09",
"l+	c #D0B83E",
"m+	c #E1D589",
"n+	c #D3BB35",
"o+	c #DBBE1A",
"p+	c #D8BE21",
"q+	c #DBBE22",
"r+	c #D9BF22",
"s+	c #DABE1F",
"t+	c #D0BA55",
"                                                      ",
"                                                      ",
"                                          . + @       ",
"          # $ % & & & & & & & & * = - ; > , ' )       ",
"        ! ~ { ] ^ ^ ^ ^ ^ ^ ^ ^ / ( ^ _ : < [ }       ",
"        | 1 2 3 2 2 2 2 2 2 2 2 4 5 6 7 8 3 9 0       ",
"        a b c 7 2 2 2 2 2 2 2 2 2 2 d e f g h i       ",
"        j k l < 2 2 2 2 2 2 2 2 m n o g p q ' r       ",
"      s t < g u v w x y z z A x B y y C D E F G       ",
"      H I < n J K                                     ",
"      L M p 2 N                                       ",
"      H O 7 3 P                                       ",
"      Q R n 2 S                                       ",
"      Q T 2 4 U V W X Y Z `  ...+.@.                  ",
"      H I 2 g #.$.%.&.*.=.-.;.>.,.'.).!.~.            ",
"      {.I l 7 2 4 ].d n n o 4 < 2 < ^./.(._.          ",
"      :.<.n < d 2 2 [.}.m l |.2 7 2 d 1.< 2.3.4.      ",
"      5.6.7.8.9.T 0.M a.b.c.&.d.|.n 2 c 2 4 e.f.g.    ",
"      h.i.                    j., k.l 2 7 < |.l.m.    ",
"                                  n.o.8 l 1.g p.F q.  ",
"                                    r.s.t.e.f 2 l.u.  ",
"                                      v.w.].4 4 7 x.  ",
"        y.z.                            A.7 8 2 < B.  ",
"    C.D.E.F.G.                          H.3 ].d 7 I.  ",
"    J.K.|.7 { L.                        M.< o 4 N.O.  ",
"    P.7 d }.d Q.                      R.S.d g 7 T.U.  ",
"    F 7 c 3 m V.W.                    X.Y.8 4 Z.`. +  ",
"    .+++7 n 2 @+-.#+                $+%+2 &+|.*+=+    ",
"      -+^.d ;+< p >+,+'+        )+,+!+d 2 p *+~+      ",
"      {+]+^+/+7 2 (+_+:+<+[+}+|+1+2+2 p ].3+4+        ",
"        5+6+7+8+< 8 q o 8+9+0+a+n o 3 b+c+d+          ",
"            e+f+g+h+;+t.4 d n < i+j+k+l+m+            ",
"                    n+o+p+q+r+s+t+                    ",
"                                                      "};
