/* XPM */
static char * n6_xpm[] = {
"27 34 253 2",
"  	c #123123",
". 	c #E9D783",
"+ 	c #D2C778",
"@ 	c #C9B755",
"# 	c #D7B717",
"$ 	c #D7BB11",
"% 	c #DABB13",
"& 	c #DEBF17",
"* 	c #DBBE1A",
"= 	c #DEBE1B",
"- 	c #D9B904",
"; 	c #E4CF52",
"> 	c #E1D281",
", 	c #D7C257",
"' 	c #CDB539",
") 	c #DABC0C",
"! 	c #DDBD12",
"~ 	c #DFC321",
"{ 	c #DDC22D",
"] 	c #D9C331",
"^ 	c #DBC12E",
"/ 	c #DAC430",
"( 	c #DDC32E",
"_ 	c #DCC231",
": 	c #DBBB18",
"< 	c #E6D15A",
"[ 	c #E2D48B",
"} 	c #DAC035",
"| 	c #D4BC1A",
"1 	c #DCC118",
"2 	c #E0C224",
"3 	c #DBC231",
"4 	c #DCC22F",
"5 	c #DBC32D",
"6 	c #DFC229",
"7 	c #DEC022",
"8 	c #DBBF1E",
"9 	c #D7BB19",
"0 	c #DABC1C",
"a 	c #DBB919",
"b 	c #D3B718",
"c 	c #DCCE65",
"d 	c #D2C479",
"e 	c #DBC019",
"f 	c #DDBE25",
"g 	c #DCC12C",
"h 	c #DBC32F",
"i 	c #DDC233",
"j 	c #DDC122",
"k 	c #DABB15",
"l 	c #D2B825",
"m 	c #D1BB4B",
"n 	c #DDC757",
"o 	c #E5D05D",
"p 	c #E6D15C",
"q 	c #E4D05F",
"r 	c #C6B65F",
"s 	c #DDC21B",
"t 	c #DCC22D",
"u 	c #DEC32A",
"v 	c #DBBB04",
"w 	c #D1BD40",
"x 	c #E2D579",
"y 	c #C7B666",
"z 	c #DDC12F",
"A 	c #DCC332",
"B 	c #DFC21E",
"C 	c #D1B931",
"D 	c #DAD092",
"E 	c #C8B660",
"F 	c #DDBE16",
"G 	c #E0C22E",
"H 	c #DCC430",
"I 	c #DCBE20",
"J 	c #DCC13C",
"K 	c #DBD486",
"L 	c #D6BA0E",
"M 	c #DDC42C",
"N 	c #DBC130",
"O 	c #DCC132",
"P 	c #DEC221",
"Q 	c #DCC43E",
"R 	c #CDB436",
"S 	c #DAC22E",
"T 	c #DEC230",
"U 	c #DAC130",
"V 	c #DFC52A",
"W 	c #CCB738",
"X 	c #DFBE0F",
"Y 	c #D8C016",
"Z 	c #CCB436",
"` 	c #DDC429",
" .	c #DCC12A",
"..	c #DCC42C",
"+.	c #D5B812",
"@.	c #E2D380",
"#.	c #D2BE4B",
"$.	c #D6B905",
"%.	c #D9B90E",
"&.	c #D6B913",
"*.	c #D9B910",
"=.	c #D8B910",
"-.	c #D8B906",
";.	c #D0B832",
">.	c #D5C671",
",.	c #DCBD0A",
"'.	c #DDC132",
").	c #E0C132",
"!.	c #DDBF29",
"~.	c #E4CC4E",
"{.	c #D5C151",
"].	c #D8B913",
"^.	c #DDC21D",
"/.	c #DDC131",
"(.	c #DEC135",
"_.	c #DBC227",
":.	c #DEBE11",
"<.	c #D3B823",
"[.	c #D8C358",
"}.	c #DDC01C",
"|.	c #DBBE22",
"1.	c #DCC021",
"2.	c #E0C222",
"3.	c #DDC41F",
"4.	c #DDC229",
"5.	c #CEBB45",
"6.	c #E3C21B",
"7.	c #DDC332",
"8.	c #DBC32B",
"9.	c #DCC42E",
"0.	c #DEC012",
"a.	c #D1B722",
"b.	c #CAB445",
"c.	c #CBB548",
"d.	c #D1B925",
"e.	c #DBC12C",
"f.	c #DCC32B",
"g.	c #E0C119",
"h.	c #CEB942",
"i.	c #CDBB55",
"j.	c #DDC326",
"k.	c #D8BE1F",
"l.	c #D5C46A",
"m.	c #DCCC74",
"n.	c #D7BB1A",
"o.	c #DEC32E",
"p.	c #DCC134",
"q.	c #DDBD08",
"r.	c #D6CB89",
"s.	c #DCC016",
"t.	c #DDC330",
"u.	c #DDD290",
"v.	c #DEC431",
"w.	c #CAB22E",
"x.	c #D9BF22",
"y.	c #DCC030",
"z.	c #DFBF16",
"A.	c #D7C982",
"B.	c #D8BC1B",
"C.	c #DBC232",
"D.	c #DEBF0F",
"E.	c #DFC017",
"F.	c #C8B35A",
"G.	c #E0C31D",
"H.	c #DEC11D",
"I.	c #D0BC4B",
"J.	c #DBC429",
"K.	c #DCC02E",
"L.	c #C6BB79",
"M.	c #DCD28A",
"N.	c #DCBC13",
"O.	c #DFC41F",
"P.	c #E1C21A",
"Q.	c #DEBF16",
"R.	c #D3C77F",
"S.	c #D7B80F",
"T.	c #E0C31F",
"U.	c #E0C01F",
"V.	c #CDC483",
"W.	c #E3D594",
"X.	c #DCBC11",
"Y.	c #D9B90C",
"Z.	c #DCC333",
"`.	c #C5B567",
" +	c #CEC270",
".+	c #DDC117",
"++	c #DCBF1B",
"@+	c #D3BC30",
"#+	c #DBC031",
"$+	c #D8B911",
"%+	c #DDC235",
"&+	c #DBB707",
"*+	c #E1D792",
"=+	c #DBB902",
"-+	c #DDC436",
";+	c #DDC421",
">+	c #CBBB5B",
",+	c #D3C363",
"'+	c #DEC223",
")+	c #DCC225",
"!+	c #D0BC41",
"~+	c #D8C141",
"{+	c #DFBF1C",
"]+	c #E2BF1B",
"^+	c #D2BF58",
"/+	c #D8C55F",
"(+	c #DEC232",
"_+	c #DAB801",
":+	c #CEB93A",
"<+	c #E1C120",
"[+	c #CCB943",
"}+	c #DDC855",
"|+	c #E4CE5E",
"1+	c #E2D15B",
"2+	c #DFC959",
"3+	c #D1BB43",
"4+	c #DABE1C",
"5+	c #DCC128",
"6+	c #E2D169",
"7+	c #CDB843",
"8+	c #DBC01B",
"9+	c #DEC220",
"0+	c #DBBE1C",
"a+	c #D9BB1F",
"b+	c #DCBB1E",
"c+	c #DABE1D",
"d+	c #DEC020",
"e+	c #E0C230",
"f+	c #DCC223",
"g+	c #D9BA11",
"h+	c #D9C761",
"i+	c #D3BF4C",
"j+	c #D8BB08",
"k+	c #D9C332",
"l+	c #DCC031",
"m+	c #E0C425",
"n+	c #DFC00E",
"o+	c #D1B629",
"p+	c #E1D478",
"q+	c #E3D688",
"r+	c #D1BB41",
"s+	c #D8B801",
"t+	c #DABD17",
"u+	c #E2C31B",
"v+	c #DEC31C",
"w+	c #DFC324",
"x+	c #DFC018",
"y+	c #DBBD07",
"z+	c #CBB639",
"A+	c #D1C47E",
"B+	c #D6BA3D",
"C+	c #DFC010",
"D+	c #C9B868",
"                                                      ",
"                                                      ",
"                                                      ",
"                          . + @ # $ % & * = - ;       ",
"                    > , ' ) ! ~ { ] ^ / ( _ : <       ",
"                [ } | 1 2 3 4 5 6 7 8 9 0 a b c       ",
"              d e f g h 3 i j k l m n o p q           ",
"            r s t 4 _ 4 u v w x                       ",
"          y s 4 z 4 A B C D                           ",
"        E F G 4 h H I J                               ",
"      K L M N _ O P Q                                 ",
"      R ~ S T U V W                                   ",
"      X O 4 4 _ Y                                     ",
"    Z ` { 3  ...+.    @.#.$.%.&.*.=.-.;.>.            ",
"    ,.'._ 3 ).N !.~.{.].^./.3 4 h S (._.:.<.[.        ",
"    }.{ 3 ^ 4 h A |.1._ { 2.3.4._ _ ^ G O 4.* 5.      ",
"    6.4 7.8.z h 4 3 9.0.a.b.c.d.! t e.7.f.4 3 g.h.    ",
"  i.j.4 H /.z /.4 /.k.l.        m.n.o._ h T z p.q.r.  ",
"  s.] ( ^ 4 t t t.I u.              * v.] h h T u w.  ",
"  x./.^ 3 y.H h z.A.                  B.T '.5 h C.D.  ",
"  E._ 3 4 4 _ 4.d.                    F.G.y.t.4 4 H.  ",
"  I.J.5 K.9.e.g.L.                    M.N.( ^ T t O.  ",
"    P.z 3 _ t Q.R.                      S.C.H ^ _ T.  ",
"    U.^ T h t.& V.                    W.X._ f.h h B   ",
"    Y.Z.{ 4 h G.`.                     +.+U ( _ 4 ++  ",
"    @+6 e.Z.#+t k                     $+_ _ { _ %+&+  ",
"    *+=+-+U ( ^ ;+>+                ,+'+5 3 g ] )+!+  ",
"      ~+{+t { _ _ ]+^+            /+& 4 /.h (+/ _+    ",
"        :+<+_ h h 3 8 [+}+|+1+2+3+4+C./.C._ 5+].6+    ",
"          7+8+4 z 9.4 9+0+a+b+c+d+C.h h e+f+g+h+      ",
"            i+j+)+k+/._ ^ h t t 3 h l+m+n+o+p+        ",
"              q+r+s+t+u+v+u C.w+u+x+y+z+A+            ",
"                          B+C+D+                      ",
"                                                      "};
