/* XPM */
static char * n7_xpm[] = {
"27 34 184 2",
"  	c #123123",
". 	c #CFB61C",
"+ 	c #D4B61A",
"@ 	c #E5D158",
"# 	c #DCBD17",
"$ 	c #E1C428",
"% 	c #D2BC35",
"& 	c #BAAB68",
"* 	c #B7AD68",
"= 	c #B9AC68",
"- 	c #B9AB6A",
"; 	c #B6AC67",
"> 	c #B9AC66",
", 	c #B8AB67",
"' 	c #B4A85E",
") 	c #CFBC53",
"! 	c #DFBF1E",
"~ 	c #DBC231",
"{ 	c #DDC42A",
"] 	c #E4C51C",
"^ 	c #E4C51D",
"/ 	c #E2C61D",
"( 	c #E1C51C",
"_ 	c #E2C61A",
": 	c #E2C61C",
"< 	c #E1C41E",
"[ 	c #E3C41C",
"} 	c #E0C009",
"| 	c #CCB332",
"1 	c #DEC425",
"2 	c #DBC32F",
"3 	c #DDC22D",
"4 	c #DCC231",
"5 	c #DCC22F",
"6 	c #DCC22D",
"7 	c #DDC12F",
"8 	c #DDC32E",
"9 	c #DABD1B",
"0 	c #EBDC8B",
"a 	c #D8BA0E",
"b 	c #DBC130",
"c 	c #D8C22E",
"d 	c #DBC12E",
"e 	c #DDC42C",
"f 	c #DCC132",
"g 	c #E0C327",
"h 	c #D2B81D",
"i 	c #D0C17C",
"j 	c #DEC012",
"k 	c #DCC332",
"l 	c #DDC22B",
"m 	c #DEC230",
"n 	c #DBC031",
"o 	c #DBC22A",
"p 	c #DAC130",
"q 	c #DDC332",
"r 	c #DEC626",
"s 	c #D8BC1B",
"t 	c #CAB645",
"u 	c #E0C224",
"v 	c #DCC42E",
"w 	c #E1C32F",
"x 	c #E1C317",
"y 	c #DCBD14",
"z 	c #D8B910",
"A 	c #D8BD16",
"B 	c #DDC330",
"C 	c #DAC22E",
"D 	c #E0C329",
"E 	c #D8BB19",
"F 	c #D8B906",
"G 	c #E1C229",
"H 	c #D0B937",
"I 	c #DBC436",
"J 	c #DCC12C",
"K 	c #D6BD25",
"L 	c #BFB476",
"M 	c #DEBD18",
"N 	c #DAC22C",
"O 	c #DCBF19",
"P 	c #DCC75C",
"Q 	c #D4BC36",
"R 	c #DCC329",
"S 	c #DAC025",
"T 	c #DAC037",
"U 	c #E3C21D",
"V 	c #D3BB35",
"W 	c #C9B449",
"X 	c #DAC126",
"Y 	c #DFC226",
"Z 	c #DABF28",
"` 	c #D0B609",
" .	c #DCBD15",
"..	c #DCC014",
"+.	c #DDC237",
"@.	c #CDBA54",
"#.	c #DDC117",
"$.	c #DEC32E",
"%.	c #D4B526",
"&.	c #E8D368",
"*.	c #DECE6C",
"=.	c #C9B64D",
"-.	c #CBBD64",
";.	c #D8C664",
">.	c #DDBE15",
",.	c #DDC131",
"'.	c #E0C10E",
").	c #C8BD6D",
"!.	c #DBBC0C",
"~.	c #DCC237",
"{.	c #DDC328",
"].	c #CCB42C",
"^.	c #C2B147",
"/.	c #DCC430",
"(.	c #DBBB10",
"_.	c #DDCD6D",
":.	c #D8C55F",
"<.	c #D8C230",
"[.	c #DEC128",
"}.	c #D3BC30",
"|.	c #D0B92D",
"1.	c #DEC127",
"2.	c #DBBE22",
"3.	c #D9C860",
"4.	c #D6BE44",
"5.	c #DBBF20",
"6.	c #D9C331",
"7.	c #DABF26",
"8.	c #DAD184",
"9.	c #D9BB05",
"0.	c #CDBD5D",
"a.	c #CDB537",
"b.	c #DDC326",
"c.	c #DCC021",
"d.	c #DBC232",
"e.	c #DBC12C",
"f.	c #DCBB1E",
"g.	c #D3BE31",
"h.	c #DDC132",
"i.	c #DEC11B",
"j.	c #C7BD75",
"k.	c #D9C01E",
"l.	c #DCC333",
"m.	c #DDBF09",
"n.	c #C3BA79",
"o.	c #DCC128",
"p.	c #DCC52A",
"q.	c #CAB327",
"r.	c #E1C62D",
"s.	c #D9C129",
"t.	c #E1C51B",
"u.	c #C0B26B",
"v.	c #D7BC37",
"w.	c #DEC02A",
"x.	c #DEC232",
"y.	c #D8C016",
"z.	c #D6C472",
"A.	c #DACA7C",
"B.	c #D9BA24",
"C.	c #DBCF7B",
"D.	c #E3CD55",
"E.	c #D7BD1E",
"F.	c #DBC32D",
"G.	c #D8BA0C",
"H.	c #EEDD81",
"I.	c #DCC551",
"J.	c #DCC01F",
"K.	c #D5B719",
"L.	c #D3BF46",
"M.	c #DAC222",
"N.	c #DFC031",
"O.	c #E1C422",
"P.	c #C4B242",
"Q.	c #CBB440",
"R.	c #DFC322",
"S.	c #DDC11F",
"T.	c #CDB949",
"U.	c #C6B13A",
"V.	c #DEC220",
"W.	c #DBC029",
"X.	c #DDBF2B",
"Y.	c #DBC02B",
"Z.	c #DBBF1D",
"`.	c #D3BF4E",
"                                                      ",
"        . +                                           ",
"      @ # $ % & * * * * * * * * = - - ; * = > & , '   ",
"      ) ! ~ { ] ^ ^ ^ ^ ^ ^ ^ ^ / ( _ : / < [ ] ] }   ",
"      | 1 2 3 4 5 5 5 5 5 5 5 5 5 6 4 7 3 4 8 6 ~ 9   ",
"    0 a b c 5 2 5 5 5 5 5 5 5 5 6 5 4 d e 4 f 4 g h   ",
"    i j f k l ~ 5 5 5 5 5 5 5 5 m n o p k 2 q r s     ",
"    t u v w x y z z z z z z z z a A 3 B C q D E       ",
"    F ~ G H                         I J 5 m K L       ",
"    M N O P                         Q R 6 S T         ",
"    U 6 V                         W X ~ Y Z           ",
"  `  ...+.                      @.#.8 $.%.            ",
"  &.*.=.-.                    ;.>.,.f '.).            ",
"                              !.~.8 {.].              ",
"                            ^.D 5 /.(._.              ",
"                          :.#.<.6 [.}.                ",
"                          |.1.6 J 2.3.                ",
"                        4.5.q 6.2 7.                  ",
"                      8.9.4 l 7 [.0.                  ",
"                      a.b./.C 5 c.                    ",
"                      } d.e.,.4 f.                    ",
"                    g.2 l h.4 i.j.                    ",
"                    k.l.5 2 4 m.                      ",
"                  n.o.5 4 3 p.q.                      ",
"                  r.s.6 5 5 t.u.                      ",
"                  v.w.4 3 x.y.z.                      ",
"                A.B.6 N 5 h. .C.                      ",
"                D.E.4 B 2 F.G.H.                      ",
"                I.J.6 6 2 3 K.                        ",
"                L.M.4 N N.O.P.                        ",
"                Q.R.4 5 6 S.T.                        ",
"                U.V.W.X.Y.Z.`.                        ",
"                                                      ",
"                                                      "};
