/* XPM */
static char * n8_xpm[] = {
"27 34 270 2",
"  	c #123123",
". 	c #CEBB54",
"+ 	c #DEBF16",
"@ 	c #D9BE27",
"# 	c #DDC117",
"$ 	c #CFBC55",
"% 	c #D5C981",
"& 	c #CEB421",
"* 	c #DEBE13",
"= 	c #DFC31A",
"- 	c #DCC426",
"; 	c #DBC232",
"> 	c #DDC12F",
", 	c #DDC332",
"' 	c #DDC229",
") 	c #E1C019",
"! 	c #DCBE10",
"~ 	c #CDB924",
"{ 	c #D7CB83",
"] 	c #DFCF81",
"^ 	c #C9B532",
"/ 	c #DFBF0A",
"( 	c #E0C22E",
"_ 	c #DBC231",
": 	c #DCC22F",
"< 	c #DDC131",
"[ 	c #DCC430",
"} 	c #DCC22D",
"| 	c #DBC130",
"1 	c #DEC232",
"2 	c #DEC32A",
"3 	c #DDBD06",
"4 	c #D1B83A",
"5 	c #E1D581",
"6 	c #DECB65",
"7 	c #D8BA0A",
"8 	c #DEC425",
"9 	c #DCC231",
"0 	c #DBC32F",
"a 	c #DDC328",
"b 	c #DAC127",
"c 	c #DEBF27",
"d 	c #DAC129",
"e 	c #DDBF29",
"f 	c #DBC228",
"g 	c #D9C331",
"h 	c #DFC123",
"i 	c #D6BB0C",
"j 	c #E0D190",
"k 	c #D9B919",
"l 	c #DABF26",
"m 	c #D7BF39",
"n 	c #E0C540",
"o 	c #DFC743",
"p 	c #DFC741",
"q 	c #DBC53E",
"r 	c #D8BD28",
"s 	c #DAC328",
"t 	c #DDC32E",
"u 	c #DAC126",
"v 	c #D6BA35",
"w 	c #D5BC45",
"x 	c #DAC11E",
"y 	c #DCC132",
"z 	c #DBC027",
"A 	c #CBBB5B",
"B 	c #D0C27B",
"C 	c #E1C118",
"D 	c #DDC22B",
"E 	c #DAC130",
"F 	c #DCC030",
"G 	c #D9BC1A",
"H 	c #E2D167",
"I 	c #EEDF84",
"J 	c #D8B80B",
"K 	c #DDC22D",
"L 	c #DBBF37",
"M 	c #D2C372",
"N 	c #D9BF24",
"O 	c #DDC330",
"P 	c #D8BB19",
"Q 	c #E4D264",
"R 	c #E5D685",
"S 	c #D8BC12",
"T 	c #DCC12C",
"U 	c #E0C93D",
"V 	c #D7BC37",
"W 	c #D8BC1B",
"X 	c #E7D164",
"Y 	c #D7CA7B",
"Z 	c #DBBF16",
"` 	c #DBC126",
" .	c #DAC339",
"..	c #D5BE30",
"+.	c #DBC12E",
"@.	c #D7BC17",
"#.	c #E5D15E",
"$.	c #E9DA85",
"%.	c #D8BA0E",
"&.	c #DFC12F",
"*.	c #D9C32F",
"=.	c #D7C561",
"-.	c #DCCA68",
";.	c #D7BE1C",
">.	c #DDC132",
",.	c #DFC12B",
"'.	c #D3BA2A",
").	c #D2B614",
"!.	c #DEC32E",
"~.	c #E1C01B",
"{.	c #C8B95C",
"].	c #D2BB37",
"^.	c #DEC125",
"/.	c #D9C42D",
"(.	c #DCBF1B",
"_.	c #D9C552",
":.	c #D5BF47",
"<.	c #DCBF19",
"[.	c #DAC22E",
"}.	c #DFC027",
"|.	c #C8BA71",
"1.	c #CCB943",
"2.	c #DCC11C",
"3.	c #DFC01A",
"4.	c #CFBA3B",
"5.	c #DED391",
"6.	c #DABA17",
"7.	c #DFC031",
"8.	c #DDC324",
"9.	c #E0BF10",
"0.	c #D2B942",
"a.	c #CCBC5D",
"b.	c #E3C41B",
"c.	c #DCC333",
"d.	c #DBBC16",
"e.	c #D4BE34",
"f.	c #C9BE7C",
"g.	c #DABD19",
"h.	c #DCC02E",
"i.	c #E2C222",
"j.	c #D9C332",
"k.	c #DCBC1B",
"l.	c #E8CF58",
"m.	c #CEC47D",
"n.	c #DCC017",
"o.	c #DBC12C",
"p.	c #D9BE25",
"q.	c #DFC83E",
"r.	c #D1B841",
"s.	c #DCC422",
"t.	c #DDC433",
"u.	c #DBBD21",
"v.	c #CFBB58",
"w.	c #E0C01D",
"x.	c #DCC332",
"y.	c #DFC226",
"z.	c #D5BB26",
"A.	c #E0C84A",
"B.	c #D3C378",
"C.	c #DCC01E",
"D.	c #DCC12A",
"E.	c #DDC233",
"F.	c #DFC229",
"G.	c #DEC10E",
"H.	c #CBB734",
"I.	c #D2B929",
"J.	c #DFC113",
"K.	c #D8BB17",
"L.	c #DCC752",
"M.	c #D7BE1B",
"N.	c #DABF18",
"O.	c #D4B922",
"P.	c #D3C56C",
"Q.	c #D5C25B",
"R.	c #D7B812",
"S.	c #E0C32A",
"T.	c #DAC131",
"U.	c #DEC429",
"V.	c #D2B81D",
"W.	c #D9BB1B",
"X.	c #D9BC20",
"Y.	c #DCC01F",
"Z.	c #D1B633",
"`.	c #DFC322",
" +	c #DBC32D",
".+	c #DFC319",
"++	c #C7B65A",
"@+	c #D3C668",
"#+	c #DBBA09",
"$+	c #DEC336",
"%+	c #E0C230",
"&+	c #DDC120",
"*+	c #DEBD20",
"=+	c #DCC42E",
"-+	c #DDC42C",
";+	c #D4B51D",
">+	c #D4B71D",
",+	c #D8BE2D",
"'+	c #D7BC0D",
")+	c #DBB911",
"!+	c #DBBC23",
"~+	c #D7BA14",
"{+	c #DABE15",
"]+	c #DEC221",
"^+	c #CEBE67",
"/+	c #D8BE23",
"(+	c #D9BA07",
"_+	c #DEC135",
":+	c #DDBF11",
"<+	c #DCBF25",
"[+	c #E1C327",
"}+	c #CDB539",
"|+	c #CBB345",
"1+	c #DFC321",
"2+	c #CEBB55",
"3+	c #CBBC57",
"4+	c #DABC0E",
"5+	c #DED288",
"6+	c #E2D591",
"7+	c #DAB90A",
"8+	c #DAC22C",
"9+	c #D9BF22",
"0+	c #D2BD40",
"a+	c #E2CC55",
"b+	c #DBCB6B",
"c+	c #D6BD3C",
"d+	c #DDBF1F",
"e+	c #DFC121",
"f+	c #CAB536",
"g+	c #D3BF60",
"h+	c #D9BD1E",
"i+	c #D9BE33",
"j+	c #D7C03E",
"k+	c #D7BF37",
"l+	c #D7BF3B",
"m+	c #D7BD35",
"n+	c #D7BD22",
"o+	c #DCC321",
"p+	c #D8B80D",
"q+	c #E6D57B",
"r+	c #D4C35B",
"s+	c #D9BA0A",
"t+	c #E0C222",
"u+	c #DFC02A",
"v+	c #DDC027",
"w+	c #DFC028",
"x+	c #DBC22A",
"y+	c #DEC431",
"z+	c #DEBE1B",
"A+	c #D1B635",
"B+	c #E5D276",
"C+	c #E0D480",
"D+	c #CEB93A",
"E+	c #DBBB06",
"F+	c #DFC21C",
"G+	c #DBC031",
"H+	c #DEC230",
"I+	c #E0C214",
"J+	c #D4B713",
"K+	c #D5C249",
"L+	c #E3D58C",
"M+	c #D5B91A",
"N+	c #DBBA13",
"O+	c #D8BD18",
"P+	c #DEC11F",
"Q+	c #DDC01C",
"R+	c #DCBC19",
"S+	c #D7BC15",
"T+	c #D6BA19",
"U+	c #CFC379",
"                                                      ",
"                      . + @ # $                       ",
"              % & * = - ; > , ' ) ! ~ {               ",
"          ] ^ / ( _ : < [ } | : _ 1 2 3 4 5           ",
"        6 7 8 ; 9 0 a b c d e f } 9 > g h i j         ",
"        k f 9 : ' l m n o p o q r s 0 t [ u v         ",
"      w x < y _ z A             B C D E F 9 G H       ",
"    I J _ : K f L                 M N } : O P Q       ",
"    R S y K } T U                   V D : : W X       ",
"    Y Z 0 _ O `  .                  ..D [ +.@.#.      ",
"    $.%.t &.*.[ z =.              -.;.O >.,.'.        ",
"      ).!.: [ | +.~.{.            ].^./.9 (._.        ",
"      :.<.y T [ O [.b }.|.      1.2._ O 3.4.          ",
"      5.6.2 : 0 0 7.0 > 8.9.0.a.b.y c.d.e.            ",
"        f.g.O > 9 h.[ | _ _ D i.j.> k.l.              ",
"          m.n.K _ } +._ : o.: : [ } p.q.              ",
"              r.s.: < t +.: | : 0 1 t.u.z             ",
"              v.w.9 x.y.' 9 t 9 K 0 } c.z z.A.        ",
"          B.C.D.E.F.G.H.I.J.K : [.[ < : } , K.L.      ",
"        M.N.0 > f O.P.    Q.R.J.S.T.> : E y U.V.      ",
"      W.X.>.: o.Y.              Z.`.*.F } <  +.+++    ",
"    @+#+$+E %+&+                  q *+=+x.T O -+;+    ",
"    >+D 9 } 0 ,+                    B.f _ O | , '+    ",
"    )+_ [.t C                         !+K  +0 > ~+    ",
"    {+: 7.} ]+^+                      /+} : } j.(+    ",
"    i j. +: _+:+                      <+| , [.[+}+    ",
"    |+1+< 9 : ' 2+                  3+F.*.T , 4+5+    ",
"    6+7+8+!.| 9 9+0+a+          b+c+d+0 K  +e+f+      ",
"      g+{+h._ /.!.e+h+i+j+k+l+m+n+o+&.E O ]+p+q+      ",
"        r+s+t+9 9  +0 f u+v+w+x+> : : y+z+A+B+        ",
"          C+D+E+F+t G+O T } 0 _ H+: I+J+K+            ",
"              L+|.M+N+O+P+Q+Q+R+S+T+U+                ",
"                                                      ",
"                                                      "};
