/* XPM */
static char * n9_xpm[] = {
"27 34 249 2",
"  	c #123123",
". 	c #D9BE27",
"+ 	c #DBBD1F",
"@ 	c #DBBE24",
"# 	c #DCBE20",
"$ 	c #DABE1C",
"% 	c #C8BF7E",
"& 	c #E7D992",
"* 	c #D1BF51",
"= 	c #D9B807",
"- 	c #D7BE19",
"; 	c #DFC21E",
"> 	c #DEC32E",
", 	c #DCC333",
"' 	c #DBC12E",
") 	c #DBC231",
"! 	c #D9C32F",
"~ 	c #E1C11E",
"{ 	c #DDBE16",
"] 	c #DCB907",
"^ 	c #CDBA41",
"/ 	c #E3D688",
"( 	c #D6C667",
"_ 	c #D8BA0A",
": 	c #DEC11F",
"< 	c #DBC232",
"[ 	c #DCC22F",
"} 	c #DDC12F",
"| 	c #DCC231",
"1 	c #DBC32F",
"2 	c #DCC132",
"3 	c #DCC223",
"4 	c #D8B907",
"5 	c #D5BF4F",
"6 	c #CFBD57",
"7 	c #D9BE17",
"8 	c #DCC22D",
"9 	c #DBC32D",
"0 	c #DEC232",
"a 	c #DCC01F",
"b 	c #D9BC1A",
"c 	c #D8BC1D",
"d 	c #D8BC1B",
"e 	c #DFC226",
"f 	c #DDC32E",
"g 	c #DABD19",
"h 	c #CFBA43",
"i 	c #D2BF58",
"j 	c #DBC116",
"k 	c #DDC22D",
"l 	c #D4BA1B",
"m 	c #D5C24C",
"n 	c #E1D05C",
"o 	c #E4D05D",
"p 	c #E6CF5D",
"q 	c #DDC757",
"r 	c #D0B939",
"s 	c #DEC221",
"t 	c #DFBF1C",
"u 	c #D0BA42",
"v 	c #DABC06",
"w 	c #D7BB12",
"x 	c #E7D16C",
"y 	c #CCB952",
"z 	c #E0C321",
"A 	c #D9BE0F",
"B 	c #DACA6A",
"C 	c #CAB538",
"D 	c #DDC328",
"E 	c #E0C22E",
"F 	c #DCBD17",
"G 	c #EAD874",
"H 	c #CEB849",
"I 	c #DCC329",
"J 	c #DCC42E",
"K 	c #DFC42F",
"L 	c #CEB324",
"M 	c #DEBE0B",
"N 	c #DDC332",
"O 	c #DDC330",
"P 	c #C6B857",
"Q 	c #DBBF15",
"R 	c #DDC131",
"S 	c #E3C310",
"T 	c #CABD6F",
"U 	c #DEC31E",
"V 	c #DCC430",
"W 	c #DCBD14",
"X 	c #D8CC90",
"Y 	c #D7BB1A",
"Z 	c #D5B81F",
"` 	c #D7BE23",
" .	c #DEC230",
"..	c #DBC130",
"+.	c #D8B910",
"@.	c #CAB44F",
"#.	c #DFC321",
"$.	c #DABE15",
"%.	c #D9BF24",
"&.	c #DCC332",
"*.	c #D5B90F",
"=.	c #C9B552",
"-.	c #DFC41F",
";.	c #DCC11A",
">.	c #DEBE15",
",.	c #D8C01E",
"'.	c #D9BA11",
").	c #E5D892",
"!.	c #D6BA1B",
"~.	c #DCC12A",
"{.	c #C7BC7C",
"].	c #E1C121",
"^.	c #E0C118",
"/.	c #C9BC6E",
"(.	c #DBBC13",
"_.	c #DBC12C",
":.	c #DFC12D",
"<.	c #DDBE15",
"[.	c #DDC219",
"}.	c #DCC32B",
"|.	c #D4BB20",
"1.	c #C6BB79",
"2.	c #DCB905",
"3.	c #DAC433",
"4.	c #DCBC1C",
"5.	c #D3C886",
"6.	c #DEC022",
"7.	c #DFC21C",
"8.	c #DBC243",
"9.	c #DEBF17",
"0.	c #D4BA1D",
"a.	c #DDCC72",
"b.	c #EFE188",
"c.	c #CBBA68",
"d.	c #DBBF20",
"e.	c #DAC22C",
"f.	c #DEC31C",
"g.	c #CDB93E",
"h.	c #DEC11D",
"i.	c #DCC12C",
"j.	c #DDBF13",
"k.	c #D2B71E",
"l.	c #C5B464",
"m.	c #D2B92B",
"n.	c #DBB806",
"o.	c #DFC319",
"p.	c #DFC031",
"q.	c #DDC01C",
"r.	c #CBB840",
"s.	c #DCC328",
"t.	c #DAC130",
"u.	c #DDC22B",
"v.	c #E2C31A",
"w.	c #DCC227",
"x.	c #D8C22E",
"y.	c #DAC023",
"z.	c #DDC42C",
"A.	c #DEBE13",
"B.	c #DEBD16",
"C.	c #D3C45F",
"D.	c #D2B825",
"E.	c #DCBC0F",
"F.	c #DEC127",
"G.	c #DCC118",
"H.	c #D6BA19",
"I.	c #D9C353",
"J.	c #E1CC4D",
"K.	c #DAC22E",
"L.	c #E0C132",
"M.	c #DEC32A",
"N.	c #D1B726",
"O.	c #DED077",
"P.	c #CFB932",
"Q.	c #D5BB06",
"R.	c #D8BA0E",
"S.	c #D9B811",
"T.	c #D4B711",
"U.	c #D9BA07",
"V.	c #CAB43A",
"W.	c #CFBE6E",
"X.	c #E9D781",
"Y.	c #DBB812",
"Z.	c #E1C219",
"`.	c #D2B928",
" +	c #D4C453",
".+	c #DBC122",
"++	c #D9C332",
"@+	c #DBBB08",
"#+	c #E6D88F",
"$+	c #DBBD11",
"%+	c #D0BB48",
"&+	c #D6BF3F",
"*+	c #D8BA0C",
"=+	c #E3D992",
"-+	c #D5C237",
";+	c #DCBF23",
">+	c #DABE14",
",+	c #D5C671",
"'+	c #D7C88D",
")+	c #CFB733",
"!+	c #DFC322",
"~+	c #DEC02C",
"{+	c #D1C06E",
"]+	c #E8D988",
"^+	c #D6C776",
"/+	c #CFB53C",
"(+	c #DEC00A",
"_+	c #DDC42A",
":+	c #DBC22A",
"<+	c #DBC01B",
"[+	c #D2C274",
"}+	c #EADA83",
"|+	c #E6D15C",
"1+	c #E1CB5B",
"2+	c #D4C04D",
"3+	c #CFB848",
"4+	c #D4B817",
"5+	c #DCC112",
"6+	c #D9C331",
"7+	c #DCC225",
"8+	c #D8BF27",
"9+	c #DDBC23",
"0+	c #DBCF85",
"a+	c #E2CC52",
"b+	c #D6B707",
"c+	c #DCBB1E",
"d+	c #D6BC1D",
"e+	c #DEC020",
"f+	c #DFC220",
"g+	c #DDC122",
"h+	c #DABA17",
"i+	c #D5BA2D",
"j+	c #CFBE64",
"k+	c #E4D060",
"l+	c #D9BB1B",
"m+	c #D9BC09",
"n+	c #CFBA3B",
"o+	c #DDCE73",
"p+	c #E6CF4F",
"q+	c #DBB804",
"r+	c #DCBF19",
"s+	c #DBBF16",
"t+	c #DABB13",
"u+	c #D4BC14",
"v+	c #D9BA12",
"w+	c #D5B81E",
"x+	c #C8BC72",
"y+	c #D6CB7C",
"z+	c #EAD882",
"                                                      ",
"                                                      ",
"                      . + @ # $ %                     ",
"            & * = - ; > , ' ) ! ~ { ] ^ /             ",
"          ( _ : < [ } ) ' } | } 1 1 2 3 4 5           ",
"        6 7 8 | } 9 0 a b c d # e ' | 9 f g h         ",
"      i j k | 8 8 f l m n o p q r s [ [ | [ t u       ",
"      v | } 1 [ , w x             y z 2 8 1 } A B     ",
"    C D E 1 9 0 F G                 H I } J 8 K L     ",
"    M < [ N O : P                     Q [ | N R S T   ",
"    U V f ' | W X                     Y 8 R } ! f Z   ",
"  ` 9 [ |  ...+.                      @.#.R 9 8 ) $.Q ",
"  %.[ ' k 1 &.*.                      =.-.| ) } } ;.>.",
"  ,.) ) ) [ [ '.).                    !.~.[ | O [ ; W ",
"  {.].N | 8 < ^./.                    (._.) O :.1 s <.",
"    [.' }.) } 8 |.                  1.;  .' [ 1 [ e <.",
"    2.3.[ < k [ k 4.              5.6.N k | ' ! | 7.{ ",
"    8.9.| | [ < 1 V 0.a.      b.c.d.| V e.| } [ [ f.<.",
"      g.h.k i.1 [ k 1 j.k.l.m.n.o.[ [ [ | 1 p.9 8 q.j.",
"        r.{ s.| N [ 9 t.u.v.w.| x.a y.) 1 | z.[ ) A.B.",
"          C.D.E.F.R R [ } 1 #.G.H.I.J.~.[ | K.L.M.N.  ",
"              O.P.Q.R.S.T.U.V.W.X.    Y.} [ f [ Z.`.  ",
"                                     +.+++k 8 2 @+#+  ",
"                                    $+, [ 1 | q.%+    ",
"                                  &+_.} 1 | i.*+=+    ",
"                                -+;+J [ | I >+,+      ",
"                            '+)+!+[ ~+| ) F {+        ",
"                      ]+^+/+(+_+| [ V :+<+[+          ",
"        }+J.n |+1+2+3+4+5+!+| } 6+7+8+9+0+            ",
"        a+b+d c+d+e+f+8 ) k | g+h+i+j+                ",
"        k+l+O R } [ z.f ^.W m+n+o+                    ",
"        p+q+r+s+t+u+v+w+x+y+z+                        ",
"                                                      ",
"                                                      "};
