/* XPM */
static char * NoBorder_xpm[] = {
"20 20 31 1",
" 	c #605B31",
".	c #625C2C",
"+	c #625A2B",
"@	c #635B2D",
"#	c #615A2C",
"$	c #625A2C",
"%	c #625B2D",
"&	c #605C2F",
"*	c #726932",
"=	c #736934",
"-	c #726833",
";	c #726835",
">	c #706935",
",	c #736936",
"'	c #615B2B",
")	c #736733",
"!	c #736735",
"~	c #746834",
"{	c #635B2C",
"]	c #716734",
"^	c #6D6330",
"/	c #706933",
"(	c #716732",
"_	c #726636",
":	c #726634",
"<	c #726632",
"[	c #706633",
"}	c #6B6332",
"|	c #625B2F",
"1	c #615A2E",
"2	c #706837",
" .+@#@@$%%%%%%%%%.+&",
".*=--;---------->;,'",
"+=);=!~-----------){",
"@-;;-]=;--------;^,#",
"#-=-----))))))))---%",
"@;!]-,-;!!!!!!!!--;%",
"@-~=-------------;!%",
"$--;-;-;;;;;;;;;---.",
"%---)!-;--------;--%",
"%---)!-;--------;--%",
"%---)!-;--------;--%",
"%---)!-;--------;--%",
"%---)!-;--------;--%",
"%---)!-;--------;--%",
"%---)!-;--------;--%",
"%---)!-;--------;--%",
"%/(_:((<-((((]];][-%",
"@>-~-(,!-----;---}).",
"%{;(-/*-;,;;;=)~-!.%",
".|{{1|@@%#%%%.{2%%%@"};
