/* XPM */
static char * pontosNumber_xpm[] = {
"27 34 25 1",
" 	c #123123",
".	c #D4B819",
"+	c #D1B71A",
"@	c #D3B61C",
"#	c #DDC00A",
"$	c #DFBF0C",
"%	c #E0BD0B",
"&	c #D3B718",
"*	c #DEBD0C",
"=	c #DAC430",
"-	c #D3B81F",
";	c #DEBE0B",
">	c #D2B81B",
",	c #D3B61A",
"'	c #CFB61B",
")	c #E1BD0D",
"!	c #DBBE0A",
"~	c #DDBE0C",
"{	c #D4B71D",
"]	c #D2B81D",
"^	c #DDBD08",
"/	c #DBC232",
"(	c #DDBF09",
"_	c #D4B71E",
":	c #D4B71B",
"                           ",
"                           ",
"                           ",
"                           ",
"                           ",
"                           ",
"                           ",
"                           ",
"            .+.            ",
"           @#$%.           ",
"           &*=$+           ",
"           -;*#.           ",
"            -&@            ",
"                           ",
"                           ",
"                           ",
"                           ",
"                           ",
"                           ",
"                           ",
"            +>,            ",
"           ')!~{           ",
"           ]^/(]           ",
"           .~~;.           ",
"            _:,            ",
"                           ",
"                           ",
"                           ",
"                           ",
"                           ",
"                           ",
"                           ",
"                           ",
"                           "};
