/* XPM */
static char * redleverleft_xpm[] = {
"20 20 32 1",
" 	c #123123",
".	c #DB4543",
"+	c #C96161",
"@	c #E57878",
"#	c #A92522",
"$	c #CC5958",
"%	c #A77675",
"&	c #796057",
"*	c #000000",
"=	c #837875",
"-	c #785F56",
";	c #7D6760",
">	c #7A6A64",
",	c #7F6A63",
"'	c #837571",
")	c #857571",
"!	c #49606B",
"~	c #526C78",
"{	c #8C9CA5",
"]	c #B0BDC5",
"^	c #96A6AF",
"/	c #597480",
"(	c #5A737F",
"_	c #81939C",
":	c #556F7B",
"<	c #57727E",
"[	c #4B646E",
"}	c #526B77",
"|	c #5A7380",
"1	c #997020",
"2	c #9D7829",
"3	c #A27E31",
"                    ",
"                    ",
"                    ",
"   ..               ",
"  ..+.              ",
"  ..@#              ",
"  .$.%              ",
"   ..&*             ",
"     =-             ",
"     -;*            ",
"      >-            ",
"      -,-           ",
"      *'-           ",
"       --*          ",
"       *)-          ",
"    ***********     ",
"    *!~!{]^!~~**    ",
"   **/~(!_!(~:<**   ",
"  **[}(~~~~~|~[!**  ",
"  1233333333333311  "};
