/* XPM */
static char * retryLevel_xpm[] = {
"50 50 164 2",
"  	c #123123",
". 	c #000201",
"+ 	c #030000",
"@ 	c #000100",
"# 	c #010002",
"$ 	c #010000",
"% 	c #000004",
"& 	c #000000",
"* 	c #020100",
"= 	c #000002",
"- 	c #010103",
"; 	c #030002",
"> 	c #E2C738",
", 	c #DFC937",
"' 	c #E2C939",
") 	c #DEC834",
"! 	c #E1C837",
"~ 	c #E3C839",
"{ 	c #DEC837",
"] 	c #E2C837",
"^ 	c #E2C938",
"/ 	c #010101",
"( 	c #D9C331",
"_ 	c #DCC231",
": 	c #DBC32F",
"< 	c #DCC42E",
"[ 	c #DBC12E",
"} 	c #DBC231",
"| 	c #DAC130",
"1 	c #DCC132",
"2 	c #DDC12F",
"3 	c #DCC22F",
"4 	c #DBC232",
"5 	c #E2C73A",
"6 	c #E1C736",
"7 	c #DDC330",
"8 	c #D8C231",
"9 	c #DCC332",
"0 	c #DAC22E",
"a 	c #DDC332",
"b 	c #DCC030",
"c 	c #DCC430",
"d 	c #D8C230",
"e 	c #E1C838",
"f 	c #000200",
"g 	c #DCC333",
"h 	c #DBC031",
"i 	c #D8C431",
"j 	c #DBC130",
"k 	c #DFC938",
"l 	c #E0C736",
"m 	c #000103",
"n 	c #EAD03D",
"o 	c #E9D03F",
"p 	c #D9C32F",
"q 	c #D9C332",
"r 	c #DBC32D",
"s 	c #E3C936",
"t 	c #E9D13D",
"u 	c #DDC034",
"v 	c #DFC032",
"w 	c #D8C22E",
"x 	c #DCC02E",
"y 	c #DAC432",
"z 	c #020001",
"A 	c #DAC131",
"B 	c #DAC433",
"C 	c #DDC22D",
"D 	c #DDC131",
"E 	c #E3C735",
"F 	c #EAD03F",
"G 	c #DBC32B",
"H 	c #D9C234",
"I 	c #D9C42D",
"J 	c #010100",
"K 	c #E2C835",
"L 	c #E0C739",
"M 	c #DBC12C",
"N 	c #DDC132",
"O 	c #DCC12C",
"P 	c #020003",
"Q 	c #D9C00B",
"R 	c #C9AF1A",
"S 	c #DDBE0B",
"T 	c #DFBE0D",
"U 	c #DEBE09",
"V 	c #DEBE0B",
"W 	c #DEBD0C",
"X 	c #DBBE0A",
"Y 	c #D9C532",
"Z 	c #CCAE1A",
"` 	c #C7AF19",
" .	c #C9B11D",
"..	c #C8AF1E",
"+.	c #CAB01D",
"@.	c #C9AE1F",
"#.	c #CBAC1D",
"$.	c #C9B119",
"%.	c #C8AD1E",
"&.	c #CAAF1A",
"*.	c #CAAE1F",
"=.	c #C9AF1E",
"-.	c #DDBE0C",
";.	c #E0BD0B",
">.	c #DCC134",
",.	c #DDBD08",
"'.	c #DCC22D",
").	c #DDBF09",
"!.	c #DFBF0A",
"~.	c #DDBD0A",
"{.	c #EBCF3D",
"].	c #EACF40",
"^.	c #E1C935",
"/.	c #DCC031",
"(.	c #DDC233",
"_.	c #D4BD2F",
":.	c #DEBF0D",
"<.	c #D4BD31",
"[.	c #E1BD0D",
"}.	c #D8C32C",
"|.	c #D2BC32",
"1.	c #DAC22C",
"2.	c #D7BE30",
"3.	c #DDBC0B",
"4.	c #DEBF0C",
"5.	c #DAC52E",
"6.	c #D3B718",
"7.	c #DBBE0B",
"8.	c #C8AE1D",
"9.	c #D5B81C",
"0.	c #DCBF0B",
"a.	c #C9AF1C",
"b.	c #D3B61D",
"c.	c #D1B71A",
"d.	c #E1BE0A",
"e.	c #000102",
"f.	c #D4B71D",
"g.	c #D2B81B",
"h.	c #D1B71C",
"i.	c #DDBF07",
"j.	c #CAAE1C",
"k.	c #D3B61A",
"l.	c #DFBE0F",
"m.	c #C8B01C",
"n.	c #D5B719",
"o.	c #D4B71B",
"p.	c #DAC430",
"q.	c #C9B01F",
"r.	c #D1B61D",
"s.	c #D0B81A",
"t.	c #DCBD0B",
"u.	c #DBC234",
"v.	c #DCC335",
"w.	c #DDC00C",
"x.	c #CAAF18",
"y.	c #D4B51D",
"z.	c #D4B819",
"A.	c #D4B51C",
"B.	c #D1B81D",
"C.	c #DFBF0C",
"D.	c #E0BC0C",
"E.	c #D4B61A",
"F.	c #D1B91B",
"G.	c #DDC00D",
"                                      . + @ # $ % & * & = $ $                                       ",
"                                = - ; > , ' ) ! , ~ { ] ^ , ! & = /                                 ",
"                          & @ $ ( _ : _ < [ } | 1 2 } 3 | 4 3 5 ] 6 $ &                             ",
"                        & 7 _ : 3 8 9 } 0 a b : : : : c _ a 0 : 3 d e ] f $                   @ &   ",
"                    & $ 7 8 } } 4 3 : } g h 9 | 4 1 i b _ [ 4 : j _ [ | k l m &           & + n o & ",
"                  - : : } p | _ _ 3 q _ j } } _ r [ j c : : h } q p j 7 | _ ! s +       @ e 5 ! t & ",
"                $ 3 u 1 _ v w 4 } x d 1 _ y & $ & & z $ A B C } _ 3 q | } : D ! e @   @ E { } l F & ",
"              & h 3 } G H [ I _ 4 } . $ & =             & = J = : _ } 3 A 2 q 4 : ] & K L } 3 3 ! & ",
"            z ( } 4 } } } 3 : 3 & &                             / = [ : } } } 4 } } ! ! } } } } ! & ",
"          $ j 2 4 M : } _ 3 1 f                                     & } _ : 7 p } | 9 } | } } } ! & ",
"        - | _ } } : N 0 4 J =                                         - & g } 3 } } | | } } | } | & ",
"        = _ : d } } 0 [ .                                                 @ _ 1 } } } } | | } } } & ",
"      & _ h 0 C } _ 4 .                                                   @ _ _ } } } } | | } } | & ",
"    & : N 3 H : 3 3 J                                                 / & A } : | } } } } } } } } & ",
"    & : | O } u : 1 =                                               P [ 3 9 1 4 } } } | } } | } | & ",
"  % 3 1 } p : : 3 f                                               & Q _ 3 } | _ } } } } } } } } } & ",
"  % } | x q 0 2 &                                               $ R S T U T V U W X 2 p 7 _ 4 : _ & ",
"  $ x 3 3 h | Y &                                               = R Z `  ...+.@.#.$.S } j 9 ( C 4 & ",
"= V 3 p 3 } 9 x &                                                 = = P @ / & / . & %.&.*.=.V -.V & ",
"& ;.>.} ( _ w P                                                                     / & = & = J &   ",
". ,.} h 3 } 3 &                                                                                     ",
"@ U _ 4 _ : } =                                                                                     ",
"+ V : j _ 1 =                                                                                       ",
"= T d '.q } $                                                                                       ",
"& W } 3 | } @                                                                                       ",
"& )._ [ _ | @                                                                                       ",
"@ S 1 } 3 _ @                                                                                       ",
"$ !.w | 4 j .                                                                           $ % &       ",
"@ ~._ c 3 c | =                                                                       & t {.].J     ",
"$ V : 0 4 0 } &                                                                     = | ^.] ' o &   ",
"& V | 9 | : } &                                                                     & _ j ( ^.^.&   ",
"& U } } _ [ : &                                                                     & ( : 1 _ 4 &   ",
"  + -.} 4 y /.'.$                                                                 + _ d (.j (.).&   ",
"  J _.,.3 I 4 j &                                                                 @ : 4 } : | :.&   ",
"  $ <.[.).[ } q r m                                                             & } j D }.1 : #     ",
"  & <.|.[.[ : | N w -                                                           & 1.3 [ } j U @     ",
"    @ 2.3.4.3 } } 5.&                                                         & [ q ( } _ a &       ",
"      $ 6.:.7.3 x 0 3 &                                                     $ } 2 _ | : 0 -.$       ",
"        . 8.9.).1 4 d } &                                                 $ D 3 _ d _ 2 0.=         ",
"        & a.b.c.S V _ 1 } @                                             & } 3 ( } r 1 j d.e.        ",
"          & a.f.g.W T } _ 4 & @                                     % % '.A } : '.1 3 ).=           ",
"            & a.h.g.i.U -.p _ 1 @ $                             = & p '.D 7 q : 1 } W $             ",
"              & j.f.k.l.S S _ : _ : = m $                 $ m & q 4 [ 3 } _ } D 3 W @               ",
"                f m.n.b.o.S S _ } 3 3 A p.= = = - # & @ J C 0 c j } y j 3 ( [ 0 ).$                 ",
"                  . q.r.n.s.U t.| u._ [ D _ d : i D 1.v.0 7 1 } : a 1.9 1 p W w.=                   ",
"                    & & x.g.y.z.V W } : 0 1 2 : 3 _ | | q 3 x u.j } 3 a A ).$ &                     ",
"                        @ j.=.f.A.B.k.C.-.S D.-.).D.V j 9 8 7 3 : | V W C.z                         ",
"                          & @ a.R a.f.E.c.g.F.k.S G.U ).A 3 d V U V & & @                           ",
"                              & @ & R a.a.=.a.a.a.V U -.V V S & & &                                 ",
"                                    & @ & & & & & & & & & & &                                       "};
