/* XPM */
static char * RightLeft_xpm[] = {
"20 20 86 1",
" 	c #070803",
".	c #514C26",
"+	c #625A2B",
"@	c #635B2C",
"#	c #62592E",
"$	c #625C2C",
"%	c #635B2D",
"&	c #625B2D",
"*	c #534B26",
"=	c #080703",
"-	c #040402",
";	c #443D21",
">	c #716A34",
",	c #736A33",
"'	c #736936",
")	c #6F6831",
"!	c #736934",
"~	c #706933",
"{	c #726833",
"]	c #726835",
"^	c #736733",
"/	c #423D1F",
"(	c #030301",
"_	c #060503",
":	c #4A4122",
"<	c #746834",
"[	c #726932",
"}	c #474320",
"|	c #050503",
"1	c #0C0C04",
"2	c #615A2C",
"3	c #736735",
"4	c #736832",
"5	c #736938",
"6	c #6A6231",
"7	c #0C0B06",
"8	c #120F08",
"9	c #6F6736",
"0	c #716732",
"a	c #716A36",
"b	c #726634",
"c	c #110E09",
"d	c #6C652F",
"e	c #746836",
"f	c #6B6430",
"g	c #100D06",
"h	c #0A0904",
"i	c #6B6531",
"j	c #716734",
"k	c #5C582B",
"l	c #0B0A05",
"m	c #050402",
"n	c #4E4524",
"o	c #4C4624",
"p	c #050400",
"q	c #010000",
"r	c #403D1E",
"s	c #413C1E",
"t	c #000000",
"u	c #010101",
"v	c #403B1E",
"w	c #403A20",
"x	c #413A1E",
"y	c #423B1E",
"z	c #4B4525",
"A	c #070604",
"B	c #514922",
"C	c #524A26",
"D	c #6E6637",
"E	c #5A512A",
"F	c #090804",
"G	c #706631",
"H	c #5C532A",
"I	c #090803",
"J	c #6F6532",
"K	c #726632",
"L	c #706633",
"M	c #5C552B",
"N	c #040500",
"O	c #706837",
"P	c #6D6330",
"Q	c #0C0B07",
"R	c #706935",
"S	c #443D20",
"T	c #080904",
"U	c #080702",
" .+@#$%&&&&&&&&&$&*=",
"-;>,')!~{{{{{{{{]^/(",
"_:]]!]<[{{{{{{{{{^}|",
"12'3453{{{{{{{{{!6%7",
"894^<0^'^^^^^^^^0ab8",
"cd3e]!{]33333333^{fg",
"hi{j!0,[{{{{{{{{]3kl",
"mn{'j!^]]]]]]]]]{^op",
"qr^j~^!]{{{{{{{{{^st",
"uv^'~^{]{{{{{{{{{^vt",
"tw^{]^!{{{{{{{{{{{xt",
"tv{{'{'{{{{{{{{{{{yt",
"(z]{0!]{{{{{{{{{{0z-",
"AB'0<0'!{{{{{{{{{{C|",
"=D0]^]{]{{{{{{{{^]EF",
"=G^'4]0]{{{{{{{{^]HI",
"hJ0K0K00jjjjjjjjjLMh",
"NO{{{^33{{{{{{{{{P%Q",
"|+RR~{{{{{{{{{{{{^S(",
"T@@%&%&$&&&&&&&&&&*U"};
