/* XPM */
static char * Right_xpm[] = {
"20 20 60 1",
" 	c #605B31",
".	c #625C2C",
"+	c #625A2B",
"@	c #635B2D",
"#	c #615A2C",
"$	c #625A2C",
"%	c #625B2D",
"&	c #534B26",
"*	c #080703",
"=	c #726932",
"-	c #736934",
";	c #726833",
">	c #726835",
",	c #736733",
"'	c #423D1F",
")	c #030301",
"!	c #736735",
"~	c #746834",
"{	c #474320",
"]	c #050503",
"^	c #716734",
"/	c #6A6231",
"(	c #0C0B06",
"_	c #716732",
":	c #716A36",
"<	c #726634",
"[	c #120F08",
"}	c #736936",
"|	c #6B6430",
"1	c #100D06",
"2	c #5C582B",
"3	c #0B0A05",
"4	c #4C4624",
"5	c #050400",
"6	c #413C1E",
"7	c #000000",
"8	c #403B1E",
"9	c #413A1E",
"0	c #423B1E",
"a	c #4B4525",
"b	c #040402",
"c	c #524A26",
"d	c #5A512A",
"e	c #090804",
"f	c #5C532A",
"g	c #090803",
"h	c #706933",
"i	c #726636",
"j	c #726632",
"k	c #706633",
"l	c #5C552B",
"m	c #0A0904",
"n	c #706935",
"o	c #6D6330",
"p	c #0C0B07",
"q	c #635B2C",
"r	c #443D20",
"s	c #625B2F",
"t	c #615A2E",
"u	c #080702",
" .+@#@@$%%%%%%%%.%&*",
".=-;;>;;;;;;;;;;>,')",
"+-,>-!~;;;;;;;;;;,{]",
"@;>>;^->;;;;;;;;-/@(",
"#;-;;;;;,,,,,,,,_:<[",
"@>!^;};>!!!!!!!!,;|1",
"@;~-;;;;;;;;;;;;>!23",
"$;;>;>;>>>>>>>>>;,45",
"%;;;,!;>;;;;;;;;;,67",
"%;;;,!;>;;;;;;;;;,87",
"%;;;,!;>;;;;;;;;;;97",
"%;;;,!;>;;;;;;;;;;07",
"%;;;,!;>;;;;;;;;;_ab",
"%;;;,!;>;;;;;;;;;;c]",
"%;;;,!;>;;;;;;;;,>de",
"%;;;,!;>;;;;;;;;,>fg",
"%h_i<__j^^^^^^^^^klm",
"@n;~;_}!;;;;;;;;;o@p",
"%q>_;h=;;;;;;;;;;,r)",
".sqqts@@%%%%%%%%%%&u"};
