/* XPM */
static char * Top_xpm[] = {
"20 20 66 1",
" 	c #080904",
".	c #060503",
"+	c #050400",
"@	c #0A0907",
"#	c #090803",
"$	c #090901",
"%	c #070604",
"&	c #020401",
"*	c #010000",
"=	c #000000",
"-	c #040500",
";	c #0A0B05",
">	c #0E0E06",
",	c #100F0A",
"'	c #0C0B06",
")	c #050601",
"!	c #040300",
"~	c #070705",
"{	c #635A2F",
"]	c #635B2C",
"^	c #736934",
"/	c #706633",
"(	c #706537",
"_	c #534926",
":	c #4D4425",
"<	c #413C1E",
"[	c #403B1E",
"}	c #413C1F",
"|	c #413A1D",
"1	c #4E4622",
"2	c #6C6436",
"3	c #6E6431",
"4	c #726632",
"5	c #464322",
"6	c #433E1E",
"7	c #534B26",
"8	c #625A2B",
"9	c #716A36",
"0	c #726833",
"a	c #716734",
"b	c #736733",
"c	c #726835",
"d	c #706933",
"e	c #736735",
"f	c #736936",
"g	c #716732",
"h	c #625C2C",
"i	c #726932",
"j	c #746834",
"k	c #605C2D",
"l	c #625B2D",
"m	c #6F6834",
"n	c #726634",
"o	c #736832",
"p	c #635B2D",
"q	c #726731",
"r	c #706935",
"s	c #706837",
"t	c #615A2C",
"u	c #726636",
"v	c #6D6330",
"w	c #645C2D",
"x	c #716A34",
"y	c #615B2B",
"z	c #625B2F",
"A	c #615A2E",
" .+@#$%&*===-;>,')!~",
"{]^//(_:<[}|1234{567",
"890a0bcdeb0f^g0c0bbh",
"]cig0bc0bbjb000a^aek",
"lm0accgid^gfnjoob0^l",
"p0oqibeecc^afcrs0bek",
"lceg0fgcboobb4bb000l",
"]0egi00jc00ccc0be0ct",
"l00gbe0c00000000c00l",
"l00gbe0c00000000c00l",
"l00gbe0c00000000c00l",
"l00gbe0c00000000c00l",
"l00gbe0c00000000c00l",
"l00gbe0c00000000c00l",
"l00gbe0c00000000c00l",
"l00gbe0c00000000c00l",
"ld0ue00j00^00ccc00eh",
"pr0j00ce00000c000veh",
"lwcg0xi^cfccc^4jeetl",
"yz]]zApplllllh]shhl]"};
