/* XPM */
static char * TopLeftBottom_xpm[] = {
"20 20 106 2",
"  	c #080705",
". 	c #070400",
"+ 	c #050304",
"@ 	c #0A0904",
"# 	c #070705",
"$ 	c #080904",
"% 	c #060503",
"& 	c #030301",
"* 	c #010000",
"= 	c #000000",
"- 	c #040500",
"; 	c #0A0B05",
"> 	c #0E0E06",
", 	c #100F0A",
"' 	c #0C0B06",
") 	c #050601",
"! 	c #040300",
"~ 	c #030102",
"{ 	c #433E20",
"] 	c #6F6935",
"^ 	c #6F6532",
"/ 	c #706633",
"( 	c #6E6733",
"_ 	c #534926",
": 	c #4B4523",
"< 	c #413C1E",
"[ 	c #403B1E",
"} 	c #413C1F",
"| 	c #413A1D",
"1 	c #4E4622",
"2 	c #6C6436",
"3 	c #6E6431",
"4 	c #726632",
"5 	c #635A2F",
"6 	c #464322",
"7 	c #433E1E",
"8 	c #534B26",
"9 	c #484421",
"0 	c #726833",
"a 	c #746733",
"b 	c #746834",
"c 	c #726835",
"d 	c #736735",
"e 	c #736733",
"f 	c #736936",
"g 	c #736934",
"h 	c #716732",
"i 	c #625C2C",
"j 	c #0E0B06",
"k 	c #625A2C",
"l 	c #726930",
"m 	c #706933",
"n 	c #716734",
"o 	c #605C2D",
"p 	c #110E07",
"q 	c #746732",
"r 	c #726932",
"s 	c #726634",
"t 	c #736832",
"u 	c #625B2D",
"v 	c #0F0F07",
"w 	c #6C6531",
"x 	c #726837",
"y 	c #706935",
"z 	c #706837",
"A 	c #0A0905",
"B 	c #6D6330",
"C 	c #6F6834",
"D 	c #726731",
"E 	c #746838",
"F 	c #4F4522",
"G 	c #6F6832",
"H 	c #615A2C",
"I 	c #403D1E",
"J 	c #010101",
"K 	c #403A20",
"L 	c #4B4525",
"M 	c #070604",
"N 	c #514922",
"O 	c #706631",
"P 	c #080703",
"Q 	c #6E6637",
"R 	c #040402",
"S 	c #6E6232",
"T 	c #6D6332",
"U 	c #64592C",
"V 	c #5D542B",
"W 	c #5B542A",
"X 	c #585127",
"Y 	c #524928",
"Z 	c #4A4620",
"` 	c #403B1D",
" .	c #423C1C",
"..	c #60572C",
"+.	c #635B2D",
"@.	c #474222",
"#.	c #433C1F",
"$.	c #514C26",
"%.	c #0B0706",
"&.	c #040301",
"*.	c #090803",
"=.	c #090804",
"-.	c #050503",
";.	c #000002",
">.	c #0B0A05",
",.	c #120F08",
"  . + @ # $ % & * = = = - ; > , ' ) ! # ",
"~ { ] ^ / ( _ : < [ } | 1 2 3 4 5 6 7 8 ",
"- 9 0 a b c d 0 d e 0 f g h 0 c 0 e e i ",
"j k f h l m b d e e b e 0 0 0 n g n d o ",
"p n q 4 0 m h r m g h f s b t t e 0 g u ",
"v w e h x x 0 n c c g n f c y z 0 e d o ",
"A B e C b D D E e t t e e 4 e e 0 0 0 u ",
"& F h y e e f G c 0 0 c c c 0 e d 0 c H ",
"* I e n m e g c 0 0 0 0 0 0 0 0 c 0 0 u ",
"J [ e c m e h c 0 0 0 0 0 0 0 0 c 0 0 u ",
"= K e h c e g 0 0 0 0 0 0 0 0 0 c 0 0 u ",
"= [ 0 h f 0 f 0 0 0 0 0 0 0 0 0 c 0 0 u ",
"& L c h h g c 0 0 0 0 0 0 0 0 0 c 0 0 u ",
"M N f O b 0 c 0 0 0 0 0 0 0 0 0 c 0 0 u ",
"P Q h n e c 0 c 0 0 0 0 0 0 0 0 c 0 0 u ",
"P O e c t c h c 0 0 0 0 0 0 0 0 c 0 0 u ",
"@ ^ c h e 0 e c d e 0 c 0 0 0 c e c 0 u ",
"R c S O c 0 e 0 0 0 c c c 0 0 e T c 0 u ",
"- o U V W X Y Z ` < `  .1 ..T h +.@.#.$.",
"%.&.' @ *.=.-.&.;.= = = R >.> ,.j ) &.P "};
