/* XPM */
static char * TopRight_xpm[] = {
"20 20 86 1",
" 	c #080904",
".	c #060503",
"+	c #050400",
"@	c #0A0907",
"#	c #090803",
"$	c #090901",
"%	c #070604",
"&	c #020401",
"*	c #010000",
"=	c #000000",
"-	c #040500",
";	c #0A0B05",
">	c #0E0E06",
",	c #100F0A",
"'	c #0C0B07",
")	c #050503",
"!	c #050402",
"~	c #080702",
"{	c #635A2F",
"]	c #635B2C",
"^	c #736934",
"/	c #706633",
"(	c #706537",
"_	c #534926",
":	c #4D4425",
"<	c #413C1E",
"[	c #403B1E",
"}	c #413C1F",
"|	c #413A1D",
"1	c #4E4622",
"2	c #6C6436",
"3	c #6E6431",
"4	c #726632",
"5	c #655A2C",
"6	c #474222",
"7	c #443D20",
"8	c #040203",
"9	c #625A2B",
"0	c #716A36",
"a	c #726833",
"b	c #716734",
"c	c #736733",
"d	c #726835",
"e	c #706933",
"f	c #736735",
"g	c #736936",
"h	c #716732",
"i	c #474320",
"j	c #050505",
"k	c #726932",
"l	c #746834",
"m	c #0C0B06",
"n	c #625B2D",
"o	c #6F6834",
"p	c #726634",
"q	c #736832",
"r	c #120F08",
"s	c #635B2D",
"t	c #726731",
"u	c #706935",
"v	c #706837",
"w	c #6A632F",
"x	c #110E07",
"y	c #62572A",
"z	c #0A0B06",
"A	c #4E4524",
"B	c #040402",
"C	c #413A1E",
"D	c #423B1E",
"E	c #4B4525",
"F	c #524A26",
"G	c #5A512A",
"H	c #090804",
"I	c #5C532A",
"J	c #726636",
"K	c #5C552B",
"L	c #6D6330",
"M	c #645C2D",
"N	c #716A34",
"O	c #030301",
"P	c #615B2B",
"Q	c #625B2F",
"R	c #615A2E",
"S	c #625C2C",
"T	c #534B26",
"U	c #080703",
" .+@#$%&*===-;>,')!~",
"{]^//(_:<[}|12345678",
"90abacdefcag^hadfeij",
"]dkhacdacclcaaabca]m",
"noabddhke^hgplqqadpr",
"saqtkcffdd^bgduvucwx",
"ndfhaghdcqqcc4ccqdyz",
"]afhkaaldaadddacadAB",
"naahcfadaaaaaaaaac<=",
"naahcfadaaaaaaaaac[=",
"naahcfadaaaaaaaaaaC=",
"naahcfadaaaaaaaaaaD=",
"naahcfadaaaaaaaaahEB",
"naahcfadaaaaaaaaaaF)",
"naahcfadaaaaaaaacdGH",
"naahcfadaaaaaaaacdI#",
"neaJfaalaa^aadddadKH",
"sualaadfaaaaadaadLsm",
"nMdhaNk^dgddd^4lac7O",
"PQ]]QRssnnnnnS]vSnTU"};
