/* XPM */
static char * TopRightBottom_xpm[] = {
"20 20 113 2",
"  	c #121814",
". 	c #0A0C0B",
"+ 	c #0C0E0D",
"@ 	c #141710",
"# 	c #191A12",
"$ 	c #171813",
"% 	c #131510",
"& 	c #060A0B",
"* 	c #070B0C",
"= 	c #090A0C",
"- 	c #08090B",
"; 	c #0B0D0C",
"> 	c #0E100D",
", 	c #11110F",
"' 	c #12130E",
") 	c #12140F",
"! 	c #151610",
"~ 	c #0C0C0C",
"{ 	c #131716",
"] 	c #514E2D",
"^ 	c #433D1D",
"/ 	c #4A4122",
"( 	c #5F582E",
"_ 	c #6C6531",
": 	c #69622E",
"< 	c #5C5527",
"[ 	c #4D4521",
"} 	c #413C1F",
"| 	c #403B1E",
"1 	c #3F3A1C",
"2 	c #413B1B",
"3 	c #494321",
"4 	c #504B25",
"5 	c #555028",
"6 	c #575228",
"7 	c #585329",
"8 	c #615629",
"9 	c #5D562A",
"0 	c #0B100C",
"a 	c #646031",
"b 	c #6F6834",
"c 	c #716734",
"d 	c #6E6431",
"e 	c #736733",
"f 	c #746834",
"g 	c #726833",
"h 	c #726835",
"i 	c #716732",
"j 	c #716533",
"k 	c #726634",
"l 	c #736735",
"m 	c #716736",
"n 	c #6F6331",
"o 	c #636033",
"p 	c #6F6832",
"q 	c #716A33",
"r 	c #706933",
"s 	c #736936",
"t 	c #716A34",
"u 	c #6A6231",
"v 	c #14130F",
"w 	c #645F37",
"x 	c #726632",
"y 	c #746836",
"z 	c #736934",
"A 	c #756935",
"B 	c #6C622F",
"C 	c #11130E",
"D 	c #646033",
"E 	c #6F6831",
"F 	c #736832",
"G 	c #746933",
"H 	c #10150F",
"I 	c #645F35",
"J 	c #716831",
"K 	c #514925",
"L 	c #0F100B",
"M 	c #4A4422",
"N 	c #403B1D",
"O 	c #413A1E",
"P 	c #060A09",
"Q 	c #0C0E0B",
"R 	c #665F31",
"S 	c #141510",
"T 	c #171812",
"U 	c #736A33",
"V 	c #6C6433",
"W 	c #191813",
"X 	c #656036",
"Y 	c #706935",
"Z 	c #60582A",
"` 	c #151611",
" .	c #726932",
"..	c #474320",
"+.	c #524E2B",
"@.	c #433C1F",
"#.	c #5F582C",
"$.	c #6E6433",
"%.	c #695E30",
"&.	c #4E4622",
"*.	c #484421",
"=.	c #524A23",
"-.	c #6A6234",
";.	c #6D6131",
">.	c #6C6231",
",.	c #6E6230",
"'.	c #0D0F0E",
").	c #161711",
"!.	c #14150F",
"~.	c #0A0F0B",
"{.	c #080A09",
"].	c #13160F",
"^.	c #101614",
"  . + @ # $ % + & * = - ; > , ' ) ! ~ { ",
"] ^ / ( _ : < [ } | 1 2 3 4 5 6 7 8 9 0 ",
"a b c d e f g h i i i j k k l l m n _ > ",
"o p q r s h r c h h s h g g g g k t u v ",
"w h e h e x g y g g g g z g g g x A B C ",
"D E g h s h z F e e e g g g g h c G u H ",
"I g l h e g g e g g g g g s h c J h K L ",
"I g e g g h h e h h h h i g g g c c M ~ ",
"D h e g g l g g g g g g g g g g i x 1 & ",
"D h e g g l g g g g g g g g g g i k N * ",
"D h e g g l g g g g g g g g g g i l | & ",
"D h e g g l g g g g g g g g g g c i O P ",
"D h e g g l g g g g g g g g g g g c [ Q ",
"D h e g g l g g g g g g g g g g J s R S ",
"D h e g g l g g g g g g g g g g i g : T ",
"D h e g g l g g g g g g g g g g m U V W ",
"X h g e g g g Y h g z g h h h g i g Z ` ",
"o p i f  .h l k i i i i h x f f e h ..Q ",
"+.@...#.$.B %.&.O | | N *.=.-.;.>.,.N + ",
"  . '.! # ).!.~.& & - {.+ > C H ].> ~ ^."};
