/* XPM */
static char * watergirl_xpm[] = {
"40 60 660 2",
"  	c #123123",
". 	c #010101",
"+ 	c #010100",
"@ 	c #000100",
"# 	c #000201",
"$ 	c #000000",
"% 	c #010103",
"& 	c #020100",
"* 	c #54A4C7",
"= 	c #79D5FA",
"- 	c #89D7FB",
"; 	c #8BD7F9",
"> 	c #8BDCFA",
", 	c #79C0DE",
"' 	c #4D7A8F",
") 	c #000103",
"! 	c #5B9CB8",
"~ 	c #89E9FF",
"{ 	c #83DDFF",
"] 	c #82DAFF",
"^ 	c #81DFFF",
"/ 	c #81D9FF",
"( 	c #83DCFE",
"_ 	c #85E3FD",
": 	c #61A2C2",
"< 	c #2B586F",
"[ 	c #285B70",
"} 	c #5BB4DE",
"| 	c #4796B7",
"1 	c #66D1FD",
"2 	c #6CD6FF",
"3 	c #53B5DA",
"4 	c #264B5D",
"5 	c #4C9FBF",
"6 	c #68D7FF",
"7 	c #6BD8FF",
"8 	c #4B92B2",
"9 	c #2A9ED1",
"0 	c #2A9CCE",
"a 	c #204D60",
"b 	c #193541",
"c 	c #4FC5F7",
"d 	c #42C8FD",
"e 	c #215062",
"f 	c #01090B",
"g 	c #4CA5D1",
"h 	c #60D5FF",
"i 	c #5DD1FF",
"j 	c #5DD4FF",
"k 	c #235369",
"l 	c #04A5EB",
"m 	c #07A5EC",
"n 	c #013147",
"o 	c #0E2533",
"p 	c #34BCF8",
"q 	c #1EA0DC",
"r 	c #000D15",
"s 	c #043C53",
"t 	c #15B9FF",
"u 	c #19C2FD",
"v 	c #15BDFC",
"w 	c #1CC4FF",
"x 	c #0B6692",
"y 	c #0084C2",
"z 	c #0086C0",
"A 	c #00354D",
"B 	c #050D0F",
"C 	c #4BA3CB",
"D 	c #4692B2",
"E 	c #030406",
"F 	c #004F70",
"G 	c #0088BE",
"H 	c #0072A8",
"I 	c #015378",
"J 	c #015176",
"K 	c #012235",
"L 	c #030000",
"M 	c #000D10",
"N 	c #010A13",
"O 	c #020106",
"P 	c #1D3138",
"Q 	c #355C6D",
"R 	c #04080B",
"S 	c #000D12",
"T 	c #000207",
"U 	c #060604",
"V 	c #020403",
"W 	c #010609",
"X 	c #000002",
"Y 	c #05506F",
"Z 	c #125B7B",
"` 	c #245C73",
" .	c #245E76",
"..	c #225E78",
"+.	c #032D43",
"@.	c #030104",
"#.	c #0E1316",
"$.	c #324D56",
"%.	c #50798B",
"&.	c #5596B4",
"*.	c #4092B7",
"=.	c #1685B3",
"-.	c #0180B5",
";.	c #007CB0",
">.	c #005F87",
",.	c #010000",
"'.	c #010002",
").	c #055070",
"!.	c #105A75",
"~.	c #032D3D",
"{.	c #000106",
"].	c #040406",
"^.	c #0C1416",
"/.	c #314D59",
"(.	c #4F7D8C",
"_.	c #5496B0",
":.	c #4093B5",
"<.	c #1886B7",
"[.	c #017CB5",
"}.	c #005C87",
"|.	c #020003",
"1.	c #1BA6DF",
"2.	c #50CEFF",
"3.	c #6DDEFC",
"4.	c #6BDDFF",
"5.	c #6ADCFF",
"6.	c #61DCFE",
"7.	c #34B2ED",
"8.	c #02435F",
"9.	c #0A1415",
"0.	c #629CB4",
"a.	c #8CDCFD",
"b.	c #8EE5FF",
"c.	c #70DBFB",
"d.	c #5AD5FF",
"e.	c #15BFFD",
"f.	c #00BAFA",
"g.	c #00BBFE",
"h.	c #00B9FE",
"i.	c #23ABE9",
"j.	c #32728B",
"k.	c #35718B",
"l.	c #00B6FF",
"m.	c #2DC6FF",
"n.	c #6ED5FF",
"o.	c #86DAFE",
"p.	c #78D5FF",
"q.	c #79D6FF",
"r.	c #68D5FE",
"s.	c #56C6F4",
"t.	c #0D384B",
"u.	c #1F3238",
"v.	c #8ADAFF",
"w.	c #8AE1FF",
"x.	c #6ED3FF",
"y.	c #62CDFF",
"z.	c #24BEFE",
"A.	c #01B2FF",
"B.	c #00B2FC",
"C.	c #0CB8FF",
"D.	c #52CEFF",
"E.	c #70D8FB",
"F.	c #70D7FF",
"G.	c #66ADCB",
"H.	c #00B3FE",
"I.	c #00B5FF",
"J.	c #1DBAFF",
"K.	c #60CFFD",
"L.	c #8CDFFF",
"M.	c #8BE0FF",
"N.	c #76D9FF",
"O.	c #376F88",
"P.	c #000200",
"Q.	c #17262B",
"R.	c #7ECAEC",
"S.	c #79D9FF",
"T.	c #5FCDFE",
"U.	c #2AC0FF",
"V.	c #01B2FE",
"W.	c #00B4FF",
"X.	c #02B4FE",
"Y.	c #3CC7FF",
"Z.	c #65CFFF",
"`.	c #77D7FD",
" +	c #75D7FC",
".+	c #8FE5FE",
"++	c #59A0BE",
"@+	c #349ED0",
"#+	c #2CC7FF",
"$+	c #03B3FE",
"%+	c #05B3FC",
"&+	c #47CAFF",
"*+	c #6CD8FE",
"=+	c #71CAEA",
"-+	c #74C8ED",
";+	c #426D7D",
">+	c #012B41",
",+	c #003D5C",
"'+	c #050706",
")+	c #4E8FAB",
"!+	c #6DDBFE",
"~+	c #32C2FF",
"{+	c #00B3FF",
"]+	c #02B2FE",
"^+	c #01B3FD",
"/+	c #02B3FF",
"(+	c #62CEFD",
"_+	c #6BD2FF",
":+	c #87D9FF",
"<+	c #81DAFF",
"[+	c #6ADAFF",
"}+	c #3B788D",
"|+	c #000004",
"1+	c #000102",
"2+	c #73D5FC",
"3+	c #63D4FF",
"4+	c #1CBEFF",
"5+	c #00B8FE",
"6+	c #14B7FC",
"7+	c #3E91B3",
"8+	c #1E3A48",
"9+	c #1F3B47",
"0+	c #002738",
"a+	c #009BDB",
"b+	c #0099D3",
"c+	c #001018",
"d+	c #162A35",
"e+	c #34AEE1",
"f+	c #0ABBFE",
"g+	c #02B1FF",
"h+	c #00B2FF",
"i+	c #26BEFF",
"j+	c #64D0FF",
"k+	c #65D1FF",
"l+	c #8CDAFF",
"m+	c #7BD6FF",
"n+	c #5CD0FF",
"o+	c #32B9F1",
"p+	c #65A3BA",
"q+	c #87E2FD",
"r+	c #6BD5FF",
"s+	c #3EBDF4",
"t+	c #008CCA",
"u+	c #014260",
"v+	c #00415B",
"w+	c #009BDE",
"x+	c #01BAFD",
"y+	c #01B7FF",
"z+	c #03638D",
"A+	c #013A57",
"B+	c #00A8EF",
"C+	c #00B7FF",
"D+	c #0EB6FD",
"E+	c #50CCFF",
"F+	c #67D0FF",
"G+	c #6ED3FD",
"H+	c #88DCFF",
"I+	c #85D8FF",
"J+	c #84DAFD",
"K+	c #42C4FF",
"L+	c #00B9FC",
"M+	c #008AC5",
"N+	c #2A4B5C",
"O+	c #446A7D",
"P+	c #356071",
"Q+	c #193644",
"R+	c #003041",
"S+	c #0077AB",
"T+	c #0177A7",
"U+	c #01B1FC",
"V+	c #00BCFF",
"W+	c #01ADF7",
"X+	c #014C6C",
"Y+	c #003A52",
"Z+	c #008ABF",
"`+	c #0CADF5",
" @	c #47CEFE",
".@	c #68D8FE",
"+@	c #84DFFC",
"@@	c #8CE1FF",
"#@	c #71D7FD",
"$@	c #70D8FD",
"%@	c #5ED1FF",
"&@	c #1ABEFD",
"*@	c #01B9FF",
"=@	c #016893",
"-@	c #040000",
";@	c #002029",
">@	c #014262",
",@	c #0071A0",
"'@	c #00ACEE",
")@	c #00B7FD",
"!@	c #16141F",
"~@	c #14151A",
"{@	c #15141A",
"]@	c #024C6F",
"^@	c #000509",
"/@	c #00080D",
"(@	c #082D3D",
"_@	c #356B83",
":@	c #4DA1C5",
"<@	c #6CBCDD",
"[@	c #7DC4E2",
"}@	c #6DC5EB",
"|@	c #61C6F2",
"1@	c #60C7F2",
"2@	c #44BCF1",
"3@	c #02AAF1",
"4@	c #00A9EF",
"5@	c #00AEF1",
"6@	c #02A5F0",
"7@	c #034663",
"8@	c #0077A4",
"9@	c #00B0F4",
"0@	c #00BCFE",
"a@	c #00B4FE",
"b@	c #16151D",
"c@	c #01B5FF",
"d@	c #14141C",
"e@	c #0084BC",
"f@	c #20404D",
"g@	c #1F3F4C",
"h@	c #0E374B",
"i@	c #013044",
"j@	c #002F43",
"k@	c #004664",
"l@	c #005377",
"m@	c #00A3E8",
"n@	c #02B8FF",
"o@	c #01B6FD",
"p@	c #1EC3FD",
"q@	c #47C6FD",
"r@	c #15141C",
"s@	c #1E5E7A",
"t@	c #000A0C",
"u@	c #0C2522",
"v@	c #102D29",
"w@	c #004861",
"x@	c #00B1FD",
"y@	c #00B8FF",
"z@	c #0EB9FE",
"A@	c #5FCFFF",
"B@	c #7BD9FF",
"C@	c #79E1FC",
"D@	c #02B6FF",
"E@	c #00B8FB",
"F@	c #019CDF",
"G@	c #009CDF",
"H@	c #002E42",
"I@	c #040003",
"J@	c #006B9A",
"K@	c #00B6FE",
"L@	c #00B5FE",
"M@	c #1EC2FF",
"N@	c #75D4FF",
"O@	c #77D9FF",
"P@	c #70C9F1",
"Q@	c #00AAF0",
"R@	c #005274",
"S@	c #0077A9",
"T@	c #02B2FD",
"U@	c #02B7FE",
"V@	c #00B6FC",
"W@	c #14BDFE",
"X@	c #7DDBFF",
"Y@	c #15131E",
"Z@	c #16131E",
"`@	c #01B8FE",
" #	c #00597E",
".#	c #0077AC",
"+#	c #00B0FC",
"@#	c #03B5FF",
"##	c #16131A",
"$#	c #14141E",
"%#	c #161421",
"&#	c #00597C",
"*#	c #030002",
"=#	c #026B9B",
"-#	c #02BBFE",
";#	c #04B6FF",
">#	c #151521",
",#	c #15151D",
"'#	c #015071",
")#	c #005E81",
"!#	c #10B2FA",
"~#	c #11B4F7",
"{#	c #12B4FC",
"]#	c #10B5F7",
"^#	c #00AEF7",
"/#	c #01AEFA",
"(#	c #003B57",
"_#	c #004863",
":#	c #01B0FF",
"<#	c #0BB7FF",
"[#	c #48CBFF",
"}#	c #62D3FF",
"|#	c #61D1FF",
"1#	c #63D4FE",
"2#	c #64D3FF",
"3#	c #16151B",
"4#	c #00B1FF",
"5#	c #12151E",
"6#	c #00B4FD",
"7#	c #00B0FB",
"8#	c #00293B",
"9#	c #00ABF3",
"0#	c #45C6FF",
"a#	c #76D8FF",
"b#	c #76D6FF",
"c#	c #77D7FF",
"d#	c #76D6FE",
"e#	c #7AD7FF",
"f#	c #60CEFF",
"g#	c #12B9FF",
"h#	c #00B2FD",
"i#	c #02B9FF",
"j#	c #0098DB",
"k#	c #00ACF1",
"l#	c #45C6FD",
"m#	c #75D6FF",
"n#	c #00B3FD",
"o#	c #00B9FF",
"p#	c #00B8FD",
"q#	c #0098D9",
"r#	c #0297D9",
"s#	c #23BCFF",
"t#	c #73D4FE",
"u#	c #74D6FD",
"v#	c #74D5FF",
"w#	c #74D3FF",
"x#	c #70D6FE",
"y#	c #73D6FF",
"z#	c #44C7FF",
"A#	c #03B2FF",
"B#	c #03B7FF",
"C#	c #006C97",
"D#	c #006897",
"E#	c #35C4FF",
"F#	c #78D8FF",
"G#	c #72D5FF",
"H#	c #73D5FF",
"I#	c #72D5FC",
"J#	c #75D5FF",
"K#	c #70D5FF",
"L#	c #76D3FF",
"M#	c #5BCFFF",
"N#	c #06B3FF",
"O#	c #00BAFD",
"P#	c #01AAEF",
"Q#	c #35C5FF",
"R#	c #76D6FC",
"S#	c #73D4FF",
"T#	c #72D5FE",
"U#	c #7BDEFE",
"V#	c #59D7FF",
"W#	c #03BAFE",
"X#	c #03B4FF",
"Y#	c #02B2FB",
"Z#	c #00BAFF",
"`#	c #006895",
" $	c #040001",
".$	c #007AB0",
"+$	c #1DC1FF",
"@$	c #6AD4FE",
"#$	c #74D7FF",
"$$	c #70CEF4",
"%$	c #018AC1",
"&$	c #010004",
"*$	c #039BDC",
"=$	c #43CCFF",
"-$	c #77D8FF",
";$	c #6FCFF9",
">$	c #00B7FB",
",$	c #02B9FD",
"'$	c #019CDC",
")$	c #003448",
"!$	c #05A4E8",
"~$	c #34C7FD",
"{$	c #62D1FE",
"]$	c #61D0FD",
"^$	c #68D3FF",
"/$	c #64D1FC",
"($	c #49CBFF",
"_$	c #0199DA",
":$	c #009ADA",
"<$	c #002B3E",
"[$	c #0098D7",
"}$	c #09BCFF",
"|$	c #06BBFF",
"1$	c #0DB5FE",
"2$	c #03B3FF",
"3$	c #04B9FF",
"4$	c #0896D4",
"5$	c #004566",
"6$	c #004660",
"7$	c #011E2C",
"8$	c #0071A3",
"9$	c #0073A4",
"0$	c #01ABF6",
"a$	c #00ABF0",
"b$	c #076996",
"c$	c #016797",
"d$	c #01AFF8",
"e$	c #014F73",
"f$	c #010005",
"g$	c #0183BD",
"h$	c #00ADF9",
"i$	c #00B5FC",
"j$	c #006A96",
"k$	c #002E40",
"l$	c #0175A6",
"m$	c #0184BA",
"n$	c #012E43",
"o$	c #00557A",
"p$	c #006F9D",
"q$	c #007BB1",
"r$	c #017AB1",
"s$	c #007EB3",
"t$	c #0073A9",
"u$	c #004C6C",
"v$	c #001825",
"w$	c #002534",
"x$	c #002635",
"y$	c #003046",
"z$	c #00536D",
"A$	c #014C63",
"B$	c #002633",
"C$	c #002434",
"D$	c #002537",
"E$	c #002535",
"F$	c #042534",
"G$	c #002337",
"H$	c #012535",
"I$	c #004A67",
"J$	c #006993",
"K$	c #003341",
"L$	c #009BD4",
"M$	c #009CD7",
"N$	c #029ECF",
"O$	c #007599",
"P$	c #004960",
"Q$	c #003E55",
"R$	c #003D56",
"S$	c #003B55",
"T$	c #003D52",
"U$	c #005370",
"V$	c #032838",
"W$	c #025C81",
"X$	c #0092CE",
"Y$	c #00648E",
"Z$	c #020001",
"`$	c #004561",
" %	c #008CC2",
".%	c #0078AC",
"+%	c #0096C7",
"@%	c #00BEFA",
"#%	c #04C0FF",
"$%	c #04A9EB",
"%%	c #009EDF",
"&%	c #01A0E4",
"*%	c #009DE0",
"=%	c #00A3E7",
"-%	c #0182B9",
";%	c #00202F",
">%	c #00618A",
",%	c #0085BE",
"'%	c #006188",
")%	c #035E8B",
"!%	c #0082B8",
"~%	c #0095C7",
"{%	c #02C4FF",
"]%	c #00A5E7",
"^%	c #009FE3",
"/%	c #009EE5",
"(%	c #008DCB",
"_%	c #004966",
":%	c #006D9B",
"<%	c #006A9A",
"[%	c #0179AB",
"}%	c #017DB1",
"|%	c #0198C7",
"1%	c #00C5FF",
"2%	c #00A7E8",
"3%	c #009DE2",
"4%	c #009EE0",
"5%	c #00587C",
"6%	c #018DCA",
"7%	c #018DCB",
"8%	c #00415D",
"9%	c #00425D",
"0%	c #0186BF",
"a%	c #0087BE",
"b%	c #005C85",
"c%	c #0190BA",
"d%	c #01A2E6",
"e%	c #009CE0",
"f%	c #009EE2",
"g%	c #029DDF",
"h%	c #0091CD",
"i%	c #00557C",
"j%	c #002330",
"k%	c #008AC3",
"l%	c #015476",
"m%	c #002B38",
"n%	c #005076",
"o%	c #015077",
"p%	c #0186B3",
"q%	c #01BFFB",
"r%	c #009CE3",
"s%	c #019EE3",
"t%	c #0192D3",
"u%	c #005476",
"v%	c #032940",
"w%	c #002A3B",
"x%	c #0373A3",
"y%	c #01A5EC",
"z%	c #019CDE",
"A%	c #0099DC",
"B%	c #029BDF",
"C%	c #0096DB",
"D%	c #01567D",
"E%	c #0073A2",
"F%	c #00A6EA",
"G%	c #019BE3",
"H%	c #009BDC",
"I%	c #039DE3",
"J%	c #0096D9",
"K%	c #006E9C",
"L%	c #03A1E8",
"M%	c #0099D9",
"N%	c #016FA2",
"O%	c #00A1E2",
"P%	c #00587E",
"Q%	c #016D9E",
"R%	c #00A3E9",
"S%	c #008DCF",
"T%	c #00A2EA",
"U%	c #00577F",
"V%	c #0086C3",
"W%	c #02A1E5",
"X%	c #0099D7",
"Y%	c #034A6A",
"Z%	c #016D9C",
"`%	c #009DDE",
" &	c #0082BE",
".&	c #0096D5",
"+&	c #006E9B",
"@&	c #0095D4",
"#&	c #007CAF",
"$&	c #017EB4",
"%&	c #0093D3",
"&&	c #016B9D",
"*&	c #008DC7",
"=&	c #017DB3",
"-&	c #006593",
";&	c #0191CE",
">&	c #01425E",
",&	c #004161",
"'&	c #01648E",
")&	c #015E89",
"                                                                                ",
"                                                                                ",
"                                                                                ",
"                                                                                ",
"                              . + @ # $ % @                                     ",
"                            & * = - ; > , ' .                                   ",
"                        ) $ ! ~ { ] ^ / ( _ : $                                 ",
"                      @ < [ } | 1 2 3 4 5 6 7 8 $                               ",
"                      @ 9 0 a b c d e f g h i j k @                             ",
"                      $ l m n o p q r s t u v w x $                             ",
"                      $ y z A B C D E F G H I J K $                             ",
"                    L $ M N O @ P Q R S T % U V W $ X @                         ",
"                  X Y Z `  ...+.. @.X #.$.%.&.*.=.-.;.>.X ,.@                   ",
"                  '.).!. .`  .~.{.].,.^./.(._.:.<.[.[.}.+ $ |.                  ",
"                $ 1.2.3.4.5.6.7.8.$ 9.0.a.b.c.d.e.f.g.h.i.j.k.$                 ",
"              $ l.m.n.o.p.q.r.s.t.,.u.v.w.x.y.z.A.A.B.C.D.E.F.G.$               ",
"            ,.H.I.J.K.q.L.M.N.O.$ P.Q.R.S.T.U.H.V.W.X.Y.Z.`. +.+++$             ",
"          ,.@+#+$+%+&+*+=+-+;+,.>+,+'+)+!+~+{+]+^+/+~+(+_+] :+<+[+}+|+          ",
"          1+2+3+4+5+6+7+8+9+$ 0+a+b+c+d+e+f+g+{+h+i+j+k+= a.l+m+n+o+|.          ",
"        @ p+q+r+s+t+u+,.,.$ v+w+x+y+z+@ A+B+g.C+D+E+F+G+H+I+J+x.K+L+M+@         ",
"        $ N+O+P+Q+$ X R+S+T+U+V+W.C+W+X+X Y+Z+`+ @.@n.+@@@#@$@%@&@y+*@=@,.      ",
"        @ @ -@@ ;@>@,@'@l.C+)@!@~@{@!@{@]@^@/@(@_@:@<@[@}@|@1@2@3@4@5@6@7@,.    ",
"            # 8@9@^+0@)@a@l.b@a@c@l.c@d@h+e@u+,.@ $ ,.,.'.f@g@h@i@n j@k@l@'.    ",
"            ,.m@n@h.l.C+l.c@C+)@C+c@o@C+a@p@q@r@s@t@u@v@,.X @ . '.$ ,.,.1+      ",
"          |+w@x@c@C+c@o@l.l.y@c@o@l.l.c@z@A@B@C@W.c@c@l.l.I.D@E@F@G@a+H@I@      ",
"          ,.J@x+W.y+C+y+K@l.c@L@l.I.o@y@M@N@O@P@h.I.l.I.)@C+c@c@Q@x+y@R@@       ",
"          $ S@g.I.T@U@l.C+L@l.l.l.l.{@V@W@j+X@C+l.l.c@Y@Z@`@l.c@c@*@l. #&       ",
"          X .#0@L@+#I.)@@#C+)@l.E@##$#l.y@V@o@c@U@)@l.%#b@L@l.l.l.@#I.&#*#      ",
"          $ =#-#L@+#y@y@K@;#l.)@l.Z@>#c@H.V.W.)@)@y+Y@,#W.y+I.C+l.)@l.'#X       ",
"          $ )#W./+I.l.V@!#~#{#]#!@~@C+L@W.{+a@h+l.!@r@##H.^#/#c@B.l.X.(#$       ",
"          X _#:#X.A.<#[#}#|#1#2#r@3#I.4#$+h+H.]+c@5#,#W.6#c@L@l.L@/+7#8#X       ",
"            . 9#c@c@0#a#b#c#d#N@e#f#g#V.h#W.W.^+a@i#l.A./+h+V.W.H.`@j#$         ",
"            X k#L@@#l#c#c#b#m#b#e#A@t n#V./+{+n#A.o#p#]+A.A.^+H.H.)@q#,.        ",
"            ,.r#C+s#t#u#v#w#w#x#y#b#z#A#L@{+H.B#/+L@D@L@a@W.V.{+A.x+C#X         ",
"            X D#c@E#F#G#H#I#J#K#L#q.M#N#D@O#l.)@)@K@c@c@L@H./+x@l.P#@           ",
"              $ 9#Q#R#K#S#t#T#y#y#U#V#W#C+I.X#C+c@c@)@y@Y#{+h+H.Z#`# $          ",
"              L .$+$@$p.t#w##$J#$$L@y+c@c@y+L@l.o@l.)@A.{+H.I.y@%$&$            ",
"                @ *$=$v#d#d#u#-$;$c@K@b@>$l.~@c@l.C+{+]+H.O#,$'$.               ",
"                  )$!$~${$]$^$/$($l.c@l.{@!@I.C+L@W.H.n#g._$:$$                 ",
"                $ ,.<$[$}$|$C.1$2$a@5+Z#`@C+V.W./+V.y+3$4$@ '.                  ",
"              $ 5$6$@ 7$8$9$0$*@c@6#a@n#A.{+/+L@l.5+a$b$%                       ",
"              $ c$d$e$,.,.f$X g$h$y@V@y@D@L+y@i$F@j$k$|.                        ",
"              $ l$m$X       @ $ n$o$p$q$r$s$t$u$v$w$x$,.                        ",
"              $ y$@     ,.,.z$A$B$C$D$E$B$x$F$G$E$H$I$J$,.                      ",
"                $     $ K$i@L$M$N$O$P$Q$R$S$T$P$U$V$W$X$Y$X X                   ",
"                      Z$`$6$ %.%+%@%#%$%%%&%*%=%-%;%$ >%,%,.+                   ",
"                      $ '%)%!%$ @ ~%{%]%^%^%^%/%(%_%. @ -.:%<%$                 ",
"                    + D$.%[%}%X $ |%1%2%G@3%*%4%(%5%X . u$6%7%8%$               ",
"                    X 9%0%a%b%$ ,.c%1%d%e%f%g%*%h%i%X Z$j%k%M+l%$               ",
"                    X m%n%o%$   X p%q%3%%%*%r%s%t%u%.   X v%w%@                 ",
"                      $ ,.@     $ x%y%z%A%B%3%f%C%D%.     X X                   ",
"                                $ E%F%G%a+H%%%I%J%5%$                           ",
"                                $ K%L%M%N%|.X O%_$P%Z$                          ",
"                                $ Q%R%S%'.  X T%j#U%$                           ",
"                                + Q%&%V%@   $ W%X%Y%$                           ",
"                                $ Z%`% &$   @ .&.&u+P.                          ",
"                                $ +&@&#&,.  $ $&%&8%.                           ",
"                                @ &&*&=&X   ,.-&;&>&X                           ",
"                                ,.,&'&R@$     $ )&>+@                           ",
"                                  $ @ $         @ $                             "};
