/* XPM */
static char * watergirlLeft1_xpm[] = {
"40 60 254 2",
"  	c #123123",
". 	c #000002",
"+ 	c #000100",
"@ 	c #000000",
"# 	c #010101",
"$ 	c #010004",
"% 	c #03A6EB",
"& 	c #03A5E6",
"* 	c #0AA4EA",
"= 	c #02A4EC",
"- 	c #04A5EB",
"; 	c #06A4EB",
"> 	c #80DAFF",
", 	c #80D8FC",
"' 	c #7EDBFD",
") 	c #020100",
"! 	c #04A5E9",
"~ 	c #82DAFE",
"{ 	c #85DAFF",
"] 	c #83DCFE",
"^ 	c #86D8FE",
"/ 	c #83DBFF",
"( 	c #81D9FF",
"_ 	c #03A6E9",
": 	c #05A3EA",
"< 	c #00B3FE",
"[ 	c #86DAFF",
"} 	c #4CC9FF",
"| 	c #4BCAFF",
"1 	c #48CBFF",
"2 	c #7FD9FE",
"3 	c #83D8FF",
"4 	c #01B3FD",
"5 	c #00B3FF",
"6 	c #010000",
"7 	c #02A5EA",
"8 	c #49CBFF",
"9 	c #48C9FF",
"0 	c #00B4FF",
"a 	c #205162",
"b 	c #1F505F",
"c 	c #214F66",
"d 	c #023C52",
"e 	c #000201",
"f 	c #030000",
"g 	c #06A4EE",
"h 	c #00B5FF",
"i 	c #043C55",
"j 	c #033B52",
"k 	c #355A6D",
"l 	c #01B2FF",
"m 	c #03A4EC",
"n 	c #010002",
"o 	c #06A5E9",
"p 	c #03A8E8",
"q 	c #05A4E8",
"r 	c #023B56",
"s 	c #043C53",
"t 	c #365B6D",
"u 	c #345B6C",
"v 	c #00B3FD",
"w 	c #00B4FB",
"x 	c #01A5EC",
"y 	c #07A3ED",
"z 	c #00B2FF",
"A 	c #02B3FF",
"B 	c #4BCAFD",
"C 	c #000004",
"D 	c #013D57",
"E 	c #033D55",
"F 	c #355C6D",
"G 	c #02B1FF",
"H 	c #020001",
"I 	c #05A6EA",
"J 	c #00B1FD",
"K 	c #01B2FE",
"L 	c #00B4FE",
"M 	c #05A3EC",
"N 	c #84D9FF",
"O 	c #85DBFE",
"P 	c #00B4FD",
"Q 	c #013241",
"R 	c #003044",
"S 	c #033148",
"T 	c #02B2FD",
"U 	c #86DAFE",
"V 	c #84D9FE",
"W 	c #85DBFC",
"X 	c #01B1FD",
"Y 	c #013147",
"Z 	c #05A6EC",
"` 	c #04A6E7",
" .	c #00B5FE",
"..	c #48CAFC",
"+.	c #00B1FF",
"@.	c #49CAFF",
"#.	c #355C6B",
"$.	c #000200",
"%.	c #03A5ED",
"&.	c #85D8FF",
"*.	c #86DBFF",
"=.	c #48CAFE",
"-.	c #030002",
";.	c #4AC9FC",
">.	c #87DBFF",
",.	c #345B6A",
"'.	c #4AC9FE",
").	c #01B5FF",
"!.	c #355A6A",
"~.	c #04A7EA",
"{.	c #03A4E8",
"].	c #4AC9FF",
"^.	c #00B2FD",
"/.	c #04B1FF",
"(.	c #00B6FE",
"_.	c #07A5EC",
":.	c #06A4ED",
"<.	c #02A7E9",
"[.	c #02A6ED",
"}.	c #1F3238",
"|.	c #47CBFC",
"1.	c #4AC8FF",
"2.	c #00B2FC",
"3.	c #375B6B",
"4.	c #335C6E",
"5.	c #020003",
"6.	c #009BDE",
"7.	c #009BDD",
"8.	c #019ADD",
"9.	c #1F3239",
"0.	c #010103",
"a.	c #355A6C",
"b.	c #019ADE",
"c.	c #009CDB",
"d.	c #009CD9",
"e.	c #1E3239",
"f.	c #010200",
"g.	c #03B3FF",
"h.	c #02B4FE",
"i.	c #0498D8",
"j.	c #010005",
"k.	c #04A4EE",
"l.	c #02638E",
"m.	c #0297D9",
"n.	c #00B5FC",
"o.	c #03A4EA",
"p.	c #02A7EB",
"q.	c #00648E",
"r.	c #00638D",
"s.	c #01628D",
"t.	c #0098D9",
"u.	c #03B2FF",
"v.	c #02A7E7",
"w.	c #04A5ED",
"x.	c #01648E",
"y.	c #85D9FE",
"z.	c #01648D",
"A.	c #00638F",
"B.	c #001F2E",
"C.	c #85D9FB",
"D.	c #06A3E6",
"E.	c #00668D",
"F.	c #001F2C",
"G.	c #005479",
"H.	c #00557A",
"I.	c #011E2C",
"J.	c #0298D7",
"K.	c #04A7EC",
"L.	c #00648F",
"M.	c #031F2B",
"N.	c #005679",
"O.	c #015579",
"P.	c #0199D8",
"Q.	c #49CBFD",
"R.	c #47CAFF",
"S.	c #87D9FE",
"T.	c #86DCFD",
"U.	c #07A4E9",
"V.	c #006291",
"W.	c #005578",
"X.	c #0099D5",
"Y.	c #0297DB",
"Z.	c #02B2FE",
"`.	c #47C8FF",
" +	c #01A6EA",
".+	c #01628C",
"++	c #0099D7",
"@+	c #49CCFF",
"#+	c #00638C",
"$+	c #021F2D",
"%+	c #00202D",
"&+	c #031F2D",
"*+	c #0098DB",
"=+	c #01B0FF",
"-+	c #02648B",
";+	c #001E2D",
">+	c #001F30",
",+	c #001F31",
"'+	c #021E2C",
")+	c #0099D9",
"!+	c #009AD8",
"~+	c #03B3FC",
"{+	c #031E2F",
"]+	c #011E2E",
"^+	c #0298D5",
"/+	c #0399D8",
"(+	c #010100",
"_+	c #017AAF",
":+	c #017AB1",
"<+	c #007CAE",
"[+	c #037BB0",
"}+	c #007CAF",
"|+	c #007BAF",
"1+	c #0E0000",
"2+	c #013040",
"3+	c #003144",
"4+	c #080000",
"5+	c #01628F",
"6+	c #013240",
"7+	c #86D9FF",
"8+	c #0D0200",
"9+	c #0A0200",
"0+	c #003142",
"a+	c #002F41",
"b+	c #005478",
"c+	c #00547B",
"d+	c #015577",
"e+	c #005775",
"f+	c #00B3FC",
"g+	c #005779",
"h+	c #01557A",
"i+	c #003242",
"j+	c #130101",
"k+	c #015378",
"l+	c #140000",
"m+	c #00567A",
"n+	c #00557C",
"o+	c #100001",
"p+	c #040001",
"q+	c #01313F",
"r+	c #03A5EE",
"s+	c #02547C",
"t+	c #00648C",
"u+	c #0D0001",
"v+	c #005576",
"w+	c #0C0004",
"x+	c #0A0000",
"y+	c #016390",
"z+	c #00628F",
"A+	c #515151",
"B+	c #0F0601",
"C+	c #120000",
"D+	c #0C0100",
"E+	c #150000",
"                                                                                ",
"                                                                                ",
"                                                                                ",
"                                                                                ",
"                                                                                ",
"                                                                                ",
"                                                                                ",
"                                                                                ",
"                                    . + . @ @ @ @ . # @ $ @                     ",
"                                  @ % & * = - ; - > , > ' .                     ",
"                                ) @ ; ! ~ { ] { ^ / ( _ ; @                     ",
"                                @ ! : < [ } | 1 | 2 3 4 5 6                     ",
"                                @ 7 - _ ! 8 9 0 a b c d # + + @                 ",
"                              + . e f g % h i j @ 6 @ k l l m 6 @               ",
"                      + + n 6 + o p q _ < r s . + t u < v m - _ @               ",
"                    . @ w x y _ 7 z A z 5 B C D E F G h ! _ q . @               ",
"                  H 5 v 0 I J 0 5 K l 5 L v < 5 0 < 5 v 7 ! @ @                 ",
"                . @ h M % l / N O / w K 0 K P K 4 Q R S . @                     ",
"              + - M o T U V W | 8 1 K @ A 5 X h l Y # + +                       ",
"          + 6 Z `  .z / O | 9 ..| . 6 < +.@.8 0 0 4 G #.t $.                    ",
"          @ %.m J L &.*.=...| 8 -.. < 0 L ;.[ >.5 A 5 l ,.e                     ",
"        + @ ! ! % +.*.'.| =.@.4 e h 4 L | 1 N [ ^ z ).< 0 !..                   ",
"        . ~.{.{.q v l 8 ].< ^.. v J A K < 9 ].v [ [ z /.(.t 6 @                 ",
"        @ . _.% :.<.[.q + @ 6 }.. v l < 4 K |.1.].O 2.h v 3.4.6                 ",
"        5.. @ @ + @ @ . 6.7.8.0 9.. 6 @ 0.P l K 5 0 K z w 0 a.6                 ",
"        + b.c.8.b.6.6.d.5 P K 4 v 6.e.9.+ 6 f.0 g.K v h.5 K L 7 @               ",
"      @ i.K < j.h.J l 0 A 0 h.0 K 5 < - 6.k.+ 6 + 6 0 +.A l ^.l.#               ",
"      + m.0 h 6 @ < 4 h z A T 0 n.l K :.; _ o.! p.! + @ @ q.r.s.@               ",
"      # t.< K v @ < u.+.0 l < 0 5 A  .z _ v.; %.w.s.7 s.) @ 6 x.@               ",
"      6 t.h.^.0 . L v K 5 0 n.A l < 9 { y.'.I ; % z.x.A.B.6 z.A.@               ",
"      @ t.+.v K @ + l h 4 G u.v A @.| C.{ O X _ w.D.m E.F.. G.H.@               ",
"      @ I.J.0 < v G < h K v 5 A K < 8 9 { y.[ _ _ K.o L.M.G.N.O.#               ",
"      @ n P.< < l < 0 G K < 0 z l L | Q.R.S.T.o.q U.<.V.B.F.W.n @               ",
"        + X.Y.v 0 G < < < < K < 4 4 Z.`.} @.V _ 7  +<.s..+I.N.@                 ",
"          + ++< < h.K K < 5 v Z.K P z L =.@+v M {.w.#+$+F.%+@                   ",
"          C &+*+z ) l L l l g.z 0 4 l L 0 =+l - % :.-+;+>+6 n                   ",
"            %+$.@ 2.K L l v 5 5 <  .K 4 2.0 < v._ s.B.,+@ $.                    ",
"            n '+t.)+!+z v +.~+J A < P 5 < +.:.o L I.5.@ +                       ",
"              @ F.{+B.]+^+/++.0 L X 0 l 0 L 5 4 B.n +                           ",
"                  @ (++ . . + _+:+<+_+[+}+|+|+B.@ @                             ",
"                            . . . @ 5.+ 6 + . .                                 ",
"                            @ 1+2+3+4+5+x.h @                                   ",
"                            -.6+: 7+8+L l P 0 +                                 ",
"                          9+6 z 5 x.0+x.5 V z 6                                 ",
"                          n z.5 #+a+P < A [ - $.                                ",
"                          f.b+5 c+A.< v L Z.! .                                 ",
"                          6 d+K e+s.G h.f+g.! 6 @                               ",
"                          @ 0+K 0+A l < A W.g+h+@                               ",
"                          6 n i+j+L A 5 < - k+b+@                               ",
"                            @ 6 l+0 +.K 5 {.O.m+@                               ",
"                              6 H.J K h.f+- n @ @                               ",
"                              . n+0 4 < g.L +                                   ",
"                            @ o+o < A < 5 5 p+                                  ",
"                            . q+h.r+e < v v .                                   ",
"                            @ s+K t+u+r.K l + 6                                 ",
"                            @ v+0 s.w+x+_ K y+6                                 ",
"                            + z+K h+@ @ y+K r.A+                                ",
"                            B+N.< b++   + 5 r.6                                 ",
"                            C+D+O.E+.   @ r.r.@                                 ",
"                              0.. @       6 + .                                 "};
