/* XPM */
static char * watergirlRight2_xpm[] = {
"40 60 255 2",
"  	c #123123",
". 	c #000000",
"+ 	c #010004",
"@ 	c #010101",
"# 	c #000002",
"$ 	c #000100",
"% 	c #7EDBFD",
"& 	c #80DAFF",
"* 	c #80D8FC",
"= 	c #04A5EB",
"- 	c #06A4EB",
"; 	c #02A4EC",
"> 	c #0AA4EA",
", 	c #03A5E6",
"' 	c #03A6EB",
") 	c #03A6E9",
"! 	c #81D9FF",
"~ 	c #83DBFF",
"{ 	c #86D8FE",
"] 	c #85DAFF",
"^ 	c #83DCFE",
"/ 	c #82DAFE",
"( 	c #04A5E9",
"_ 	c #020100",
": 	c #010000",
"< 	c #00B3FF",
"[ 	c #01B3FD",
"} 	c #83D8FF",
"| 	c #7FD9FE",
"1 	c #4BCAFF",
"2 	c #48CBFF",
"3 	c #4CC9FF",
"4 	c #86DAFF",
"5 	c #00B3FE",
"6 	c #05A3EA",
"7 	c #023C52",
"8 	c #214F66",
"9 	c #1F505F",
"0 	c #205162",
"a 	c #00B4FF",
"b 	c #48C9FF",
"c 	c #49CBFF",
"d 	c #02A5EA",
"e 	c #03A4EC",
"f 	c #01B2FF",
"g 	c #355A6D",
"h 	c #033B52",
"i 	c #043C55",
"j 	c #00B5FF",
"k 	c #06A4EE",
"l 	c #030000",
"m 	c #000201",
"n 	c #00B3FD",
"o 	c #345B6C",
"p 	c #365B6D",
"q 	c #043C53",
"r 	c #023B56",
"s 	c #05A4E8",
"t 	c #03A8E8",
"u 	c #06A5E9",
"v 	c #010002",
"w 	c #02B1FF",
"x 	c #355C6D",
"y 	c #033D55",
"z 	c #013D57",
"A 	c #000004",
"B 	c #4BCAFD",
"C 	c #00B2FF",
"D 	c #02B3FF",
"E 	c #07A3ED",
"F 	c #01A5EC",
"G 	c #00B4FB",
"H 	c #00B4FE",
"I 	c #01B2FE",
"J 	c #00B1FD",
"K 	c #05A6EA",
"L 	c #020001",
"M 	c #033148",
"N 	c #003044",
"O 	c #013241",
"P 	c #00B4FD",
"Q 	c #85DBFE",
"R 	c #84D9FF",
"S 	c #05A3EC",
"T 	c #013147",
"U 	c #01B1FD",
"V 	c #85DBFC",
"W 	c #84D9FE",
"X 	c #86DAFE",
"Y 	c #02B2FD",
"Z 	c #000200",
"` 	c #355C6B",
" .	c #49CAFF",
"..	c #00B1FF",
"+.	c #48CAFC",
"@.	c #00B5FE",
"#.	c #04A6E7",
"$.	c #05A6EC",
"%.	c #345B6A",
"&.	c #87DBFF",
"*.	c #4AC9FC",
"=.	c #030002",
"-.	c #48CAFE",
";.	c #86DBFF",
">.	c #85D8FF",
",.	c #03A5ED",
"'.	c #355A6A",
").	c #01B5FF",
"!.	c #4AC9FE",
"~.	c #00B6FE",
"{.	c #04B1FF",
"].	c #4AC9FF",
"^.	c #00B2FD",
"/.	c #03A4E8",
"(.	c #04A7EA",
"_.	c #335C6E",
":.	c #375B6B",
"<.	c #00B2FC",
"[.	c #4AC8FF",
"}.	c #47CBFC",
"|.	c #1F3238",
"1.	c #02A6ED",
"2.	c #02A7E9",
"3.	c #06A4ED",
"4.	c #07A5EC",
"5.	c #355A6C",
"6.	c #010103",
"7.	c #1F3239",
"8.	c #019ADD",
"9.	c #009BDD",
"0.	c #009BDE",
"a.	c #020003",
"b.	c #02B4FE",
"c.	c #03B3FF",
"d.	c #010200",
"e.	c #1E3239",
"f.	c #009CD9",
"g.	c #019ADE",
"h.	c #009CDB",
"i.	c #02638E",
"j.	c #04A4EE",
"k.	c #010005",
"l.	c #0498D8",
"m.	c #01628D",
"n.	c #00638D",
"o.	c #00648E",
"p.	c #02A7EB",
"q.	c #03A4EA",
"r.	c #00B5FC",
"s.	c #0297D9",
"t.	c #01648E",
"u.	c #04A5ED",
"v.	c #02A7E7",
"w.	c #03B2FF",
"x.	c #0098D9",
"y.	c #00638F",
"z.	c #01648D",
"A.	c #001F2E",
"B.	c #85D9FE",
"C.	c #00557A",
"D.	c #005479",
"E.	c #001F2C",
"F.	c #00668D",
"G.	c #06A3E6",
"H.	c #85D9FB",
"I.	c #015579",
"J.	c #005679",
"K.	c #031F2B",
"L.	c #00648F",
"M.	c #04A7EC",
"N.	c #0298D7",
"O.	c #011E2C",
"P.	c #005578",
"Q.	c #006291",
"R.	c #07A4E9",
"S.	c #86DCFD",
"T.	c #87D9FE",
"U.	c #47CAFF",
"V.	c #49CBFD",
"W.	c #0199D8",
"X.	c #01628C",
"Y.	c #01A6EA",
"Z.	c #47C8FF",
"`.	c #02B2FE",
" +	c #0297DB",
".+	c #0099D5",
"++	c #00202D",
"@+	c #021F2D",
"#+	c #00638C",
"$+	c #49CCFF",
"%+	c #0099D7",
"&+	c #001F30",
"*+	c #001E2D",
"=+	c #02648B",
"-+	c #01B0FF",
";+	c #0098DB",
">+	c #031F2D",
",+	c #001F31",
"'+	c #03B3FC",
")+	c #009AD8",
"!+	c #0099D9",
"~+	c #021E2C",
"{+	c #0399D8",
"]+	c #0298D5",
"^+	c #011E2E",
"/+	c #031E2F",
"(+	c #007BAF",
"_+	c #007CAF",
":+	c #037BB0",
"<+	c #017AAF",
"[+	c #007CAE",
"}+	c #017AB1",
"|+	c #010100",
"1+	c #090001",
"2+	c #013243",
"3+	c #013044",
"4+	c #0E0000",
"5+	c #0C0200",
"6+	c #013240",
"7+	c #00313F",
"8+	c #0A0200",
"9+	c #2C5B6F",
"0+	c #2A5A70",
"a+	c #00628E",
"b+	c #005478",
"c+	c #2B5A6E",
"d+	c #016390",
"e+	c #015378",
"f+	c #015577",
"g+	c #003341",
"h+	c #003142",
"i+	c #2B5B6F",
"j+	c #2C5871",
"k+	c #013040",
"l+	c #10B8FF",
"m+	c #13BAFF",
"n+	c #1EBBFE",
"o+	c #003140",
"p+	c #130002",
"q+	c #01557A",
"r+	c #01A6E8",
"s+	c #0D0000",
"t+	c #050100",
"u+	c #01577A",
"v+	c #006490",
"w+	c #1A0003",
"x+	c #1C0000",
"y+	c #1D0002",
"z+	c #0F0101",
"A+	c #0A0001",
"B+	c #0C0000",
"C+	c #00648C",
"D+	c #02567A",
"E+	c #0E0500",
"F+	c #00557C",
"                                                                                ",
"                                                                                ",
"                                                                                ",
"                                                                                ",
"                                                                                ",
"                                                                                ",
"                                                                                ",
"                                                                                ",
"                    . + . @ # . . . . # $ #                                     ",
"                    # % & * & = - = ; > , ' .                                   ",
"                    . - ) ! ~ { ] ^ ] / ( - . _                                 ",
"                    : < [ } | 1 2 1 3 4 5 6 ( .                                 ",
"                . $ $ @ 7 8 9 0 a b c ( ) = d .                                 ",
"              . : e f f g . : . h i j ' k l m # $                               ",
"              . ) = e n 5 o p $ # q r 5 ) s t u $ : v $ $                       ",
"              . # s ) ( j w x y z A B < C D C d ) E F G . #                     ",
"                . . ( d n < 5 a < 5 n H < f I < a J K a n < L                   ",
"                    . # M N O [ I P I a I G ~ Q R ~ f ' S j . #                 ",
"                      $ $ @ T f j U < D . I 2 c 1 V W X Y u S = $               ",
"                    Z p ` w [ a a c  ...5 : # 1 +.b 1 Q ~ C @.#.$.: $           ",
"                    m %.f < D < &.4 *.H a 5 # =.c 1 +.-.;.>.H J e ,..           ",
"                  # '.a 5 ).C { 4 R 2 1 H [ j m [  .-.1 !.;...' ( ( . $         ",
"                . : p ~.{.C 4 4 n ].b 5 I D J n # ^.5 ].c f n s /./.(.#         ",
"                : _.:.n j <.Q ].[.}.I [ 5 f n # |.: . $ s 1.2.3.' 4.# .         ",
"                : 5.a G C I a < I f P 6.. : # 7.a 8.9.0.# . . $ . . # a.        ",
"              . d H I < b.n I c.a d.: $ 7.e.0.n [ I P < f.0.0.g.8.h.g.$         ",
"              @ i.^.f D ..a : $ : $ j.0.= 5 < I a b.a D a f J b.k.5 I l..       ",
"              . m.n.o.. . $ ( p.( q.) - 3.I f r.a Y D C j [ 5 . : j a s.$       ",
"              . t.: . _ m.d m.u.,.- v.) C @.D < a 5 f a ..w.5 . n I 5 x.@       ",
"              . y.z.: A.y.t.z.' - K !.B.] b 5 f D r.a < I n H # a ^.b.x.:       ",
"              . C.D.# E.F.e G.u.) U Q ] H.1  .D n w.w [ j f $ . I n ..x..       ",
"              @ I.J.D.K.L.u M.) ) 4 B.] b c 5 I D < n I j 5 w n 5 a N.O..       ",
"              . v P.E.A.Q.2.R.s q.S.T.U.V.1 H f C a 5 I w a 5 f 5 5 W.v .       ",
"                . J.O.X.m.2.Y.d ) W  .3 Z.`.[ [ 5 I 5 5 5 5 w a n  +.+$         ",
"                  . ++E.@+#+u./.S n $+-.H C P I `.n < 5 I I b.5 5 %+$           ",
"                  v : &+*+=+3.' = f -+a H f [ a C c.f f H f _ C ;+>+A           ",
"                    Z . ,+A.m.) v.5 a <.[ I @.5 < < n f H I <.. Z ++            ",
"                      $ . a.O.H u 3...5 < P 5 D J '+..n C )+!+x.~+v             ",
"                          $ v A.[ < H a f a U H a ..{+]+^+A./+E..               ",
"                            . . A.(+(+_+:+<+[+}+<+$ # # $ |+.                   ",
"                                # . $ # . . : $ # #                             ",
"                                  : a t.m.1+2+3+4+.                             ",
"                                v H H C a 5+4 ,.6+=.                            ",
"                                # < ] D m.7+m.[ C : 8+                          ",
"                                . D ] J 9+< 2+n.< z.v                           ",
"                                $ `.j D 0+f a+J.< b+d.                          ",
"                              . $ n f < c+G d+e+I f+:                           ",
"                            . . ,.I U g+f < ^.2+I h+.                           ",
"                            v : c+i+j+k+l+m+n+6+o+3+m                           ",
"                          $ [ j f a j 2.D.5 a p+. v                             ",
"                    $ n.5 I `.4 B.I a u.D.a Y q+#                               ",
"                    # t.J a { H n ( r+s+t+u+I C.:                               ",
"                    . . |+n.L.- v+w+x+  v y+a = z+.                             ",
"                      v . @ : A+B+        $ S n h+l                             ",
"                                          m C+C I.$                             ",
"                                          . n.f q+.                             ",
"                                          . D.< z.:                             ",
"                                          . D+[ C.E+                            ",
"                                          # I.F+D.B+                            ",
"                                            : . L                               "};
